<?xml version="1.0" encoding="utf-8" ?>
<svg baseProfile="full" height="134" version="1.1" width="308" xmlns="http://www.w3.org/2000/svg" xmlns:ev="http://www.w3.org/2001/xml-events" xmlns:xlink="http://www.w3.org/1999/xlink"><defs /><path d="M 146,128 L 147,128 Z" fill="#152553" /><path d="M 149,124 L 152,124 Z" fill="#152553" /><path d="M 145,124 L 144,125 L 145,125 Z" fill="#152553" /><path d="M 139,123 L 139,124 Z" fill="#152553" /><path d="M 129,118 L 129,119 Z" fill="#152553" /><path d="M 161,117 L 162,118 L 164,118 L 163,118 L 162,117 Z" fill="#152553" /><path d="M 129,115 L 130,115 L 131,116 L 132,116 L 133,117 L 134,117 L 133,117 L 131,115 Z" fill="#152553" /><path d="M 114,110 L 115,110 Z" fill="#152553" /><path d="M 85,106 L 84,107 L 85,107 L 86,106 Z" fill="#152553" /><path d="M 249,105 L 249,106 Z" fill="#152553" /><path d="M 185,105 L 185,106 L 186,106 L 186,105 Z" fill="#152553" /><path d="M 110,105 L 110,106 Z" fill="#152553" /><path d="M 42,105 L 42,106 L 43,106 Z" fill="#152553" /><path d="M 207,103 L 207,104 Z" fill="#152553" /><path d="M 253,100 L 254,100 Z" fill="#152553" /><path d="M 106,100 L 107,100 Z" fill="#152553" /><path d="M 91,100 L 90,101 Z" fill="#152553" /><path d="M 99,99 L 100,99 Z" fill="#152553" /><path d="M 94,99 L 95,99 Z" fill="#152553" /><path d="M 259,98 L 260,98 L 261,99 L 260,98 Z" fill="#152553" /><path d="M 36,98 L 34,100 Z" fill="#152553" /><path d="M 255,95 L 255,97 L 254,98 L 255,98 L 255,97 L 256,96 L 256,95 Z" fill="#152553" /><path d="M 201,95 L 201,96 Z" fill="#152553" /><path d="M 93,95 L 93,96 L 94,96 L 95,95 Z" fill="#152553" /><path d="M 100,94 L 100,95 Z" fill="#152553" /><path d="M 36,94 L 36,95 L 37,95 Z" fill="#152553" /><path d="M 261,93 L 260,94 L 259,94 L 259,95 L 261,93 L 262,93 Z" fill="#152553" /><path d="M 196,93 L 197,93 Z" fill="#152553" /><path d="M 192,93 L 193,93 Z" fill="#152553" /><path d="M 261,88 L 262,88 Z" fill="#152553" /><path d="M 33,88 L 34,88 Z" fill="#152553" /><path d="M 196,84 L 196,85 Z" fill="#152553" /><path d="M 99,84 L 99,86 Z" fill="#152553" /><path d="M 198,82 L 199,82 Z" fill="#152553" /><path d="M 95,82 L 96,82 Z" fill="#152553" /><path d="M 92,82 L 93,82 Z" fill="#152553" /><path d="M 42,81 L 42,82 L 43,82 L 43,81 Z" fill="#152553" /><path d="M 207,74 L 207,76 Z" fill="#152553" /><path d="M 43,74 L 43,75 L 44,74 Z" fill="#152553" /><path d="M 250,71 L 251,72 L 251,74 L 252,74 L 251,73 L 251,72 Z" fill="#152553" /><path d="M 249,68 L 249,69 Z" fill="#152553" /><path d="M 46,68 L 46,70 Z" fill="#152553" /><path d="M 43,65 L 44,66 L 44,65 Z" fill="#152553" /><path d="M 248,63 L 249,63 Z" fill="#152553" /><path d="M 243,55 L 243,56 Z" fill="#152553" /><path d="M 242,46 L 242,47 Z" fill="#152553" /><path d="M 53,46 L 53,48 Z" fill="#152553" /><path d="M 236,34 L 236,35 L 237,36 L 237,38 L 238,39 L 238,41 L 239,42 L 239,43 L 240,44 L 239,43 L 239,42 L 238,41 L 238,37 L 236,35 Z" fill="#152553" /><path d="M 200,32 L 200,33 Z" fill="#152553" /><path d="M 202,29 L 202,30 Z" fill="#152553" /><path d="M 93,26 L 94,27 L 94,26 Z" fill="#152553" /><path d="M 201,25 L 202,26 Z" fill="#152553" /><path d="M 196,22 L 195,23 L 97,23 L 97,31 L 98,32 L 98,33 L 98,32 L 99,31 L 100,32 L 101,32 L 102,31 L 104,31 L 106,33 L 106,35 L 105,36 L 61,36 L 61,37 L 60,38 L 60,39 L 59,40 L 58,39 L 58,37 L 57,37 L 57,41 L 56,42 L 56,43 L 55,44 L 56,43 L 56,42 L 57,41 L 57,40 L 58,39 L 59,40 L 59,43 L 58,44 L 58,46 L 57,47 L 57,48 L 56,49 L 56,50 L 55,51 L 55,53 L 54,54 L 54,56 L 53,57 L 52,56 L 52,54 L 52,56 L 53,57 L 53,60 L 52,61 L 52,64 L 51,65 L 50,64 L 50,62 L 50,68 L 49,69 L 49,71 L 48,72 L 48,75 L 47,76 L 47,77 L 46,78 L 46,80 L 45,81 L 45,83 L 44,84 L 38,84 L 37,85 L 36,85 L 36,91 L 37,92 L 41,92 L 42,93 L 42,95 L 43,96 L 43,98 L 46,101 L 46,102 L 45,103 L 44,102 L 44,103 L 45,103 L 46,102 L 50,106 L 49,107 L 50,106 L 51,106 L 52,107 L 51,108 L 51,109 L 51,108 L 52,107 L 53,108 L 54,108 L 55,109 L 57,109 L 58,110 L 61,110 L 62,111 L 70,111 L 71,110 L 75,110 L 76,109 L 78,109 L 79,108 L 80,108 L 84,104 L 85,104 L 86,103 L 86,102 L 89,99 L 89,98 L 90,97 L 90,96 L 91,95 L 91,93 L 92,92 L 96,92 L 98,94 L 98,93 L 97,93 L 96,92 L 96,89 L 97,88 L 96,87 L 96,84 L 89,84 L 88,83 L 89,82 L 90,82 L 89,82 L 87,80 L 87,79 L 86,78 L 86,76 L 85,75 L 85,72 L 84,71 L 84,70 L 83,69 L 83,67 L 84,66 L 85,67 L 85,68 L 87,70 L 87,74 L 88,75 L 88,76 L 89,77 L 88,76 L 88,74 L 87,73 L 87,71 L 88,70 L 96,70 L 100,66 L 101,67 L 101,68 L 102,69 L 103,69 L 104,68 L 106,70 L 106,90 L 105,91 L 105,92 L 106,93 L 106,97 L 107,98 L 108,98 L 109,99 L 110,99 L 113,102 L 112,103 L 114,105 L 115,105 L 114,105 L 112,103 L 113,102 L 115,102 L 117,104 L 118,104 L 119,105 L 120,105 L 121,106 L 120,107 L 119,107 L 118,108 L 118,109 L 119,110 L 118,109 L 118,108 L 119,107 L 120,107 L 123,110 L 124,110 L 125,109 L 126,109 L 128,111 L 129,111 L 130,112 L 131,112 L 133,114 L 134,114 L 136,116 L 137,116 L 138,117 L 137,118 L 136,118 L 137,118 L 138,117 L 139,117 L 140,118 L 141,118 L 144,121 L 145,121 L 146,122 L 149,122 L 150,121 L 151,121 L 153,119 L 154,119 L 156,117 L 157,117 L 158,118 L 157,117 L 158,116 L 159,116 L 161,114 L 163,114 L 164,115 L 165,115 L 164,115 L 163,114 L 166,111 L 167,111 L 168,110 L 169,110 L 171,108 L 172,108 L 174,106 L 175,106 L 177,108 L 178,108 L 177,108 L 175,106 L 177,104 L 178,104 L 179,103 L 180,103 L 181,102 L 182,102 L 183,103 L 181,105 L 184,102 L 183,101 L 185,99 L 186,99 L 187,100 L 189,100 L 191,98 L 189,100 L 187,100 L 186,99 L 187,98 L 188,98 L 190,96 L 190,94 L 189,93 L 190,92 L 190,91 L 189,90 L 189,73 L 190,72 L 190,69 L 191,68 L 193,70 L 201,70 L 203,68 L 205,68 L 205,67 L 206,66 L 207,67 L 207,68 L 209,70 L 209,71 L 209,70 L 210,69 L 211,70 L 211,72 L 210,73 L 210,75 L 209,76 L 209,78 L 208,79 L 208,81 L 207,82 L 206,82 L 207,83 L 206,84 L 200,84 L 199,85 L 199,90 L 198,91 L 197,90 L 199,92 L 200,92 L 201,93 L 202,92 L 203,92 L 204,93 L 204,95 L 205,96 L 205,97 L 208,100 L 208,101 L 213,106 L 212,107 L 213,106 L 214,106 L 217,109 L 219,109 L 220,110 L 224,110 L 225,111 L 233,111 L 234,110 L 237,110 L 238,109 L 240,109 L 241,108 L 242,108 L 243,107 L 244,108 L 244,109 L 244,108 L 243,107 L 244,106 L 245,106 L 250,101 L 250,100 L 252,98 L 252,97 L 253,96 L 253,93 L 254,92 L 259,92 L 259,85 L 258,84 L 252,84 L 251,83 L 252,82 L 253,82 L 252,82 L 249,79 L 249,78 L 250,77 L 250,76 L 250,77 L 249,78 L 248,77 L 248,75 L 249,74 L 249,73 L 249,74 L 248,75 L 247,74 L 247,71 L 246,70 L 246,68 L 245,67 L 245,63 L 244,64 L 243,63 L 243,61 L 242,60 L 242,58 L 241,57 L 241,54 L 240,53 L 240,51 L 239,50 L 239,49 L 238,48 L 238,46 L 237,45 L 237,44 L 236,43 L 236,40 L 235,39 L 235,37 L 234,36 L 190,36 L 189,35 L 189,33 L 191,31 L 193,31 L 194,32 L 195,31 L 196,32 L 197,32 L 198,31 L 198,23 L 197,23 Z" fill="#152553" /><path d="M 212,16 L 212,17 Z" fill="#152553" /><path d="M 81,14 L 81,15 Z" fill="#152553" /><path d="M 88,12 L 88,13 L 86,15 L 86,16 L 86,15 L 87,14 L 88,15 L 88,20 L 207,20 L 208,19 L 208,17 L 209,16 L 210,16 L 208,14 L 208,13 L 207,12 Z" fill="#152553" /><path d="M 83,7 L 84,7 Z" fill="#152553" /></svg>