<svg width="495" height="100" viewBox="0 0 495 100" fill="none" xmlns="http://www.w3.org/2000/svg">
<path d="M28.2168 24.9848H33.0066V63.0659H56.9318V67.5H28.2168V24.9848Z" fill="#142453"/>
<path d="M61.4756 24.9848H66.2891V67.5H61.4756V24.9848Z" fill="#142453"/>
<path d="M85.3007 29.4189H70.9551V24.9848H104.412V29.4189H90.0905V67.5H85.3007V29.4189Z" fill="#142453"/>
<path d="M108.686 24.9848H139.393V29.3715H113.476V43.8831H136.666V48.246H113.476V63.1371H139.701V67.5H108.686V24.9848Z" fill="#142453"/>
<path d="M144.882 24.9848H163.14C165.778 24.9848 168.12 25.3642 170.159 26.123C172.21 26.8699 173.905 27.9132 175.233 29.2529C176.288 30.2962 177.095 31.5292 177.652 32.9519C178.221 34.3628 178.505 35.9159 178.505 37.6232V37.7417C178.505 39.532 178.221 41.1266 177.652 42.5315C177.095 43.9246 176.3 45.1339 175.257 46.1594C174.225 47.1909 173.004 48.0445 171.582 48.7203C170.171 49.3842 168.641 49.8585 166.981 50.143L180.023 67.5H174.142L161.812 50.9729H149.672V67.5H144.882V24.9848ZM162.713 46.6811C164.29 46.6811 165.748 46.4795 167.076 46.0646C168.416 45.6555 169.572 45.0805 170.538 44.3336C171.516 43.5926 172.275 42.6856 172.815 41.6067C173.366 40.5338 173.644 39.3067 173.644 37.9314V37.8129C173.644 35.1749 172.696 33.1179 170.799 31.6478C168.902 30.1658 166.229 29.4189 162.784 29.4189H149.672V46.6811H162.713Z" fill="#142453"/>
<path d="M200.017 24.6765H204.499L223.871 67.4999H218.726L213.746 56.2606H190.604L185.553 67.4999H180.645L200.017 24.6765ZM211.849 51.945L202.199 30.2724L192.477 51.945H211.849Z" fill="#142453"/>
<path d="M242.339 68.1165C238.937 68.1165 235.83 67.5592 233.02 66.4566C230.205 65.3363 227.525 63.6231 224.982 61.3112L227.946 57.7781C230.175 59.8055 232.416 61.3112 234.68 62.3071C236.957 63.303 239.571 63.8009 242.529 63.8009C245.404 63.8009 247.698 63.1251 249.405 61.7617C251.124 60.4042 251.99 58.6733 251.99 56.5688V56.4503C251.99 55.4722 251.824 54.5948 251.492 53.8183C251.172 53.0298 250.615 52.3126 249.808 51.6605C249.002 51.0143 247.876 50.4275 246.441 49.9058C245.001 49.3723 243.169 48.8566 240.94 48.3646C238.522 47.8429 236.411 47.2442 234.609 46.5625C232.807 45.8689 231.313 45.039 230.128 44.0727C228.954 43.0946 228.088 41.9564 227.519 40.6582C226.95 39.3659 226.666 37.8484 226.666 36.1056V35.987C226.666 34.3272 227.01 32.7978 227.709 31.3869C228.403 29.9642 229.375 28.7431 230.626 27.7116C231.87 26.6683 233.341 25.8561 235.036 25.2693C236.743 24.6883 238.605 24.3919 240.632 24.3919C243.762 24.3919 246.489 24.8306 248.813 25.6961C251.136 26.5675 253.389 27.8716 255.57 29.6085L252.796 33.3076C250.804 31.6952 248.801 30.5274 246.797 29.7982C244.805 29.075 242.707 28.7075 240.513 28.7075C237.727 28.7075 235.522 29.3655 233.898 30.6756C232.285 31.9916 231.479 33.6158 231.479 35.5602V35.6787C231.479 36.6924 231.633 37.5935 231.953 38.3819C232.285 39.1762 232.866 39.8994 233.708 40.5634C234.562 41.2273 235.735 41.8379 237.241 42.3892C238.741 42.9464 240.662 43.4562 243.003 43.9304C247.745 44.9916 251.237 46.4558 253.484 48.3171C255.725 50.1844 256.851 52.7275 256.851 55.9523V56.0946C256.851 57.9145 256.483 59.5684 255.76 61.0504C255.031 62.5205 254.029 63.7891 252.749 64.8442C251.48 65.8876 249.957 66.6938 248.172 67.2628C246.382 67.8319 244.438 68.1165 242.339 68.1165Z" fill="#142453"/>
<path d="M262.557 24.9848H267.37V67.5H262.557V24.9848Z" fill="#142453"/>
<path d="M288.145 24.9848H297.511V41.8202H314.75V24.9848H324.092V67.5H314.75V50.4275H297.511V67.5H288.145V24.9848Z" fill="#142453"/>
<path d="M347.543 68.164C341.835 68.164 337.335 66.593 334.051 63.4453C330.779 60.2857 329.143 55.5671 329.143 49.2894V24.9848H338.486V49.0285C338.486 52.526 339.292 55.158 340.904 56.9246C342.528 58.6792 344.781 59.5566 347.662 59.5566C350.537 59.5566 352.784 58.7029 354.396 56.9957C356.02 55.2885 356.838 52.7394 356.838 49.3368V24.9848H366.181V48.9811C366.181 52.2237 365.742 55.0395 364.877 57.4225C364.005 59.8115 362.755 61.8033 361.13 63.3979C359.518 64.9984 357.556 66.1899 355.25 66.9784C352.938 67.7668 350.371 68.164 347.543 68.164Z" fill="#142453"/>
<path d="M371.226 24.9848H380.592V43.5748L397.712 24.9848H409.188L391.807 43.0295L409.9 67.5H398.684L385.5 49.4079L380.592 54.506V67.5H371.226V24.9848Z" fill="#142453"/>
<path d="M428.802 68.164C423.093 68.164 418.594 66.593 415.31 63.4453C412.038 60.2857 410.402 55.5671 410.402 49.2894V24.9848H419.744V49.0285C419.744 52.526 420.55 55.158 422.163 56.9246C423.787 58.6792 426.04 59.5566 428.921 59.5566C431.796 59.5566 434.042 58.7029 435.655 56.9957C437.279 55.2885 438.097 52.7394 438.097 49.3368V24.9848H447.439V48.9811C447.439 52.2237 447.001 55.0395 446.135 57.4225C445.264 59.8115 444.013 61.8033 442.389 63.3979C440.776 64.9984 438.814 66.1899 436.508 66.9784C434.196 67.7668 431.63 68.164 428.802 68.164Z" fill="#142453"/>
<path d="M452.485 24.9848H462.562L473.731 42.9583L484.923 24.9848H495V67.5H485.705V39.7572L473.731 57.8967H473.494L461.661 39.9232V67.5H452.485V24.9848Z" fill="#142453"/>
<path d="M0.409424 1H168.858" stroke="#142453" stroke-width="2"/>
<path d="M0.409424 93.7012H168.858" stroke="#142453" stroke-width="2"/>
<path d="M1.4585 94.7564V1.42084" stroke="#142453" stroke-width="1.9909"/>
<path d="M176.823 88.4456H186.473V99.4716H176.823V88.4456Z" fill="#142453"/>
<path d="M194.657 88.4456H204.308V99.4716H194.657V88.4456Z" fill="#142453"/>
<path d="M212.492 88.4456H222.143V99.4716H212.492V88.4456Z" fill="#142453"/>
</svg>
