<?xml version="1.0" encoding="utf-8" ?>
<svg baseProfile="full" height="1024" version="1.1" width="1024" xmlns="http://www.w3.org/2000/svg" xmlns:ev="http://www.w3.org/2001/xml-events" xmlns:xlink="http://www.w3.org/1999/xlink"><defs /><path d="M 717,357 L 719,357 Z" fill="#152553" /><path d="M 739,324 L 742,324 Z" fill="#152553" /><path d="M 253,23 L 252,24 L 251,24 L 249,26 L 248,26 L 245,29 L 244,29 L 244,30 L 241,33 L 241,34 L 240,35 L 240,36 L 239,37 L 239,38 L 238,39 L 238,40 L 237,41 L 237,43 L 236,44 L 236,48 L 235,49 L 235,55 L 234,56 L 234,66 L 235,67 L 235,75 L 236,76 L 236,80 L 237,81 L 237,85 L 238,86 L 238,88 L 239,89 L 239,91 L 240,92 L 240,94 L 241,95 L 241,97 L 242,98 L 242,99 L 243,100 L 243,102 L 244,103 L 244,104 L 245,105 L 245,106 L 246,107 L 246,108 L 247,109 L 247,110 L 248,111 L 248,112 L 250,114 L 250,115 L 251,116 L 251,117 L 253,119 L 253,120 L 255,122 L 255,123 L 257,125 L 257,126 L 259,128 L 259,129 L 262,132 L 262,133 L 265,136 L 265,137 L 269,141 L 269,142 L 272,145 L 272,146 L 291,165 L 292,165 L 297,170 L 298,170 L 302,174 L 303,174 L 307,178 L 308,178 L 311,181 L 312,181 L 316,185 L 317,185 L 321,189 L 322,189 L 327,194 L 328,194 L 331,197 L 332,197 L 335,200 L 336,200 L 339,203 L 340,203 L 342,205 L 343,205 L 346,208 L 345,209 L 344,209 L 342,207 L 341,207 L 340,206 L 339,206 L 337,204 L 336,204 L 335,203 L 334,203 L 332,201 L 331,201 L 330,200 L 329,200 L 327,198 L 326,198 L 325,197 L 324,197 L 322,195 L 321,195 L 319,193 L 318,193 L 316,191 L 315,191 L 313,189 L 312,189 L 309,186 L 308,186 L 306,184 L 305,184 L 301,180 L 300,180 L 297,177 L 296,177 L 290,171 L 289,171 L 282,164 L 281,164 L 260,143 L 260,142 L 254,136 L 254,135 L 250,131 L 250,130 L 247,127 L 247,126 L 245,124 L 245,123 L 243,121 L 243,120 L 241,118 L 241,117 L 239,115 L 239,114 L 238,113 L 238,112 L 237,111 L 237,110 L 236,109 L 236,108 L 234,106 L 234,105 L 233,104 L 233,103 L 232,102 L 232,100 L 231,99 L 231,98 L 230,97 L 230,96 L 229,95 L 229,93 L 228,92 L 228,90 L 227,89 L 227,88 L 226,87 L 226,84 L 225,83 L 225,82 L 224,81 L 224,79 L 223,78 L 223,76 L 221,74 L 221,73 L 220,72 L 219,72 L 219,73 L 218,74 L 218,75 L 217,76 L 217,77 L 216,78 L 216,80 L 215,81 L 215,83 L 214,84 L 214,106 L 215,107 L 215,111 L 216,112 L 216,116 L 217,117 L 217,119 L 218,120 L 218,122 L 219,123 L 219,125 L 220,126 L 220,128 L 221,129 L 221,130 L 222,131 L 222,132 L 223,133 L 223,134 L 224,135 L 224,136 L 225,137 L 225,138 L 226,139 L 226,140 L 227,141 L 227,142 L 229,144 L 229,145 L 231,147 L 231,148 L 233,150 L 233,151 L 235,153 L 235,154 L 238,157 L 238,158 L 241,161 L 241,162 L 246,167 L 246,168 L 258,180 L 259,180 L 264,185 L 265,185 L 269,189 L 270,189 L 272,191 L 273,191 L 276,194 L 277,194 L 279,196 L 280,196 L 282,198 L 283,198 L 284,199 L 285,199 L 287,201 L 288,201 L 289,202 L 290,202 L 292,204 L 293,204 L 295,206 L 296,206 L 297,207 L 298,207 L 300,209 L 301,209 L 303,211 L 304,211 L 305,212 L 306,212 L 308,214 L 309,214 L 310,215 L 311,215 L 313,217 L 314,217 L 315,218 L 316,218 L 318,220 L 319,220 L 320,221 L 321,221 L 322,222 L 323,222 L 324,223 L 325,223 L 326,224 L 327,224 L 328,225 L 327,226 L 325,226 L 324,225 L 323,225 L 322,224 L 321,224 L 320,223 L 319,223 L 318,222 L 317,222 L 316,221 L 314,221 L 313,220 L 312,220 L 311,219 L 310,219 L 309,218 L 308,218 L 307,217 L 306,217 L 305,216 L 304,216 L 303,215 L 302,215 L 301,214 L 300,214 L 299,213 L 298,213 L 296,211 L 295,211 L 293,209 L 292,209 L 291,208 L 290,208 L 288,206 L 287,206 L 286,205 L 285,205 L 283,203 L 282,203 L 281,202 L 280,202 L 278,200 L 277,200 L 276,199 L 275,199 L 273,197 L 272,197 L 270,195 L 269,195 L 268,194 L 267,194 L 265,192 L 264,192 L 261,189 L 260,189 L 257,186 L 256,186 L 253,183 L 252,183 L 247,178 L 246,178 L 232,164 L 232,163 L 226,157 L 226,156 L 223,153 L 223,152 L 221,150 L 221,149 L 219,147 L 219,146 L 217,144 L 217,143 L 216,142 L 216,141 L 215,140 L 215,139 L 214,138 L 214,137 L 213,136 L 213,135 L 212,134 L 212,133 L 211,132 L 211,130 L 210,129 L 210,127 L 209,126 L 209,125 L 208,124 L 208,123 L 207,122 L 206,122 L 206,123 L 205,124 L 205,126 L 204,127 L 204,131 L 203,132 L 203,147 L 204,148 L 204,152 L 205,153 L 205,156 L 206,157 L 206,159 L 207,160 L 207,162 L 208,163 L 208,164 L 209,165 L 209,167 L 210,168 L 210,169 L 211,170 L 211,171 L 212,172 L 212,173 L 213,174 L 213,175 L 215,177 L 215,178 L 217,180 L 217,181 L 219,183 L 219,184 L 221,186 L 221,187 L 226,192 L 226,193 L 238,205 L 239,205 L 243,209 L 244,209 L 247,212 L 248,212 L 250,214 L 251,214 L 253,216 L 254,216 L 256,218 L 257,218 L 258,219 L 259,219 L 261,221 L 262,221 L 263,222 L 264,222 L 266,224 L 267,224 L 268,225 L 269,225 L 270,226 L 271,226 L 272,227 L 273,227 L 274,228 L 275,228 L 276,229 L 277,229 L 278,230 L 280,230 L 281,231 L 282,231 L 283,232 L 284,232 L 285,233 L 286,233 L 287,234 L 288,234 L 289,235 L 291,235 L 292,236 L 293,236 L 294,237 L 295,237 L 296,238 L 298,238 L 299,239 L 300,239 L 301,240 L 302,240 L 303,241 L 304,241 L 305,242 L 307,242 L 308,243 L 309,243 L 310,244 L 312,244 L 313,245 L 314,245 L 315,246 L 317,246 L 318,247 L 320,247 L 321,248 L 322,248 L 323,249 L 322,250 L 320,250 L 319,249 L 317,249 L 316,248 L 314,248 L 313,247 L 311,247 L 310,246 L 308,246 L 307,245 L 306,245 L 305,244 L 303,244 L 302,243 L 300,243 L 299,242 L 298,242 L 297,241 L 296,241 L 295,240 L 293,240 L 292,239 L 291,239 L 290,238 L 289,238 L 288,237 L 286,237 L 285,236 L 284,236 L 283,235 L 281,235 L 280,234 L 279,234 L 278,233 L 277,233 L 276,232 L 275,232 L 274,231 L 272,231 L 271,230 L 270,230 L 269,229 L 268,229 L 267,228 L 266,228 L 265,227 L 264,227 L 262,225 L 261,225 L 260,224 L 259,224 L 258,223 L 257,223 L 256,222 L 255,222 L 253,220 L 252,220 L 251,219 L 250,219 L 248,217 L 247,217 L 244,214 L 243,214 L 241,212 L 240,212 L 236,208 L 235,208 L 229,202 L 228,202 L 216,190 L 216,189 L 211,184 L 211,183 L 208,180 L 208,179 L 206,177 L 206,176 L 204,174 L 204,173 L 202,171 L 202,170 L 201,169 L 200,170 L 200,185 L 201,186 L 201,190 L 202,191 L 202,194 L 203,195 L 203,197 L 204,198 L 204,200 L 205,201 L 205,202 L 206,203 L 206,204 L 207,205 L 207,207 L 208,208 L 208,209 L 210,211 L 210,212 L 212,214 L 212,215 L 214,217 L 214,218 L 221,225 L 221,226 L 222,226 L 230,234 L 231,234 L 235,238 L 236,238 L 239,241 L 240,241 L 242,243 L 243,243 L 245,245 L 246,245 L 248,247 L 249,247 L 250,248 L 251,248 L 252,249 L 253,249 L 254,250 L 255,250 L 256,251 L 257,251 L 258,252 L 259,252 L 260,253 L 261,253 L 262,254 L 263,254 L 264,255 L 265,255 L 266,256 L 267,256 L 268,257 L 269,257 L 270,258 L 271,258 L 272,259 L 274,259 L 275,260 L 276,260 L 277,261 L 276,262 L 274,262 L 273,261 L 271,261 L 270,260 L 268,260 L 267,259 L 266,259 L 265,258 L 263,258 L 262,257 L 261,257 L 260,256 L 258,256 L 257,255 L 256,255 L 255,254 L 254,254 L 253,253 L 252,253 L 251,252 L 250,252 L 249,251 L 248,251 L 247,250 L 246,250 L 245,249 L 244,249 L 243,248 L 242,248 L 241,247 L 240,247 L 238,245 L 237,245 L 236,244 L 235,244 L 233,242 L 232,242 L 230,240 L 229,240 L 227,238 L 226,238 L 224,236 L 223,236 L 217,230 L 216,230 L 204,218 L 203,219 L 203,224 L 204,225 L 204,231 L 205,232 L 205,235 L 206,236 L 206,238 L 207,239 L 207,240 L 208,241 L 208,243 L 209,244 L 209,245 L 210,246 L 210,247 L 212,249 L 212,250 L 213,251 L 213,252 L 215,254 L 215,255 L 221,261 L 221,262 L 224,265 L 225,265 L 230,270 L 231,270 L 233,272 L 234,272 L 236,274 L 237,274 L 239,276 L 240,276 L 241,277 L 242,277 L 244,279 L 245,279 L 246,280 L 247,280 L 248,281 L 249,281 L 250,282 L 251,282 L 252,283 L 254,283 L 255,284 L 256,284 L 257,285 L 258,285 L 259,286 L 261,286 L 262,287 L 264,287 L 265,288 L 267,288 L 268,289 L 270,289 L 271,290 L 273,290 L 274,291 L 277,291 L 278,292 L 281,292 L 282,293 L 287,293 L 288,294 L 294,294 L 295,295 L 301,295 L 302,296 L 311,296 L 312,297 L 321,297 L 322,298 L 321,299 L 309,299 L 308,298 L 298,298 L 297,297 L 290,297 L 289,296 L 284,296 L 283,295 L 279,295 L 278,294 L 275,294 L 274,293 L 271,293 L 270,292 L 267,292 L 266,291 L 263,291 L 262,290 L 259,290 L 258,289 L 256,289 L 255,288 L 253,288 L 252,287 L 250,287 L 249,286 L 247,286 L 246,285 L 245,285 L 244,284 L 242,284 L 241,283 L 240,283 L 239,282 L 237,282 L 236,281 L 235,281 L 234,280 L 233,280 L 232,279 L 231,279 L 229,277 L 228,277 L 227,276 L 226,276 L 225,275 L 224,275 L 223,274 L 222,274 L 221,273 L 220,273 L 219,272 L 216,272 L 215,273 L 216,274 L 216,277 L 217,278 L 217,279 L 218,280 L 218,282 L 219,283 L 219,284 L 220,285 L 220,286 L 221,287 L 221,288 L 223,290 L 223,291 L 224,292 L 224,293 L 228,297 L 228,298 L 233,303 L 234,303 L 237,306 L 238,306 L 240,308 L 241,308 L 243,310 L 244,310 L 245,311 L 246,311 L 247,312 L 248,312 L 249,313 L 251,313 L 252,314 L 253,314 L 254,315 L 256,315 L 257,316 L 259,316 L 260,317 L 262,317 L 263,318 L 265,318 L 266,319 L 269,319 L 270,320 L 273,320 L 274,321 L 277,321 L 278,322 L 283,322 L 284,323 L 291,323 L 292,324 L 325,324 L 326,323 L 340,323 L 341,324 L 340,325 L 329,325 L 328,326 L 312,326 L 311,327 L 279,327 L 278,326 L 267,326 L 266,325 L 261,325 L 260,324 L 256,324 L 255,323 L 251,323 L 250,322 L 246,322 L 245,321 L 240,321 L 239,322 L 238,322 L 238,323 L 239,324 L 239,325 L 240,326 L 240,327 L 242,329 L 242,330 L 247,335 L 247,336 L 249,338 L 250,338 L 254,342 L 255,342 L 257,344 L 258,344 L 259,345 L 260,345 L 261,346 L 262,346 L 263,347 L 264,347 L 265,348 L 267,348 L 268,349 L 270,349 L 271,350 L 274,350 L 275,351 L 277,351 L 278,352 L 282,352 L 283,353 L 288,353 L 289,354 L 316,354 L 317,353 L 323,353 L 324,352 L 329,352 L 330,351 L 334,351 L 335,350 L 338,350 L 339,349 L 342,349 L 343,348 L 346,348 L 347,349 L 346,350 L 344,350 L 343,351 L 340,351 L 339,352 L 336,352 L 335,353 L 332,353 L 331,354 L 328,354 L 327,355 L 324,355 L 323,356 L 320,356 L 319,357 L 316,357 L 315,358 L 311,358 L 310,359 L 304,359 L 303,360 L 296,360 L 295,361 L 281,361 L 280,362 L 271,362 L 269,364 L 269,365 L 276,372 L 277,372 L 280,375 L 281,375 L 282,376 L 283,376 L 285,378 L 286,378 L 287,379 L 289,379 L 290,380 L 291,380 L 292,381 L 294,381 L 295,382 L 298,382 L 299,383 L 304,383 L 305,384 L 320,384 L 321,383 L 326,383 L 327,382 L 330,382 L 331,381 L 334,381 L 335,380 L 337,380 L 338,379 L 340,379 L 341,378 L 342,378 L 343,377 L 344,377 L 345,376 L 347,376 L 349,374 L 350,374 L 351,373 L 352,373 L 353,372 L 354,372 L 355,371 L 356,371 L 357,370 L 359,370 L 360,369 L 361,369 L 362,368 L 363,368 L 364,369 L 362,371 L 361,371 L 358,374 L 357,374 L 355,376 L 354,376 L 352,378 L 351,378 L 349,380 L 348,380 L 347,381 L 346,381 L 345,382 L 344,382 L 343,383 L 342,383 L 341,384 L 339,384 L 338,385 L 336,385 L 335,386 L 334,386 L 333,387 L 330,387 L 329,388 L 327,388 L 326,389 L 323,389 L 322,390 L 320,390 L 319,391 L 316,391 L 315,392 L 313,392 L 312,393 L 311,393 L 310,394 L 309,394 L 308,395 L 308,396 L 309,397 L 310,397 L 313,400 L 314,400 L 316,402 L 317,402 L 318,403 L 319,403 L 320,404 L 321,404 L 322,405 L 323,405 L 324,406 L 326,406 L 327,407 L 330,407 L 331,408 L 345,408 L 346,407 L 350,407 L 351,406 L 353,406 L 354,405 L 356,405 L 357,404 L 358,404 L 359,403 L 360,403 L 361,402 L 362,402 L 363,401 L 364,401 L 365,400 L 366,400 L 367,399 L 368,399 L 370,397 L 371,397 L 376,392 L 377,392 L 378,393 L 377,394 L 377,395 L 368,404 L 367,404 L 362,409 L 361,409 L 358,412 L 357,412 L 355,414 L 354,414 L 351,417 L 350,417 L 349,418 L 349,419 L 351,421 L 352,421 L 353,422 L 355,422 L 356,423 L 358,423 L 359,424 L 362,424 L 363,425 L 371,425 L 372,424 L 375,424 L 376,423 L 377,423 L 378,422 L 380,422 L 381,421 L 382,421 L 384,419 L 385,419 L 387,417 L 388,417 L 397,408 L 398,409 L 398,410 L 397,411 L 397,412 L 396,413 L 396,414 L 394,416 L 394,417 L 393,418 L 393,419 L 392,420 L 392,421 L 390,423 L 390,424 L 387,427 L 387,428 L 385,430 L 385,431 L 384,432 L 384,433 L 385,433 L 386,434 L 398,434 L 399,433 L 401,433 L 402,432 L 404,432 L 405,431 L 406,431 L 408,429 L 409,429 L 411,427 L 412,427 L 418,421 L 418,420 L 421,417 L 421,416 L 422,415 L 422,414 L 424,412 L 425,413 L 425,414 L 424,415 L 424,416 L 423,417 L 423,419 L 422,420 L 422,422 L 421,423 L 421,424 L 420,425 L 420,427 L 419,428 L 419,429 L 418,430 L 418,431 L 417,432 L 417,436 L 424,436 L 425,435 L 427,435 L 428,434 L 429,434 L 430,433 L 431,433 L 432,432 L 433,432 L 434,431 L 435,431 L 444,422 L 444,421 L 446,419 L 446,418 L 447,417 L 447,416 L 448,415 L 448,414 L 449,413 L 449,412 L 450,411 L 450,410 L 451,409 L 451,407 L 452,406 L 452,404 L 453,403 L 453,401 L 454,400 L 454,398 L 455,397 L 455,395 L 456,394 L 456,391 L 457,390 L 457,388 L 458,387 L 458,385 L 459,384 L 459,383 L 460,382 L 460,380 L 461,379 L 461,377 L 462,376 L 463,376 L 464,377 L 465,377 L 466,378 L 467,378 L 468,379 L 468,381 L 467,382 L 467,384 L 466,385 L 466,388 L 465,389 L 465,391 L 464,392 L 464,396 L 463,397 L 463,400 L 462,401 L 462,405 L 461,406 L 461,410 L 460,411 L 460,415 L 459,416 L 459,426 L 458,427 L 458,447 L 459,448 L 459,459 L 460,460 L 460,467 L 461,468 L 461,473 L 462,474 L 462,478 L 463,479 L 463,483 L 464,484 L 464,488 L 465,489 L 465,493 L 466,494 L 466,497 L 467,498 L 467,502 L 468,503 L 468,506 L 469,507 L 469,511 L 470,512 L 470,515 L 471,516 L 471,520 L 472,521 L 472,525 L 473,526 L 473,532 L 474,533 L 474,542 L 475,543 L 475,554 L 474,555 L 474,585 L 475,586 L 475,592 L 476,593 L 476,597 L 477,598 L 477,602 L 478,603 L 478,607 L 479,608 L 479,612 L 480,613 L 480,617 L 481,618 L 481,622 L 482,623 L 482,627 L 483,628 L 483,633 L 484,634 L 484,639 L 485,640 L 485,646 L 486,647 L 486,654 L 487,655 L 487,665 L 488,666 L 488,671 L 487,672 L 487,681 L 486,682 L 486,685 L 485,686 L 485,687 L 484,688 L 484,690 L 483,691 L 483,692 L 481,694 L 481,695 L 480,696 L 480,697 L 479,698 L 472,698 L 471,699 L 464,699 L 463,700 L 457,700 L 456,701 L 452,701 L 451,702 L 447,702 L 446,703 L 442,703 L 441,704 L 438,704 L 437,705 L 435,705 L 434,706 L 431,706 L 430,707 L 428,707 L 427,708 L 426,708 L 425,709 L 423,709 L 422,710 L 421,710 L 420,711 L 419,711 L 418,712 L 417,712 L 416,713 L 415,713 L 413,715 L 412,715 L 409,718 L 408,718 L 408,719 L 405,722 L 405,723 L 404,724 L 404,726 L 403,727 L 403,735 L 404,736 L 404,743 L 403,744 L 403,745 L 402,746 L 401,746 L 395,752 L 395,753 L 394,754 L 394,756 L 393,757 L 393,865 L 391,867 L 390,867 L 389,868 L 388,868 L 386,870 L 385,870 L 383,872 L 382,872 L 379,875 L 378,875 L 375,878 L 375,879 L 371,883 L 371,884 L 370,885 L 370,886 L 369,887 L 369,889 L 368,890 L 368,894 L 367,895 L 367,923 L 368,924 L 368,926 L 369,927 L 369,929 L 370,930 L 370,931 L 372,933 L 372,934 L 374,936 L 374,937 L 380,943 L 381,943 L 385,947 L 386,947 L 388,949 L 389,949 L 390,950 L 391,950 L 393,952 L 394,952 L 395,953 L 396,953 L 397,954 L 399,954 L 400,955 L 401,955 L 402,956 L 403,956 L 404,957 L 405,957 L 406,958 L 408,958 L 409,959 L 410,959 L 411,960 L 413,960 L 414,961 L 416,961 L 417,962 L 419,962 L 420,963 L 423,963 L 424,964 L 426,964 L 427,965 L 430,965 L 431,966 L 433,966 L 434,967 L 438,967 L 439,968 L 443,968 L 444,969 L 448,969 L 449,970 L 453,970 L 454,971 L 460,971 L 461,972 L 467,972 L 468,973 L 477,973 L 478,974 L 492,974 L 493,975 L 528,975 L 529,974 L 544,974 L 545,973 L 553,973 L 554,972 L 560,972 L 561,971 L 567,971 L 568,970 L 572,970 L 573,969 L 577,969 L 578,968 L 582,968 L 583,967 L 586,967 L 587,966 L 590,966 L 591,965 L 594,965 L 595,964 L 597,964 L 598,963 L 600,963 L 601,962 L 603,962 L 604,961 L 606,961 L 607,960 L 609,960 L 610,959 L 612,959 L 613,958 L 614,958 L 615,957 L 616,957 L 617,956 L 618,956 L 619,955 L 621,955 L 623,953 L 625,953 L 627,951 L 628,951 L 629,950 L 630,950 L 632,948 L 633,948 L 635,946 L 636,946 L 639,943 L 640,943 L 645,938 L 645,937 L 648,934 L 648,933 L 649,932 L 649,931 L 650,930 L 650,928 L 651,927 L 651,924 L 652,923 L 652,894 L 651,893 L 651,889 L 650,888 L 650,887 L 649,886 L 649,885 L 648,884 L 648,883 L 644,879 L 644,878 L 642,876 L 641,876 L 637,872 L 636,872 L 634,870 L 633,870 L 631,868 L 630,868 L 629,867 L 628,867 L 626,865 L 626,755 L 625,754 L 625,753 L 624,752 L 624,751 L 620,747 L 619,747 L 616,744 L 616,734 L 617,733 L 617,728 L 616,727 L 616,724 L 615,723 L 615,722 L 612,719 L 612,718 L 611,718 L 607,714 L 606,714 L 605,713 L 604,713 L 602,711 L 601,711 L 600,710 L 598,710 L 597,709 L 596,709 L 595,708 L 593,708 L 592,707 L 590,707 L 589,706 L 587,706 L 586,705 L 583,705 L 582,704 L 579,704 L 578,703 L 575,703 L 574,702 L 570,702 L 569,701 L 564,701 L 563,700 L 557,700 L 556,699 L 549,699 L 548,698 L 541,698 L 538,695 L 538,694 L 537,693 L 537,692 L 536,691 L 536,690 L 535,689 L 535,687 L 534,686 L 534,684 L 533,683 L 533,679 L 532,678 L 532,659 L 533,658 L 533,652 L 534,651 L 534,645 L 535,644 L 535,639 L 536,638 L 536,633 L 537,632 L 537,627 L 538,626 L 538,622 L 539,621 L 539,616 L 540,615 L 540,611 L 541,610 L 541,606 L 542,605 L 542,600 L 543,599 L 543,594 L 544,593 L 544,587 L 545,586 L 545,574 L 546,573 L 546,568 L 545,567 L 545,536 L 546,535 L 546,528 L 547,527 L 547,522 L 548,521 L 548,517 L 549,516 L 549,512 L 550,511 L 550,508 L 551,507 L 551,503 L 552,502 L 552,499 L 553,498 L 553,495 L 554,494 L 554,490 L 555,489 L 555,486 L 556,485 L 556,481 L 557,480 L 557,476 L 558,475 L 558,471 L 559,470 L 559,465 L 560,464 L 560,458 L 561,457 L 561,447 L 562,446 L 562,434 L 561,433 L 561,420 L 560,419 L 560,414 L 559,413 L 559,409 L 558,408 L 558,405 L 557,404 L 557,400 L 556,399 L 556,396 L 555,395 L 555,392 L 554,391 L 554,389 L 553,388 L 553,385 L 552,384 L 552,382 L 551,381 L 551,378 L 553,376 L 554,376 L 555,375 L 556,375 L 557,376 L 557,377 L 558,378 L 558,380 L 559,381 L 559,383 L 560,384 L 560,386 L 561,387 L 561,389 L 562,390 L 562,392 L 563,393 L 563,395 L 564,396 L 564,398 L 565,399 L 565,401 L 566,402 L 566,404 L 567,405 L 567,407 L 568,408 L 568,410 L 569,411 L 569,412 L 570,413 L 570,414 L 571,415 L 571,416 L 572,417 L 572,418 L 574,420 L 574,421 L 584,431 L 585,431 L 586,432 L 587,432 L 588,433 L 589,433 L 590,434 L 591,434 L 592,435 L 596,435 L 597,436 L 602,436 L 602,434 L 601,433 L 601,431 L 600,430 L 600,428 L 599,427 L 599,425 L 598,424 L 598,423 L 597,422 L 597,420 L 596,419 L 596,417 L 595,416 L 595,414 L 596,413 L 597,414 L 597,415 L 598,416 L 598,417 L 600,419 L 600,420 L 607,427 L 608,427 L 610,429 L 611,429 L 612,430 L 613,430 L 614,431 L 615,431 L 616,432 L 619,432 L 620,433 L 634,433 L 635,432 L 635,430 L 630,425 L 630,424 L 626,420 L 626,419 L 623,416 L 623,415 L 621,413 L 621,412 L 619,410 L 619,409 L 618,408 L 618,407 L 617,406 L 617,405 L 616,404 L 616,403 L 615,402 L 615,401 L 616,400 L 619,403 L 619,404 L 633,418 L 634,418 L 636,420 L 637,420 L 638,421 L 639,421 L 640,422 L 641,422 L 642,423 L 643,423 L 644,424 L 647,424 L 648,425 L 658,425 L 659,424 L 662,424 L 663,423 L 664,423 L 665,422 L 666,422 L 667,421 L 668,421 L 669,420 L 670,420 L 670,418 L 667,415 L 666,415 L 663,412 L 662,412 L 659,409 L 658,409 L 655,406 L 654,406 L 649,401 L 648,401 L 637,390 L 637,389 L 638,388 L 643,393 L 644,393 L 648,397 L 649,397 L 651,399 L 652,399 L 653,400 L 654,400 L 655,401 L 656,401 L 657,402 L 658,402 L 659,403 L 660,403 L 661,404 L 663,404 L 664,405 L 666,405 L 667,406 L 670,406 L 671,407 L 675,407 L 676,408 L 686,408 L 687,407 L 691,407 L 692,406 L 695,406 L 696,405 L 698,405 L 699,404 L 700,404 L 701,403 L 702,403 L 703,402 L 704,402 L 705,401 L 706,401 L 707,400 L 708,400 L 712,396 L 712,395 L 711,394 L 710,394 L 709,393 L 708,393 L 707,392 L 705,392 L 704,391 L 701,391 L 700,390 L 697,390 L 696,389 L 694,389 L 693,388 L 691,388 L 690,387 L 688,387 L 687,386 L 685,386 L 684,385 L 683,385 L 682,384 L 680,384 L 679,383 L 678,383 L 677,382 L 676,382 L 675,381 L 674,381 L 673,380 L 672,380 L 670,378 L 669,378 L 668,377 L 667,377 L 665,375 L 664,375 L 662,373 L 661,373 L 660,372 L 659,372 L 657,370 L 658,369 L 659,369 L 660,370 L 661,370 L 662,371 L 663,371 L 664,372 L 665,372 L 666,373 L 667,373 L 668,374 L 669,374 L 670,375 L 671,375 L 672,376 L 673,376 L 674,377 L 675,377 L 676,378 L 678,378 L 679,379 L 680,379 L 681,380 L 683,380 L 684,381 L 686,381 L 687,382 L 691,382 L 692,383 L 698,383 L 699,384 L 712,384 L 713,383 L 719,383 L 720,382 L 723,382 L 724,381 L 727,381 L 728,380 L 729,380 L 730,379 L 732,379 L 733,378 L 734,378 L 735,377 L 736,377 L 738,375 L 739,375 L 741,373 L 742,373 L 748,367 L 749,367 L 749,366 L 751,364 L 751,363 L 750,363 L 749,362 L 746,362 L 745,361 L 732,361 L 731,360 L 721,360 L 720,359 L 712,359 L 711,358 L 706,358 L 705,357 L 701,357 L 700,356 L 697,356 L 696,355 L 693,355 L 692,354 L 689,354 L 688,353 L 685,353 L 684,352 L 681,352 L 680,351 L 678,351 L 677,350 L 674,350 L 673,349 L 671,349 L 670,348 L 671,347 L 675,347 L 676,348 L 679,348 L 680,349 L 683,349 L 684,350 L 687,350 L 688,351 L 691,351 L 692,352 L 696,352 L 697,353 L 701,353 L 702,354 L 712,354 L 713,355 L 722,355 L 723,354 L 734,354 L 735,353 L 740,353 L 741,352 L 745,352 L 746,351 L 748,351 L 749,350 L 751,350 L 752,349 L 754,349 L 755,348 L 756,348 L 757,347 L 758,347 L 759,346 L 760,346 L 761,345 L 762,345 L 763,344 L 764,344 L 767,341 L 768,341 L 778,331 L 778,330 L 780,328 L 780,327 L 782,325 L 782,322 L 781,322 L 780,321 L 772,321 L 771,322 L 768,322 L 767,323 L 764,323 L 763,324 L 759,324 L 758,325 L 752,325 L 751,326 L 734,326 L 733,327 L 710,327 L 709,326 L 693,326 L 692,325 L 680,325 L 679,324 L 680,323 L 695,323 L 696,324 L 727,324 L 728,323 L 735,323 L 736,322 L 741,322 L 742,321 L 746,321 L 747,320 L 751,320 L 752,319 L 754,319 L 755,318 L 758,318 L 759,317 L 760,317 L 761,316 L 763,316 L 764,315 L 766,315 L 767,314 L 768,314 L 769,313 L 770,313 L 771,312 L 772,312 L 773,311 L 774,311 L 775,310 L 776,310 L 778,308 L 779,308 L 781,306 L 782,306 L 784,304 L 785,304 L 790,299 L 791,299 L 792,298 L 792,297 L 796,293 L 796,292 L 798,290 L 798,289 L 799,288 L 799,287 L 800,286 L 800,285 L 801,284 L 801,283 L 802,282 L 802,281 L 803,280 L 803,278 L 804,277 L 804,274 L 805,273 L 800,273 L 799,274 L 798,274 L 797,275 L 796,275 L 795,276 L 794,276 L 793,277 L 792,277 L 791,278 L 790,278 L 789,279 L 788,279 L 787,280 L 786,280 L 785,281 L 783,281 L 782,282 L 781,282 L 780,283 L 779,283 L 778,284 L 777,284 L 776,285 L 774,285 L 773,286 L 771,286 L 770,287 L 769,287 L 768,288 L 766,288 L 765,289 L 763,289 L 762,290 L 759,290 L 758,291 L 755,291 L 754,292 L 750,292 L 749,293 L 746,293 L 745,294 L 741,294 L 740,295 L 735,295 L 734,296 L 729,296 L 728,297 L 721,297 L 720,298 L 710,298 L 709,297 L 710,296 L 719,296 L 720,295 L 727,295 L 728,294 L 733,294 L 734,293 L 739,293 L 740,292 L 744,292 L 745,291 L 747,291 L 748,290 L 751,290 L 752,289 L 754,289 L 755,288 L 757,288 L 758,287 L 759,287 L 760,286 L 762,286 L 763,285 L 764,285 L 765,284 L 766,284 L 767,283 L 769,283 L 771,281 L 773,281 L 775,279 L 776,279 L 777,278 L 778,278 L 779,277 L 780,277 L 782,275 L 783,275 L 785,273 L 786,273 L 789,270 L 790,270 L 794,266 L 795,266 L 802,259 L 802,258 L 805,255 L 805,254 L 807,252 L 807,251 L 808,250 L 808,249 L 810,247 L 810,246 L 811,245 L 811,243 L 812,242 L 812,241 L 813,240 L 813,238 L 814,237 L 814,234 L 815,233 L 815,228 L 816,227 L 816,219 L 815,219 L 800,234 L 799,234 L 796,237 L 795,237 L 792,240 L 791,240 L 789,242 L 788,242 L 786,244 L 785,244 L 784,245 L 783,245 L 781,247 L 780,247 L 779,248 L 778,248 L 777,249 L 776,249 L 775,250 L 774,250 L 773,251 L 772,251 L 771,252 L 769,252 L 768,253 L 767,253 L 766,254 L 765,254 L 764,255 L 763,255 L 762,256 L 761,256 L 760,257 L 759,257 L 758,258 L 756,258 L 755,259 L 754,259 L 753,260 L 751,260 L 750,261 L 749,261 L 748,262 L 746,262 L 745,263 L 743,263 L 742,264 L 741,264 L 740,265 L 737,265 L 736,266 L 734,266 L 733,267 L 731,267 L 730,268 L 727,268 L 726,269 L 723,269 L 722,268 L 723,267 L 725,267 L 726,266 L 728,266 L 729,265 L 731,265 L 732,264 L 734,264 L 735,263 L 737,263 L 738,262 L 740,262 L 741,261 L 743,261 L 744,260 L 746,260 L 747,259 L 748,259 L 749,258 L 750,258 L 751,257 L 753,257 L 754,256 L 755,256 L 756,255 L 757,255 L 758,254 L 759,254 L 760,253 L 761,253 L 762,252 L 763,252 L 764,251 L 765,251 L 766,250 L 767,250 L 768,249 L 769,249 L 771,247 L 772,247 L 773,246 L 774,246 L 776,244 L 777,244 L 779,242 L 780,242 L 783,239 L 784,239 L 788,235 L 789,235 L 795,229 L 796,229 L 801,224 L 801,223 L 807,217 L 807,216 L 810,213 L 810,212 L 812,210 L 812,209 L 813,208 L 813,207 L 814,206 L 814,205 L 815,204 L 815,203 L 816,202 L 816,200 L 817,199 L 817,197 L 818,196 L 818,192 L 819,191 L 819,184 L 820,183 L 820,179 L 819,178 L 819,170 L 818,170 L 817,171 L 817,172 L 815,174 L 815,175 L 814,176 L 814,177 L 812,179 L 812,180 L 809,183 L 809,184 L 806,187 L 806,188 L 789,205 L 788,205 L 784,209 L 783,209 L 780,212 L 779,212 L 776,215 L 775,215 L 773,217 L 772,217 L 771,218 L 770,218 L 768,220 L 767,220 L 766,221 L 765,221 L 763,223 L 762,223 L 761,224 L 760,224 L 759,225 L 758,225 L 757,226 L 756,226 L 755,227 L 754,227 L 753,228 L 752,228 L 751,229 L 750,229 L 749,230 L 748,230 L 747,231 L 746,231 L 745,232 L 744,232 L 743,233 L 742,233 L 741,234 L 739,234 L 738,235 L 737,235 L 736,236 L 735,236 L 734,237 L 733,237 L 732,238 L 731,238 L 730,239 L 728,239 L 727,240 L 725,240 L 724,241 L 723,241 L 722,242 L 720,242 L 719,243 L 717,243 L 716,244 L 714,244 L 713,245 L 711,245 L 710,246 L 708,246 L 707,247 L 705,247 L 704,248 L 702,248 L 701,249 L 698,249 L 697,248 L 698,247 L 700,247 L 701,246 L 703,246 L 704,245 L 706,245 L 707,244 L 709,244 L 710,243 L 711,243 L 712,242 L 714,242 L 715,241 L 717,241 L 718,240 L 719,240 L 720,239 L 722,239 L 723,238 L 724,238 L 725,237 L 727,237 L 728,236 L 729,236 L 730,235 L 732,235 L 733,234 L 734,234 L 735,233 L 736,233 L 737,232 L 738,232 L 739,231 L 740,231 L 742,229 L 743,229 L 744,228 L 745,228 L 747,226 L 748,226 L 749,225 L 750,225 L 751,224 L 752,224 L 754,222 L 755,222 L 756,221 L 757,221 L 758,220 L 759,220 L 761,218 L 762,218 L 763,217 L 764,217 L 766,215 L 767,215 L 769,213 L 770,213 L 773,210 L 774,210 L 778,206 L 779,206 L 787,198 L 788,198 L 789,197 L 789,196 L 798,187 L 798,186 L 801,183 L 801,182 L 804,179 L 804,178 L 805,177 L 805,176 L 807,174 L 807,173 L 808,172 L 808,171 L 809,170 L 809,169 L 810,168 L 810,167 L 811,166 L 811,164 L 812,163 L 812,161 L 813,160 L 813,158 L 814,157 L 814,155 L 815,154 L 815,150 L 816,149 L 816,131 L 815,130 L 815,127 L 814,126 L 814,124 L 813,123 L 813,122 L 812,123 L 812,124 L 811,125 L 811,127 L 810,128 L 810,129 L 809,130 L 809,131 L 808,132 L 808,133 L 807,134 L 807,135 L 806,136 L 806,137 L 805,138 L 805,139 L 804,140 L 804,141 L 803,142 L 803,143 L 801,145 L 801,146 L 800,147 L 800,148 L 798,150 L 798,151 L 796,153 L 796,154 L 793,157 L 793,158 L 785,166 L 785,167 L 775,177 L 774,177 L 769,182 L 768,182 L 764,186 L 763,186 L 760,189 L 759,189 L 757,191 L 756,191 L 753,194 L 752,194 L 750,196 L 749,196 L 748,197 L 747,197 L 745,199 L 744,199 L 743,200 L 742,200 L 740,202 L 739,202 L 737,204 L 736,204 L 735,205 L 734,205 L 732,207 L 731,207 L 730,208 L 729,208 L 727,210 L 726,210 L 724,212 L 723,212 L 722,213 L 720,213 L 719,214 L 718,214 L 717,215 L 716,215 L 715,216 L 714,216 L 713,217 L 712,217 L 711,218 L 709,218 L 708,219 L 707,219 L 706,220 L 705,220 L 704,221 L 703,221 L 702,222 L 701,222 L 700,223 L 698,223 L 697,224 L 696,224 L 695,225 L 694,225 L 693,226 L 691,226 L 690,225 L 691,224 L 692,224 L 693,223 L 694,223 L 695,222 L 696,222 L 697,221 L 698,221 L 699,220 L 700,220 L 702,218 L 703,218 L 705,216 L 706,216 L 708,214 L 709,214 L 710,213 L 711,213 L 713,211 L 714,211 L 715,210 L 716,210 L 718,208 L 719,208 L 720,207 L 721,207 L 722,206 L 723,206 L 725,204 L 726,204 L 727,203 L 728,203 L 729,202 L 730,202 L 732,200 L 733,200 L 734,199 L 735,199 L 737,197 L 738,197 L 741,194 L 742,194 L 744,192 L 745,192 L 748,189 L 749,189 L 753,185 L 754,185 L 762,177 L 763,177 L 772,168 L 772,167 L 778,161 L 778,160 L 782,156 L 782,155 L 785,152 L 785,151 L 788,148 L 788,147 L 790,145 L 790,144 L 792,142 L 792,141 L 793,140 L 793,139 L 795,137 L 795,136 L 796,135 L 796,134 L 797,133 L 797,132 L 798,131 L 798,129 L 799,128 L 799,127 L 800,126 L 800,124 L 801,123 L 801,122 L 802,121 L 802,118 L 803,117 L 803,115 L 804,114 L 804,110 L 805,109 L 805,103 L 806,102 L 806,91 L 805,90 L 805,85 L 804,84 L 804,82 L 803,81 L 803,79 L 802,78 L 802,77 L 800,75 L 800,74 L 799,73 L 799,72 L 798,72 L 798,73 L 797,74 L 797,76 L 796,77 L 796,78 L 795,79 L 795,81 L 794,82 L 794,84 L 793,85 L 793,87 L 792,88 L 792,90 L 791,91 L 791,93 L 790,94 L 790,95 L 789,96 L 789,98 L 788,99 L 788,100 L 787,101 L 787,103 L 786,104 L 786,105 L 785,106 L 785,107 L 784,108 L 784,109 L 783,110 L 783,111 L 781,113 L 781,114 L 780,115 L 780,116 L 778,118 L 778,119 L 776,121 L 776,122 L 774,124 L 774,125 L 771,128 L 771,129 L 768,132 L 768,133 L 763,138 L 763,139 L 740,162 L 739,162 L 735,166 L 734,166 L 730,170 L 729,170 L 724,175 L 723,175 L 719,179 L 718,179 L 715,182 L 714,182 L 711,185 L 710,185 L 708,187 L 707,187 L 704,190 L 703,190 L 701,192 L 700,192 L 698,194 L 697,194 L 696,195 L 695,195 L 693,197 L 692,197 L 691,198 L 690,198 L 689,199 L 688,199 L 686,201 L 685,201 L 684,202 L 683,202 L 681,204 L 680,204 L 678,206 L 677,206 L 675,208 L 674,208 L 672,210 L 671,210 L 669,212 L 668,212 L 667,211 L 670,208 L 671,208 L 675,204 L 676,204 L 678,202 L 679,202 L 682,199 L 683,199 L 686,196 L 687,196 L 690,193 L 691,193 L 694,190 L 695,190 L 698,187 L 699,187 L 702,184 L 703,184 L 706,181 L 707,181 L 710,178 L 711,178 L 716,173 L 717,173 L 723,167 L 724,167 L 749,142 L 749,141 L 752,138 L 752,137 L 755,134 L 755,133 L 758,130 L 758,129 L 761,126 L 761,125 L 762,124 L 762,123 L 764,121 L 764,120 L 766,118 L 766,117 L 767,116 L 767,115 L 768,114 L 768,113 L 769,112 L 769,111 L 770,110 L 770,109 L 771,108 L 771,107 L 772,106 L 772,105 L 773,104 L 773,103 L 774,102 L 774,101 L 775,100 L 775,98 L 776,97 L 776,96 L 777,95 L 777,93 L 778,92 L 778,90 L 779,89 L 779,86 L 780,85 L 780,82 L 781,81 L 781,78 L 782,77 L 782,72 L 783,71 L 783,48 L 782,47 L 782,43 L 781,42 L 781,40 L 780,39 L 780,37 L 779,36 L 779,35 L 778,34 L 778,33 L 770,25 L 768,25 L 767,24 L 764,24 L 764,26 L 763,27 L 763,32 L 762,33 L 762,41 L 761,42 L 761,46 L 760,47 L 760,51 L 759,52 L 759,55 L 758,56 L 758,59 L 757,60 L 757,62 L 756,63 L 756,65 L 755,66 L 755,68 L 754,69 L 754,71 L 753,72 L 753,73 L 752,74 L 752,75 L 751,76 L 751,78 L 750,79 L 750,80 L 749,81 L 749,82 L 748,83 L 748,84 L 747,85 L 747,86 L 746,87 L 746,88 L 745,89 L 745,90 L 744,91 L 744,92 L 743,93 L 743,94 L 741,96 L 741,97 L 740,98 L 740,99 L 738,101 L 738,102 L 736,104 L 736,105 L 733,108 L 733,109 L 730,112 L 730,113 L 726,117 L 726,118 L 722,122 L 722,123 L 716,129 L 716,130 L 690,156 L 689,156 L 682,163 L 681,163 L 676,168 L 675,168 L 672,171 L 671,171 L 667,175 L 666,175 L 663,178 L 662,178 L 659,181 L 658,181 L 655,184 L 654,184 L 652,186 L 651,186 L 649,188 L 648,188 L 646,190 L 645,190 L 643,192 L 642,192 L 640,194 L 639,194 L 636,197 L 635,197 L 633,199 L 632,199 L 629,202 L 628,202 L 625,205 L 624,205 L 618,211 L 617,211 L 609,219 L 609,220 L 604,225 L 604,226 L 600,230 L 600,231 L 598,233 L 598,234 L 596,236 L 596,237 L 594,239 L 594,240 L 593,241 L 593,242 L 591,244 L 591,245 L 590,246 L 590,247 L 588,249 L 587,248 L 587,247 L 585,245 L 585,244 L 583,242 L 583,241 L 580,238 L 580,237 L 571,228 L 570,228 L 567,225 L 566,225 L 565,224 L 564,224 L 563,223 L 562,223 L 561,222 L 560,222 L 559,221 L 558,221 L 557,220 L 555,220 L 554,219 L 553,219 L 552,218 L 550,218 L 549,217 L 546,217 L 545,216 L 543,216 L 542,215 L 539,215 L 538,214 L 536,214 L 535,213 L 534,213 L 533,212 L 532,212 L 530,210 L 530,209 L 529,208 L 529,207 L 528,206 L 528,204 L 527,203 L 527,199 L 526,198 L 526,191 L 525,190 L 525,189 L 528,186 L 528,185 L 530,183 L 530,182 L 531,181 L 531,180 L 532,179 L 532,178 L 533,177 L 533,176 L 534,175 L 534,173 L 535,172 L 535,169 L 536,168 L 536,164 L 537,163 L 537,148 L 536,147 L 536,143 L 535,142 L 535,139 L 534,138 L 534,136 L 533,135 L 533,134 L 532,133 L 532,132 L 531,131 L 531,130 L 527,126 L 527,125 L 526,124 L 525,124 L 522,121 L 521,121 L 520,120 L 519,120 L 518,119 L 515,119 L 514,118 L 505,118 L 504,119 L 502,119 L 501,120 L 500,120 L 499,121 L 498,121 L 497,122 L 496,122 L 494,124 L 493,124 L 489,128 L 489,129 L 487,131 L 487,132 L 486,133 L 486,134 L 485,135 L 485,137 L 484,138 L 484,140 L 483,141 L 483,144 L 482,145 L 482,165 L 483,166 L 483,170 L 484,171 L 484,174 L 485,175 L 485,177 L 486,178 L 486,179 L 487,180 L 487,182 L 488,183 L 488,184 L 489,185 L 489,186 L 491,188 L 491,189 L 492,190 L 492,197 L 491,198 L 491,204 L 490,205 L 490,207 L 489,208 L 489,209 L 487,211 L 486,211 L 484,213 L 483,213 L 482,214 L 480,214 L 479,215 L 477,215 L 476,216 L 473,216 L 472,217 L 469,217 L 468,218 L 466,218 L 465,219 L 463,219 L 462,220 L 461,220 L 460,221 L 459,221 L 458,222 L 457,222 L 456,223 L 455,223 L 454,224 L 453,224 L 452,225 L 451,225 L 448,228 L 447,228 L 438,237 L 438,238 L 434,242 L 434,243 L 431,246 L 430,246 L 428,244 L 428,243 L 426,241 L 426,240 L 425,239 L 425,238 L 424,237 L 424,236 L 422,234 L 422,233 L 420,231 L 420,230 L 418,228 L 418,227 L 411,220 L 411,219 L 410,218 L 409,218 L 401,210 L 400,210 L 397,207 L 396,207 L 393,204 L 392,204 L 390,202 L 389,202 L 386,199 L 385,199 L 383,197 L 382,197 L 380,195 L 379,195 L 377,193 L 376,193 L 374,191 L 373,191 L 371,189 L 370,189 L 367,186 L 366,186 L 363,183 L 362,183 L 360,181 L 359,181 L 356,178 L 355,178 L 352,175 L 351,175 L 348,172 L 347,172 L 344,169 L 343,169 L 339,165 L 338,165 L 333,160 L 332,160 L 322,150 L 321,150 L 307,136 L 307,135 L 300,128 L 300,127 L 294,121 L 294,120 L 290,116 L 290,115 L 287,112 L 287,111 L 284,108 L 284,107 L 281,104 L 281,103 L 279,101 L 279,100 L 277,98 L 277,97 L 276,96 L 276,95 L 274,93 L 274,92 L 273,91 L 273,90 L 272,89 L 272,88 L 271,87 L 271,86 L 270,85 L 270,84 L 269,83 L 269,82 L 268,81 L 268,80 L 267,79 L 267,78 L 266,77 L 266,75 L 265,74 L 265,73 L 264,72 L 264,70 L 263,69 L 263,67 L 262,66 L 262,64 L 261,63 L 261,60 L 260,59 L 260,57 L 259,56 L 259,53 L 258,52 L 258,48 L 257,47 L 257,41 L 256,40 L 256,30 L 255,29 L 255,23 Z" fill="#152553" /></svg>