<svg width="297" height="114" viewBox="0 0 297 114" fill="none" xmlns="http://www.w3.org/2000/svg">
    <mask id="mask0_71_71" style="mask-type:luminance" maskUnits="userSpaceOnUse" x="0" y="6" width="52" height="102">
        <path d="M0 6.68231H51.401V107.234H0V6.68231Z" fill="white"/>
    </mask>
    <g mask="url(#mask0_71_71)">
        <path d="M70.1302 74.4427C69.1615 74.4427 68.349 75.0834 68.0365 76C64.9844 84.8542 56.4375 89.7448 45.4323 89.7448C29.3958 89.7448 19.6927 77.6198 19.6927 56.9219C19.6927 36.2917 29.3958 24.1667 45.3646 24.1667C56.625 24.1667 65.3594 30.0261 68.2292 40.0052C68.5104 40.9636 69.3438 41.6563 70.3438 41.6563C70.3438 41.6563 82.4427 41.6615 86.3646 41.6563C87.0208 41.6511 87.5365 41.0729 87.4479 40.4219C84.8854 20.8281 67.2969 6.68231 45.3646 6.68231C17.3958 6.68231 0.0208435 25.9584 0.0208435 56.9896C0.0208435 87.9792 17.4219 107.229 45.4323 107.229C67.4375 107.229 84.2865 94.5834 87.4427 75.724C87.5573 75.0573 87.0365 74.4479 86.3594 74.4427H70.1302Z"
              fill="#142453"/>
    </g>
    <mask id="mask1_71_71" style="mask-type:luminance" maskUnits="userSpaceOnUse" x="59" y="6" width="47" height="102">
        <path d="M59.474 6.68231H105.865V107.234H59.474V6.68231Z" fill="white"/>
    </mask>
    <g mask="url(#mask1_71_71)">
        <path d="M103.359 107.234H87.3646C86.099 107.234 85.0781 106.208 85.0781 104.948V63.8125H43.9427V104.948C43.9427 106.208 42.9219 107.234 41.6563 107.234H25.6615C24.3958 107.234 23.375 106.208 23.375 104.948V8.96877C23.375 7.70315 24.3958 6.68231 25.6615 6.68231H41.6563C42.9219 6.68231 43.9427 7.70315 43.9427 8.96877V45.5313H85.0781V8.96877C85.0781 7.70315 86.099 6.68231 87.3646 6.68231H103.359C104.625 6.68231 105.646 7.70315 105.646 8.96877V104.948C105.646 106.208 104.625 107.234 103.359 107.234Z"
              fill="#152553"/>
    </g>
    <mask id="mask2_71_71" style="mask-type:luminance" maskUnits="userSpaceOnUse" x="53" y="0" width="5" height="114">
        <path d="M53.6094 0.635437H57.2188V113.365H53.6094V0.635437Z" fill="white"/>
    </mask>
    <g mask="url(#mask2_71_71)">
        <path d="M53.6094 0.635437H57.2188V113.365H53.6094V0.635437Z" fill="#142453"/>
    </g>
    <path d="M137.644 65.8233C140.853 65.8233 143.436 66.7817 145.394 68.6983C147.363 70.615 148.353 73.464 148.353 77.24V92.0317H140.873V78.4067C140.873 76.3546 140.42 74.8233 139.519 73.8233C138.629 72.8129 137.337 72.3025 135.644 72.3025C133.754 72.3025 132.248 72.8858 131.123 74.0525C129.998 75.2192 129.436 76.9588 129.436 79.2608V92.0317H121.957V56.4067H129.436V68.8858C130.436 67.9015 131.634 67.1463 133.04 66.615C134.441 66.089 135.978 65.8233 137.644 65.8233Z"
          fill="#152553"/>
    <path d="M181.146 66.1984V92.0317H174.042V88.9692C173.042 90.0838 171.854 90.9379 170.479 91.5317C169.104 92.115 167.614 92.4067 166.021 92.4067C162.63 92.4067 159.943 91.4379 157.958 89.49C155.969 87.5317 154.979 84.6359 154.979 80.8025V66.1984H162.458V79.6984C162.458 83.8546 164.208 85.9275 167.708 85.9275C169.5 85.9275 170.937 85.3442 172.021 84.1775C173.104 83.0109 173.646 81.2765 173.646 78.9692V66.1984H181.146Z"
          fill="#152553"/>
    <path d="M199.184 81.9067L195.58 85.4483V92.0317H188.101V56.4067H195.58V76.5733L206.538 66.1983H215.455L204.705 77.1567L216.413 92.0317H207.351L199.184 81.9067Z"
          fill="#152553"/>
    <path d="M245.802 66.1984V92.0317H238.698V88.9692C237.698 90.0838 236.51 90.9379 235.135 91.5317C233.76 92.115 232.271 92.4067 230.677 92.4067C227.286 92.4067 224.599 91.4379 222.614 89.49C220.625 87.5317 219.635 84.6359 219.635 80.8025V66.1984H227.114V79.6984C227.114 83.8546 228.864 85.9275 232.364 85.9275C234.156 85.9275 235.593 85.3442 236.677 84.1775C237.76 83.0109 238.302 81.2765 238.302 78.9692V66.1984H245.802Z"
          fill="#152553"/>
    <path d="M285.82 65.8234C289.054 65.8234 291.622 66.7765 293.528 68.6775C295.429 70.5838 296.382 73.4379 296.382 77.24V92.0317H288.903V78.4067C288.903 76.3546 288.476 74.8234 287.632 73.8234C286.783 72.8129 285.575 72.3025 284.007 72.3025C282.241 72.3025 280.846 72.8754 279.82 74.0109C278.804 75.1515 278.299 76.839 278.299 79.0734V92.0317H270.799V78.4067C270.799 74.339 269.163 72.3025 265.903 72.3025C264.179 72.3025 262.804 72.8754 261.778 74.0109C260.747 75.1515 260.236 76.839 260.236 79.0734V92.0317H252.757V66.1984H259.903V69.1775C260.861 68.0942 262.033 67.2713 263.424 66.6984C264.825 66.115 266.361 65.8234 268.028 65.8234C269.846 65.8234 271.491 66.1879 272.965 66.9067C274.434 67.6307 275.616 68.6775 276.507 70.0525C277.559 68.7088 278.892 67.6671 280.507 66.9275C282.132 66.1932 283.903 65.8234 285.82 65.8234Z"
          fill="#152553"/>
    <path d="M133.707 53.2183C131.217 53.2183 128.988 52.6767 127.019 51.5933C125.045 50.4996 123.498 48.9631 122.373 46.9892C121.259 45.0204 120.707 42.8017 120.707 40.3433C120.707 37.885 121.259 35.6871 122.373 33.7392C123.498 31.7808 125.045 30.26 127.019 29.1767C128.988 28.0829 131.217 27.5308 133.707 27.5308C135.884 27.5308 137.832 27.9579 139.54 28.8017C141.259 29.6506 142.613 30.885 143.603 32.51L141.061 34.2392C140.228 33.0048 139.17 32.0725 137.894 31.4475C136.613 30.8225 135.217 30.51 133.707 30.51C131.884 30.51 130.248 30.9214 128.79 31.7392C127.332 32.5464 126.191 33.7079 125.373 35.2183C124.566 36.7183 124.165 38.4267 124.165 40.3433C124.165 42.3017 124.566 44.0256 125.373 45.51C126.191 46.9996 127.332 48.1506 128.79 48.9683C130.248 49.7756 131.884 50.1767 133.707 50.1767C135.217 50.1767 136.613 49.8798 137.894 49.2808C139.17 48.6714 140.228 47.7392 141.061 46.4892L143.603 48.2183C142.613 49.8433 141.254 51.0881 139.519 51.9475C137.795 52.7964 135.858 53.2183 133.707 53.2183Z"
          fill="#142453"/>
    <path d="M172.252 41.4058H151.148C151.325 44.0308 152.325 46.1506 154.148 47.76C155.981 49.3746 158.283 50.1767 161.064 50.1767C162.632 50.1767 164.069 49.9006 165.377 49.3433C166.694 48.7912 167.835 47.9631 168.793 46.8642L170.731 49.0725C169.606 50.4214 168.2 51.4475 166.523 52.1558C164.84 52.8642 162.991 53.2183 160.981 53.2183C158.382 53.2183 156.085 52.6714 154.085 51.5725C152.085 50.4631 150.523 48.9267 149.398 46.9683C148.283 45.01 147.731 42.8017 147.731 40.3433C147.731 37.885 148.262 35.6871 149.335 33.7392C150.403 31.7808 151.877 30.26 153.752 29.1767C155.627 28.0829 157.731 27.5308 160.064 27.5308C162.398 27.5308 164.491 28.0829 166.356 29.1767C168.215 30.26 169.674 31.7704 170.731 33.6975C171.783 35.6298 172.314 37.8433 172.314 40.3433L172.252 41.4058ZM160.064 30.4475C157.632 30.4475 155.59 31.2287 153.939 32.7808C152.299 34.3381 151.366 36.3642 151.148 38.8642H169.043C168.819 36.3642 167.882 34.3381 166.231 32.7808C164.59 31.2287 162.533 30.4475 160.064 30.4475Z"
          fill="#142453"/>
    <path d="M182.535 32.6558C183.327 30.9631 184.515 29.6871 186.098 28.8225C187.681 27.9631 189.645 27.5308 191.994 27.5308V30.8433L191.16 30.8017C188.504 30.8017 186.431 31.6246 184.931 33.26C183.431 34.885 182.681 37.1714 182.681 40.1142V52.9683H179.265V27.7183H182.535V32.6558Z"
          fill="#142453"/>
    <path d="M221.554 17.3433V52.9683H218.283V47.9683C217.268 49.6662 215.919 50.9631 214.242 51.8642C212.559 52.7704 210.664 53.2183 208.554 53.2183C206.179 53.2183 204.033 52.6767 202.117 51.5933C200.2 50.4996 198.69 48.9787 197.596 47.0308C196.513 45.0725 195.971 42.8433 195.971 40.3433C195.971 37.8433 196.513 35.6246 197.596 33.6767C198.69 31.7183 200.2 30.2079 202.117 29.135C204.033 28.0673 206.179 27.5308 208.554 27.5308C210.596 27.5308 212.434 27.9579 214.075 28.8017C215.726 29.6506 217.08 30.885 218.138 32.51V17.3433H221.554ZM208.825 50.1767C210.586 50.1767 212.179 49.7756 213.596 48.9683C215.023 48.1506 216.148 46.9892 216.971 45.4892C217.789 43.9787 218.2 42.26 218.2 40.3433C218.2 38.4267 217.789 36.7183 216.971 35.2183C216.148 33.7079 215.023 32.5464 213.596 31.7392C212.179 30.9214 210.586 30.51 208.825 30.51C207.033 30.51 205.419 30.9214 203.992 31.7392C202.575 32.5464 201.455 33.7079 200.638 35.2183C199.83 36.7183 199.429 38.4267 199.429 40.3433C199.429 42.26 199.83 43.9787 200.638 45.4892C201.455 46.9892 202.575 48.1506 203.992 48.9683C205.419 49.7756 207.033 50.1767 208.825 50.1767Z"
          fill="#142453"/>
    <path d="M239.89 27.5308C243.182 27.5308 245.708 28.3589 247.473 30.01C249.234 31.6506 250.119 34.0881 250.119 37.3225V52.9683H246.848V49.0308C246.083 50.3537 244.958 51.3798 243.473 52.1142C241.984 52.8537 240.213 53.2183 238.161 53.2183C235.338 53.2183 233.098 52.5464 231.432 51.1975C229.775 49.8537 228.952 48.0725 228.952 45.8642C228.952 43.7287 229.723 42.0048 231.265 40.6975C232.817 39.3798 235.291 38.7183 238.682 38.7183H246.702V37.1767C246.702 34.9996 246.088 33.3433 244.869 32.2183C243.661 31.0829 241.89 30.51 239.557 30.51C237.958 30.51 236.421 30.7756 234.952 31.3017C233.479 31.8329 232.213 32.5621 231.161 33.4892L229.619 30.9267C230.895 29.8433 232.432 29.01 234.223 28.4267C236.015 27.8329 237.9 27.5308 239.89 27.5308ZM238.682 50.51C240.609 50.51 242.265 50.0725 243.64 49.1975C245.015 48.3225 246.036 47.0517 246.702 45.385V41.26H238.786C234.463 41.26 232.307 42.76 232.307 45.76C232.307 47.2339 232.859 48.3954 233.973 49.2392C235.098 50.0881 236.666 50.51 238.682 50.51Z"
          fill="#142453"/>
    <path d="M266.148 53.2183C264.106 53.2183 262.148 52.9214 260.273 52.3225C258.398 51.7287 256.929 50.9839 255.877 50.0933L257.418 47.4058C258.47 48.2392 259.799 48.9214 261.398 49.4475C262.991 49.9787 264.653 50.2392 266.377 50.2392C268.679 50.2392 270.382 49.8798 271.481 49.1558C272.59 48.4371 273.148 47.4214 273.148 46.1142C273.148 45.1871 272.84 44.4579 272.231 43.9267C271.632 43.4006 270.866 43.0048 269.939 42.7392C269.007 42.4631 267.778 42.1923 266.252 41.9267C264.194 41.5412 262.543 41.1506 261.293 40.76C260.043 40.3589 258.981 39.6767 258.106 38.7183C257.231 37.76 256.793 36.4267 256.793 34.7183C256.793 32.6089 257.668 30.885 259.418 29.5517C261.179 28.2079 263.632 27.5308 266.773 27.5308C268.398 27.5308 270.023 27.7496 271.648 28.1767C273.283 28.6089 274.632 29.1767 275.689 29.885L274.21 32.6142C272.127 31.1714 269.648 30.4475 266.773 30.4475C264.59 30.4475 262.944 30.8381 261.835 31.6142C260.736 32.3798 260.189 33.385 260.189 34.635C260.189 35.5933 260.502 36.3642 261.127 36.9475C261.752 37.5204 262.528 37.9423 263.46 38.2183C264.387 38.4839 265.668 38.76 267.293 39.0517C269.304 39.4267 270.924 39.8121 272.148 40.1975C273.366 40.5881 274.408 41.2496 275.273 42.1767C276.132 43.0933 276.564 44.3746 276.564 46.01C276.564 48.2183 275.637 49.9787 273.793 51.2808C271.96 52.5725 269.408 53.2183 266.148 53.2183Z"
          fill="#142453"/>
</svg>
