<svg xmlns="http://www.w3.org/2000/svg" xmlns:xlink="http://www.w3.org/1999/xlink" width="500" zoomAndPan="magnify"
     viewBox="0 0 375 374.999991" height="500" preserveAspectRatio="xMidYMid meet" version="1.2">
    <defs>
        <clipPath id="40f6508306">
            <path d="M 37.5 149.761719 L 76.050781 149.761719 L 76.050781 225.175781 L 37.5 225.175781 Z M 37.5 149.761719 "/>
        </clipPath>
        <clipPath id="6107f44936">
            <path d="M 82.105469 149.761719 L 116.898438 149.761719 L 116.898438 225.175781 L 82.105469 225.175781 Z M 82.105469 149.761719 "/>
        </clipPath>
        <clipPath id="b164ba6086">
            <path d="M 77.707031 145.226562 L 80.414062 145.226562 L 80.414062 229.773438 L 77.707031 229.773438 Z M 77.707031 145.226562 "/>
        </clipPath>
    </defs>
    <g id="c4426691f0">
        <g clip-rule="nonzero" clip-path="url(#40f6508306)">
            <path style=" stroke:none;fill-rule:nonzero;fill:#142453;fill-opacity:1;"
                  d="M 90.097656 200.582031 C 89.371094 200.582031 88.761719 201.0625 88.527344 201.75 C 86.238281 208.390625 79.828125 212.058594 71.574219 212.058594 C 59.546875 212.058594 52.269531 202.964844 52.269531 187.441406 C 52.269531 171.96875 59.546875 162.875 71.523438 162.875 C 79.96875 162.875 86.519531 167.269531 88.671875 174.753906 C 88.882812 175.472656 89.507812 175.992188 90.257812 175.992188 C 90.257812 175.992188 99.332031 175.996094 102.273438 175.992188 C 102.765625 175.988281 103.152344 175.554688 103.085938 175.066406 C 101.164062 160.371094 87.972656 149.761719 71.523438 149.761719 C 50.546875 149.761719 37.515625 164.21875 37.515625 187.492188 C 37.515625 210.734375 50.566406 225.171875 71.574219 225.171875 C 88.078125 225.171875 100.714844 215.6875 103.082031 201.542969 C 103.167969 201.042969 102.777344 200.585938 102.269531 200.582031 Z M 90.097656 200.582031 "/>
        </g>
        <g clip-rule="nonzero" clip-path="url(#6107f44936)">
            <path style=" stroke:none;fill-rule:nonzero;fill:#ffde59;fill-opacity:1;"
                  d="M 115.019531 225.175781 L 103.023438 225.175781 C 102.074219 225.175781 101.308594 224.40625 101.308594 223.460938 L 101.308594 192.609375 L 70.457031 192.609375 L 70.457031 223.460938 C 70.457031 224.40625 69.691406 225.175781 68.742188 225.175781 L 56.746094 225.175781 C 55.796875 225.175781 55.03125 224.40625 55.03125 223.460938 L 55.03125 151.476562 C 55.03125 150.527344 55.796875 149.761719 56.746094 149.761719 L 68.742188 149.761719 C 69.691406 149.761719 70.457031 150.527344 70.457031 151.476562 L 70.457031 178.898438 L 101.308594 178.898438 L 101.308594 151.476562 C 101.308594 150.527344 102.074219 149.761719 103.023438 149.761719 L 115.019531 149.761719 C 115.96875 149.761719 116.734375 150.527344 116.734375 151.476562 L 116.734375 223.460938 C 116.734375 224.40625 115.96875 225.175781 115.019531 225.175781 Z M 115.019531 225.175781 "/>
        </g>
        <g clip-rule="nonzero" clip-path="url(#b164ba6086)">
            <path style=" stroke:none;fill-rule:nonzero;fill:#142453;fill-opacity:1;"
                  d="M 77.707031 145.226562 L 80.414062 145.226562 L 80.414062 229.773438 L 77.707031 229.773438 Z M 77.707031 145.226562 "/>
        </g>
        <g style="fill:#ffde59;fill-opacity:1;">
            <g transform="translate(126.373825, 213.77376)">
                <path style="stroke:none"
                      d="M 14.359375 -19.65625 C 16.765625 -19.65625 18.703125 -18.9375 20.171875 -17.5 C 21.648438 -16.0625 22.390625 -13.925781 22.390625 -11.09375 L 22.390625 0 L 16.78125 0 L 16.78125 -10.21875 C 16.78125 -11.757812 16.441406 -12.90625 15.765625 -13.65625 C 15.097656 -14.414062 14.128906 -14.796875 12.859375 -14.796875 C 11.441406 -14.796875 10.3125 -14.359375 9.46875 -13.484375 C 8.625 -12.609375 8.203125 -11.304688 8.203125 -9.578125 L 8.203125 0 L 2.59375 0 L 2.59375 -26.71875 L 8.203125 -26.71875 L 8.203125 -17.359375 C 8.953125 -18.097656 9.851562 -18.664062 10.90625 -19.0625 C 11.957031 -19.457031 13.109375 -19.65625 14.359375 -19.65625 Z M 14.359375 -19.65625 "/>
            </g>
        </g>
        <g style="fill:#ffde59;fill-opacity:1;">
            <g transform="translate(151.249868, 213.77376)">
                <path style="stroke:none"
                      d="M 22.109375 -19.375 L 22.109375 0 L 16.78125 0 L 16.78125 -2.296875 C 16.03125 -1.460938 15.140625 -0.820312 14.109375 -0.375 C 13.078125 0.0625 11.960938 0.28125 10.765625 0.28125 C 8.222656 0.28125 6.207031 -0.445312 4.71875 -1.90625 C 3.226562 -3.375 2.484375 -5.546875 2.484375 -8.421875 L 2.484375 -19.375 L 8.09375 -19.375 L 8.09375 -9.25 C 8.09375 -6.132812 9.40625 -4.578125 12.03125 -4.578125 C 13.375 -4.578125 14.453125 -5.015625 15.265625 -5.890625 C 16.078125 -6.765625 16.484375 -8.066406 16.484375 -9.796875 L 16.484375 -19.375 Z M 22.109375 -19.375 "/>
            </g>
        </g>
        <g style="fill:#ffde59;fill-opacity:1;">
            <g transform="translate(175.981922, 213.77376)">
                <path style="stroke:none"
                      d="M 10.90625 -7.59375 L 8.203125 -4.9375 L 8.203125 0 L 2.59375 0 L 2.59375 -26.71875 L 8.203125 -26.71875 L 8.203125 -11.59375 L 16.421875 -19.375 L 23.109375 -19.375 L 15.046875 -11.15625 L 23.828125 0 L 17.03125 0 Z M 10.90625 -7.59375 "/>
            </g>
        </g>
        <g style="fill:#ffde59;fill-opacity:1;">
            <g transform="translate(199.741972, 213.77376)">
                <path style="stroke:none"
                      d="M 22.109375 -19.375 L 22.109375 0 L 16.78125 0 L 16.78125 -2.296875 C 16.03125 -1.460938 15.140625 -0.820312 14.109375 -0.375 C 13.078125 0.0625 11.960938 0.28125 10.765625 0.28125 C 8.222656 0.28125 6.207031 -0.445312 4.71875 -1.90625 C 3.226562 -3.375 2.484375 -5.546875 2.484375 -8.421875 L 2.484375 -19.375 L 8.09375 -19.375 L 8.09375 -9.25 C 8.09375 -6.132812 9.40625 -4.578125 12.03125 -4.578125 C 13.375 -4.578125 14.453125 -5.015625 15.265625 -5.890625 C 16.078125 -6.765625 16.484375 -8.066406 16.484375 -9.796875 L 16.484375 -19.375 Z M 22.109375 -19.375 "/>
            </g>
        </g>
        <g style="fill:#ffde59;fill-opacity:1;">
            <g transform="translate(224.474026, 213.77376)">
                <path style="stroke:none"
                      d="M 27.390625 -19.65625 C 29.816406 -19.65625 31.742188 -18.941406 33.171875 -17.515625 C 34.597656 -16.085938 35.3125 -13.945312 35.3125 -11.09375 L 35.3125 0 L 29.703125 0 L 29.703125 -10.21875 C 29.703125 -11.757812 29.382812 -12.90625 28.75 -13.65625 C 28.113281 -14.414062 27.207031 -14.796875 26.03125 -14.796875 C 24.707031 -14.796875 23.660156 -14.367188 22.890625 -13.515625 C 22.128906 -12.660156 21.75 -11.394531 21.75 -9.71875 L 21.75 0 L 16.125 0 L 16.125 -10.21875 C 16.125 -13.269531 14.898438 -14.796875 12.453125 -14.796875 C 11.160156 -14.796875 10.128906 -14.367188 9.359375 -13.515625 C 8.585938 -12.660156 8.203125 -11.394531 8.203125 -9.71875 L 8.203125 0 L 2.59375 0 L 2.59375 -19.375 L 7.953125 -19.375 L 7.953125 -17.140625 C 8.671875 -17.953125 9.550781 -18.570312 10.59375 -19 C 11.644531 -19.4375 12.796875 -19.65625 14.046875 -19.65625 C 15.410156 -19.65625 16.644531 -19.382812 17.75 -18.84375 C 18.851562 -18.300781 19.738281 -17.515625 20.40625 -16.484375 C 21.195312 -17.492188 22.195312 -18.273438 23.40625 -18.828125 C 24.625 -19.378906 25.953125 -19.65625 27.390625 -19.65625 Z M 27.390625 -19.65625 "/>
            </g>
        </g>
        <g style="fill:#142453;fill-opacity:1;">
            <g transform="translate(126.373825, 184.476213)">
                <path style="stroke:none"
                      d="M 11.40625 0.1875 C 9.539062 0.1875 7.867188 -0.21875 6.390625 -1.03125 C 4.910156 -1.851562 3.75 -3.003906 2.90625 -4.484375 C 2.070312 -5.960938 1.65625 -7.625 1.65625 -9.46875 C 1.65625 -11.3125 2.070312 -12.960938 2.90625 -14.421875 C 3.75 -15.890625 4.910156 -17.03125 6.390625 -17.84375 C 7.867188 -18.664062 9.539062 -19.078125 11.40625 -19.078125 C 13.039062 -19.078125 14.5 -18.757812 15.78125 -18.125 C 17.070312 -17.488281 18.085938 -16.5625 18.828125 -15.34375 L 16.921875 -14.046875 C 16.296875 -14.972656 15.503906 -15.671875 14.546875 -16.140625 C 13.585938 -16.609375 12.539062 -16.84375 11.40625 -16.84375 C 10.039062 -16.84375 8.8125 -16.535156 7.71875 -15.921875 C 6.625 -15.316406 5.769531 -14.445312 5.15625 -13.3125 C 4.550781 -12.1875 4.25 -10.90625 4.25 -9.46875 C 4.25 -8 4.550781 -6.707031 5.15625 -5.59375 C 5.769531 -4.476562 6.625 -3.613281 7.71875 -3 C 8.8125 -2.394531 10.039062 -2.09375 11.40625 -2.09375 C 12.539062 -2.09375 13.585938 -2.316406 14.546875 -2.765625 C 15.503906 -3.222656 16.296875 -3.921875 16.921875 -4.859375 L 18.828125 -3.5625 C 18.085938 -2.34375 17.066406 -1.410156 15.765625 -0.765625 C 14.472656 -0.128906 13.019531 0.1875 11.40625 0.1875 Z M 11.40625 0.1875 "/>
            </g>
        </g>
        <g style="fill:#142453;fill-opacity:1;">
            <g transform="translate(146.64186, 184.476213)">
                <path style="stroke:none"
                      d="M 20.046875 -8.671875 L 4.21875 -8.671875 C 4.351562 -6.703125 5.101562 -5.113281 6.46875 -3.90625 C 7.84375 -2.695312 9.570312 -2.09375 11.65625 -2.09375 C 12.832031 -2.09375 13.910156 -2.300781 14.890625 -2.71875 C 15.878906 -3.132812 16.734375 -3.753906 17.453125 -4.578125 L 18.90625 -2.921875 C 18.0625 -1.910156 17.007812 -1.140625 15.75 -0.609375 C 14.488281 -0.078125 13.101562 0.1875 11.59375 0.1875 C 9.644531 0.1875 7.921875 -0.222656 6.421875 -1.046875 C 4.921875 -1.878906 3.75 -3.03125 2.90625 -4.5 C 2.070312 -5.96875 1.65625 -7.625 1.65625 -9.46875 C 1.65625 -11.3125 2.054688 -12.960938 2.859375 -14.421875 C 3.660156 -15.890625 4.765625 -17.03125 6.171875 -17.84375 C 7.578125 -18.664062 9.15625 -19.078125 10.90625 -19.078125 C 12.65625 -19.078125 14.226562 -18.664062 15.625 -17.84375 C 17.019531 -17.03125 18.113281 -15.898438 18.90625 -14.453125 C 19.695312 -13.003906 20.09375 -11.34375 20.09375 -9.46875 Z M 10.90625 -16.890625 C 9.082031 -16.890625 7.550781 -16.304688 6.3125 -15.140625 C 5.082031 -13.972656 4.382812 -12.453125 4.21875 -10.578125 L 17.640625 -10.578125 C 17.472656 -12.453125 16.769531 -13.972656 15.53125 -15.140625 C 14.300781 -16.304688 12.757812 -16.890625 10.90625 -16.890625 Z M 10.90625 -16.890625 "/>
            </g>
        </g>
        <g style="fill:#142453;fill-opacity:1;">
            <g transform="translate(168.385907, 184.476213)">
                <path style="stroke:none"
                      d="M 6.015625 -15.234375 C 6.609375 -16.503906 7.5 -17.460938 8.6875 -18.109375 C 9.875 -18.753906 11.347656 -19.078125 13.109375 -19.078125 L 13.109375 -16.59375 L 12.484375 -16.625 C 10.492188 -16.625 8.9375 -16.007812 7.8125 -14.78125 C 6.6875 -13.5625 6.125 -11.847656 6.125 -9.640625 L 6.125 0 L 3.5625 0 L 3.5625 -18.9375 L 6.015625 -18.9375 Z M 6.015625 -15.234375 "/>
            </g>
        </g>
        <g style="fill:#142453;fill-opacity:1;">
            <g transform="translate(182.82193, 184.476213)">
                <path style="stroke:none"
                      d="M 20.84375 -26.71875 L 20.84375 0 L 18.390625 0 L 18.390625 -3.75 C 17.628906 -2.476562 16.617188 -1.503906 15.359375 -0.828125 C 14.097656 -0.148438 12.675781 0.1875 11.09375 0.1875 C 9.3125 0.1875 7.703125 -0.21875 6.265625 -1.03125 C 4.828125 -1.851562 3.695312 -2.992188 2.875 -4.453125 C 2.0625 -5.921875 1.65625 -7.59375 1.65625 -9.46875 C 1.65625 -11.34375 2.0625 -13.007812 2.875 -14.46875 C 3.695312 -15.9375 4.828125 -17.070312 6.265625 -17.875 C 7.703125 -18.675781 9.3125 -19.078125 11.09375 -19.078125 C 12.625 -19.078125 14.003906 -18.757812 15.234375 -18.125 C 16.472656 -17.488281 17.488281 -16.5625 18.28125 -15.34375 L 18.28125 -26.71875 Z M 11.296875 -2.09375 C 12.617188 -2.09375 13.8125 -2.394531 14.875 -3 C 15.945312 -3.613281 16.789062 -4.484375 17.40625 -5.609375 C 18.019531 -6.742188 18.328125 -8.03125 18.328125 -9.46875 C 18.328125 -10.90625 18.019531 -12.1875 17.40625 -13.3125 C 16.789062 -14.445312 15.945312 -15.316406 14.875 -15.921875 C 13.8125 -16.535156 12.617188 -16.84375 11.296875 -16.84375 C 9.953125 -16.84375 8.742188 -16.535156 7.671875 -15.921875 C 6.609375 -15.316406 5.769531 -14.445312 5.15625 -13.3125 C 4.550781 -12.1875 4.25 -10.90625 4.25 -9.46875 C 4.25 -8.03125 4.550781 -6.742188 5.15625 -5.609375 C 5.769531 -4.484375 6.609375 -3.613281 7.671875 -3 C 8.742188 -2.394531 9.953125 -2.09375 11.296875 -2.09375 Z M 11.296875 -2.09375 "/>
            </g>
        </g>
        <g style="fill:#142453;fill-opacity:1;">
            <g transform="translate(207.229979, 184.476213)">
                <path style="stroke:none"
                      d="M 10.1875 -19.078125 C 12.65625 -19.078125 14.550781 -18.457031 15.875 -17.21875 C 17.195312 -15.988281 17.859375 -14.160156 17.859375 -11.734375 L 17.859375 0 L 15.40625 0 L 15.40625 -2.953125 C 14.832031 -1.960938 13.988281 -1.191406 12.875 -0.640625 C 11.757812 -0.0859375 10.429688 0.1875 8.890625 0.1875 C 6.773438 0.1875 5.09375 -0.316406 3.84375 -1.328125 C 2.601562 -2.335938 1.984375 -3.671875 1.984375 -5.328125 C 1.984375 -6.929688 2.5625 -8.222656 3.71875 -9.203125 C 4.882812 -10.191406 6.738281 -10.6875 9.28125 -10.6875 L 15.296875 -10.6875 L 15.296875 -11.84375 C 15.296875 -13.476562 14.835938 -14.71875 13.921875 -15.5625 C 13.015625 -16.414062 11.6875 -16.84375 9.9375 -16.84375 C 8.738281 -16.84375 7.585938 -16.644531 6.484375 -16.25 C 5.378906 -15.851562 4.429688 -15.304688 3.640625 -14.609375 L 2.484375 -16.53125 C 3.441406 -17.34375 4.59375 -17.96875 5.9375 -18.40625 C 7.28125 -18.851562 8.695312 -19.078125 10.1875 -19.078125 Z M 9.28125 -1.84375 C 10.726562 -1.84375 11.96875 -2.171875 13 -2.828125 C 14.03125 -3.484375 14.796875 -4.4375 15.296875 -5.6875 L 15.296875 -8.78125 L 9.359375 -8.78125 C 6.117188 -8.78125 4.5 -7.65625 4.5 -5.40625 C 4.5 -4.300781 4.914062 -3.429688 5.75 -2.796875 C 6.59375 -2.160156 7.769531 -1.84375 9.28125 -1.84375 Z M 9.28125 -1.84375 "/>
            </g>
        </g>
        <g style="fill:#142453;fill-opacity:1;">
            <g transform="translate(228.470017, 184.476213)">
                <path style="stroke:none"
                      d="M 8.640625 0.1875 C 7.109375 0.1875 5.640625 -0.0351562 4.234375 -0.484375 C 2.828125 -0.929688 1.726562 -1.488281 0.9375 -2.15625 L 2.09375 -4.171875 C 2.882812 -3.546875 3.878906 -3.035156 5.078125 -2.640625 C 6.273438 -2.242188 7.519531 -2.046875 8.8125 -2.046875 C 10.539062 -2.046875 11.816406 -2.316406 12.640625 -2.859375 C 13.472656 -3.398438 13.890625 -4.160156 13.890625 -5.140625 C 13.890625 -5.835938 13.660156 -6.382812 13.203125 -6.78125 C 12.753906 -7.175781 12.179688 -7.472656 11.484375 -7.671875 C 10.785156 -7.878906 9.863281 -8.082031 8.71875 -8.28125 C 7.175781 -8.570312 5.9375 -8.863281 5 -9.15625 C 4.0625 -9.457031 3.265625 -9.96875 2.609375 -10.6875 C 1.953125 -11.40625 1.625 -12.40625 1.625 -13.6875 C 1.625 -15.269531 2.28125 -16.5625 3.59375 -17.5625 C 4.914062 -18.570312 6.753906 -19.078125 9.109375 -19.078125 C 10.328125 -19.078125 11.546875 -18.914062 12.765625 -18.59375 C 13.992188 -18.269531 15.003906 -17.84375 15.796875 -17.3125 L 14.6875 -15.265625 C 13.125 -16.347656 11.265625 -16.890625 9.109375 -16.890625 C 7.472656 -16.890625 6.238281 -16.597656 5.40625 -16.015625 C 4.582031 -15.441406 4.171875 -14.6875 4.171875 -13.75 C 4.171875 -13.03125 4.40625 -12.453125 4.875 -12.015625 C 5.34375 -11.585938 5.925781 -11.269531 6.625 -11.0625 C 7.320312 -10.863281 8.28125 -10.65625 9.5 -10.4375 C 11.007812 -10.15625 12.222656 -9.867188 13.140625 -9.578125 C 14.054688 -9.285156 14.835938 -8.789062 15.484375 -8.09375 C 16.128906 -7.40625 16.453125 -6.445312 16.453125 -5.21875 C 16.453125 -3.5625 15.757812 -2.242188 14.375 -1.265625 C 13 -0.296875 11.085938 0.1875 8.640625 0.1875 Z M 8.640625 0.1875 "/>
            </g>
        </g>
    </g>
</svg>
