<?xml version="1.0" encoding="UTF-8"?>
<svg id="Layer_1" data-name="Layer 1" xmlns="http://www.w3.org/2000/svg" viewBox="0 0 1080 1080">
    <defs>
        <style>
            .cls-1, .cls-2 {
            fill: #152553;
            }

            .cls-3 {
            fill: #2b3990;
            }

            .cls-4 {
            fill: #ffcb05;
            }

            .cls-5 {
            fill: #fff;
            }

            .cls-2 {
            font-family: Montserrat-Bold, Montserrat;
            font-size: 59.894882202148438px;
            font-weight: 700;
            letter-spacing: .075001309731739em;
            }

            .cls-6 {
            fill: #e6e7e8;
            }
        </style>
    </defs>
    <path class="cls-3"
          d="M523.7998046875,693.807787092315266c.97021484375,1.52001953125,1.91015625,3.0400390625,2.8203125,4.570068359375-28.97021484375-34.3800048828125-100.31005859375-57.239990234375-152.0703125-65.699951171875-22.7998046875-3.72998046875-39.5-23.469970703125-39.5-46.580078125v-173.959960937500909c0-4.590087890625.75-8.9200439453125,2.1201171875-12.9100341796875.18017578125-.5198974609375.3701171875-1.0299072265625.5703125-1.5399169921875,2.89990234375-7.4300537109375,7.9794921875-13.580078125,14.27978515625-17.9200439453125,1.60009765625-1.0999755859375,3.27978515625-2.0899658203125,5.02001953125-2.9500732421875,11.2197265625-5.5399169921875,25.06005859375-5.85986328125,37.39013671875,1.4200439453125l90.81982421875,53.6199951171875c7.080078125,4.179931640625,12.8701171875,1.02001953125,16.9599609375-.669921875,3.68994140625-1.52001953125,6-1.840087890625,6.6298828125,5.5699462890625l.26025390625,3.0799560546875,6.14990234375,73.2099609375.14013671875,1.6900634765625,5.669921875,67.559936523438409c-.5400390625,5.41015625-1.30029296875,10.840087890625-2.2900390625,16.2900390625-.60986328125,3.3701171875-1.31005859375,6.75-2.10009765625,10.1500244140625-4,17.2000732421875-10.35986328125,34.6199951171875-19.7099609375,52.2900390625,1.3701171875,1.3399658203125,2.7001953125,2.68994140625,4.009765625,4.0499267578125,0,.010009765625.01025390625.010009765625.01025390625.02001953125,6.02001953125,6.239990234375,11.39013671875,12.60009765625,16.16015625,19.050048828125,2.35986328125,3.18994140625,4.57958984375,6.409912109375,6.65966796875,9.659912109375Z"/>
    <path class="cls-5"
          d="M523.7998046875,693.807787092315266c-29.2900390625-35.889892578125-93.419921875-60.199951171875-141.7998046875-68.8798828125-22.43994140625-4.030029296875-38.72998046875-23.630126953125-38.72998046875-46.4400634765625v-173.900024414063409c0-3.2099609375.3701171875-6.2900390625,1.0498046875-9.2099609375.35009765625-1.469970703125.77001953125-2.9000244140625,1.2802734375-4.280029296875,1.509765625-4.199951171875,3.69970703125-8,6.419921875-11.3299560546875,2.39013671875-2.9200439453125,5.18994140625-5.4801025390625,8.27001953125-7.5899658203125,11.89990234375-8.1800537109375,28.14013671875-9.880126953125,42.35986328125-1.489990234375l90.05029296875,53.159912109375c3.5,2.06005859375,6.68994140625,4.5400390625,9.509765625,7.340087890625,2.6298828125,2.619873046875,4.93994140625,5.52001953125,6.89013671875,8.64990234375,4.27001953125,6.81005859375,6.830078125,14.699951171875,7.27978515625,22.97998046875l3.400390625,55.030029296875.14990234375,2.4599609375,2.60986328125,42.180053710938409h-.3203125c-.099609375,6.5799560546875-.4697265625,13.1800537109375-1.15966796875,19.8099365234375-.5400390625,5.41015625-1.30029296875,10.840087890625-2.2900390625,16.2900390625-.60986328125,3.3701171875-1.31005859375,6.75-2.10009765625,10.1500244140625-4,17.2000732421875-10.35986328125,34.6199951171875-19.7099609375,52.2900390625,1.3701171875,1.3399658203125,2.7001953125,2.68994140625,4.009765625,4.0499267578125,0,.010009765625.01025390625.010009765625.01025390625.02001953125,6.02001953125,6.239990234375,11.39013671875,12.60009765625,16.16015625,19.050048828125,2.35986328125,3.18994140625,4.57958984375,6.409912109375,6.65966796875,9.659912109375Z"/>
    <path class="cls-3"
          d="M530.961208767361313,562.489990234375h-8.740234375c-.10009765625,6.58001708984375-.4697265625,13.17999267578125-1.15966796875,19.80999755859375-.5400390625,5.40997314453125-1.30029296875,10.84002685546875-2.2900390625,16.28997802734375-.6103515625,3.3699951171875-1.31005859375,6.75-2.10009765625,10.1500244140625-4,17.20001220703125-10.35986328125,34.6199951171875-19.7099609375,52.28997802734375,1.36962890625,1.34002685546875,2.69970703125,2.69000244140625,4.009765625,4.04998779296875,0,.010009765625.01025390625.010009765625.01025390625.02001953125,6.02001953125,6.239990234375,11.3896484375,12.60003662109375,16.16015625,19.04998779296875-28.17041015625-30.699951171875-86.25-56.57000732421875-129.13037109375-66.76995849609375-21.330078125-5.07000732421875-36.43017578125-24.0400390625-36.43017578125-45.96002197265625v-174.47998046875c0-1.2900390625.060546875-2.57000732421875.18017578125-3.82000732421875.18017578125-1.92999267578125.490234375-3.79998779296875.93017578125-5.6199951171875.9296875-3.85003662109375,2.41015625-7.42999267578125,4.35009765625-10.67999267578125.9697265625-1.6300048828125,2.06005859375-3.17999267578125,3.25-4.6400146484375,11.69970703125-14.3699951171875,33.10986328125-19.79998779296875,51.08984375-8.8900146484375l96.08984375,58.35003662109375c14.39990234375,8.739990234375,23.2001953125,24.3499755859375,23.240234375,41.18994140625l.2099609375,80.61004638671875.009765625,5.20001220703125.0302734375,13.8499755859375Z"/>
    <path class="cls-6"
          d="M530.961208767361313,562.489990234375h-8.740234375c-.10009765625,6.58001708984375-.4697265625,13.17999267578125-1.15966796875,19.80999755859375-.5400390625,5.40997314453125-1.30029296875,10.84002685546875-2.2900390625,16.28997802734375-.6103515625,3.3699951171875-1.31005859375,6.75-2.10009765625,10.1500244140625-4,17.20001220703125-10.35986328125,34.6199951171875-19.7099609375,52.28997802734375,1.36962890625,1.34002685546875,2.69970703125,2.69000244140625,4.009765625,4.04998779296875-.02001953125-.01995849609375-.0498046875-.03997802734375-.07958984375-.05999755859375-1.830078125-1.489990234375-3.740234375-2.97998046875-5.73046875-4.4599609375-.68994140625-.530029296875-1.3798828125-1.0400390625-2.080078125-1.5400390625-.69970703125-.50994873046875-1.40966796875-1.01995849609375-2.1298828125-1.52996826171875-1.33984375-.95001220703125-2.7197265625-1.9000244140625-4.1298828125-2.8599853515625-.10009765625-.05999755859375-.2001953125-.1300048828125-.2998046875-.20001220703125-.76025390625-.510009765625-1.52001953125-1.02001953125-2.30029296875-1.52001953125-.77001953125-.51995849609375-1.56005859375-1.01995849609375-2.35009765625-1.51995849609375-.7900390625-.52001953125-1.58984375-1.02001953125-2.39990234375-1.52001953125-.81982421875-.510009765625-1.64013671875-1.010009765625-2.4599609375-1.510009765625-.830078125-.510009765625-1.669921875-1.02001953125-2.52001953125-1.510009765625-.7900390625-.47998046875-1.58984375-.94000244140625-2.3896484375-1.40997314453125-.18017578125-.10003662109375-.35009765625-.20001220703125-.5302734375-.30999755859375-.75-.4200439453125-1.5-.85003662109375-2.259765625-1.280029296875-.88037109375-.510009765625-1.7802734375-1-2.68017578125-1.5-.7900390625-.42999267578125-1.58984375-.8699951171875-2.39013671875-1.30999755859375-1.93994140625-1.04998779296875-3.919921875-2.0899658203125-5.94970703125-3.1300048828125-.9501953125-.489990234375-1.91015625-.97998046875-2.88037109375-1.469970703125-.9697265625-.489990234375-1.94970703125-.98004150390625-2.93994140625-1.46002197265625-.85986328125-.42999267578125-1.7197265625-.8499755859375-2.58984375-1.260009765625-2.4599609375-1.20001220703125-4.97998046875-2.3800048828125-7.56005859375-3.54998779296875-1.009765625-.469970703125-2.02001953125-.92999267578125-3.0498046875-1.3800048828125-1.02001953125-.46002197265625-2.06005859375-.91998291015625-3.1103515625-1.3800048828125-1.7099609375-.75-3.44970703125-1.489990234375-5.2099609375-2.239990234375-9.009765625-3.79998779296875-18.599609375-7.510009765625-28.73974609375-11.08001708984375-25.580078125-9.14996337890625-42.580078125-33.51995849609375-42.580078125-60.7099609375v-45.5c0-38.9100341796875,42.31005859375-63.05999755859375,75.81982421875-43.280029296875l65.3203125,38.57000732421875,1.02001953125.5999755859375,4.82958984375,2.85003662109375c.51025390625.29998779296875,1.0205078125.6099853515625,1.5205078125.92999267578125,2.5498046875,1.6300048828125,4.9296875,3.47998046875,7.10986328125,5.5,1.6298828125,1.5,3.14013671875,3.1099853515625,4.52978515625,4.79998779296875,6.01025390625,7.25,9.91015625,16.1099853515625,11.14013671875,25.59002685546875l.009765625,5.20001220703125.0302734375,13.8499755859375Z"/>
    <path class="cls-1"
          d="M530.080078125,704.457933576690266c-29.56005859375-38.1201171875-114.080078125-50.170166015625-166.93017578125-53.580078125-23.77001953125-1.530029296875-43.2099609375-22.260009765625-43.2099609375-46.080078125v-173.019897460938409c0-13.2100830078125,6.22998046875-24.25,15.43017578125-31.260009765625.58984375-.4400634765625,1.18994140625-.8800048828125,1.7998046875-1.2900390625,2.25-1.5198974609375,4.64013671875-2.8099365234375,7.14990234375-3.8499755859375,2.39013671875-.989990234375,4.88037109375-1.75,7.43994140625-2.260009765625,8.93017578125-1.7900390625,18.64013671875-.5,27.56005859375,4.760009765625l90.830078125,53.6199951171875c13.47998046875,7.9600830078125,22.27001953125-10.7000732421875,23.580078125,4.9000244140625l7.0400390625,46.77001953125,15.89990234375,105.569946289063409c-4,17.2000732421875-10.35986328125,34.6199951171875-19.7099609375,52.2900390625,1.3701171875,1.3399658203125,2.7001953125,2.68994140625,4.009765625,4.0499267578125,0,.010009765625.01025390625.010009765625.01025390625.02001953125,6.02001953125,6.239990234375,11.39013671875,12.60009765625,16.16015625,19.050048828125,2.35986328125,3.18994140625,4.57958984375,6.409912109375,6.65966796875,9.659912109375.97021484375,1.52001953125,1.91015625,3.0400390625,2.8203125,4.570068359375,1.1201171875,1.8699951171875,2.18994140625,3.75,3.2197265625,5.6300048828125.080078125.1500244140625.16015625.2999267578125.240234375.4500732421875Z"/>
    <path class="cls-5"
          d="M526.6201171875,698.377855451690266c1.1201171875,1.8699951171875,2.18994140625,3.75,3.2197265625,5.6300048828125-28.3798828125-38.8599853515625-107.39990234375-56.5899658203125-160.0498046875-60.739990234375-23.27001953125-1.8299560546875-42.2998046875-22.5-42.2998046875-45.8499755859375v-173.190063476563409c0-9.1500244140625,2.98974609375-17.260009765625,7.8798828125-23.7099609375.75-.9801025390625,1.5400390625-1.9300537109375,2.3701171875-2.8299560546875,2.32958984375-2.5400390625,4.9794921875-4.75,7.85986328125-6.590087890625,2.22998046875-1.43994140625,4.60986328125-2.64990234375,7.08984375-3.5999755859375,10.580078125-4.1300048828125,23.01025390625-3.77001953125,34.18994140625,2.8299560546875l90.8203125,53.6201171875c13.47998046875,7.9599609375,22.26953125-10.7100830078125,23.580078125,4.89990234375l6.85986328125,58.699951171875.06982421875.590087890625,10.56005859375,90.449951171875909c-.60986328125,3.3701171875-1.31005859375,6.75-2.10009765625,10.1500244140625-4,17.2000732421875-10.35986328125,34.6199951171875-19.7099609375,52.2900390625,1.3701171875,1.3399658203125,2.7001953125,2.68994140625,4.009765625,4.0499267578125,0,.010009765625.01025390625.010009765625.01025390625.02001953125,6.02001953125,6.239990234375,11.39013671875,12.60009765625,16.16015625,19.050048828125,2.35986328125,3.18994140625,4.57958984375,6.409912109375,6.65966796875,9.659912109375.97021484375,1.52001953125,1.91015625,3.0400390625,2.8203125,4.570068359375Z"/>
    <path class="cls-1"
          d="M523.7998046875,693.807787092315266c.97021484375,1.52001953125,1.91015625,3.0400390625,2.8203125,4.570068359375-28.97021484375-34.3800048828125-100.31005859375-57.239990234375-152.0703125-65.699951171875-22.7998046875-3.72998046875-39.5-23.469970703125-39.5-46.580078125v-173.959960937500909c0-4.590087890625.75-8.9200439453125,2.1201171875-12.9100341796875.18017578125-.5198974609375.3701171875-1.0299072265625.5703125-1.5399169921875,2.89990234375-7.4300537109375,7.9794921875-13.580078125,14.27978515625-17.9200439453125,1.60009765625-1.0999755859375,3.27978515625-2.0899658203125,5.02001953125-2.9500732421875,11.2197265625-5.5399169921875,25.06005859375-5.85986328125,37.39013671875,1.4200439453125l90.81982421875,53.6199951171875c7.080078125,4.179931640625,12.8701171875,1.02001953125,16.9599609375-.669921875,3.68994140625-1.52001953125,6-1.840087890625,6.6298828125,5.5699462890625l.26025390625,3.0799560546875,6.14990234375,73.2099609375.14013671875,1.6900634765625,5.669921875,67.559936523438409c-.5400390625,5.41015625-1.30029296875,10.840087890625-2.2900390625,16.2900390625-.60986328125,3.3701171875-1.31005859375,6.75-2.10009765625,10.1500244140625-4,17.2000732421875-10.35986328125,34.6199951171875-19.7099609375,52.2900390625,1.3701171875,1.3399658203125,2.7001953125,2.68994140625,4.009765625,4.0499267578125,0,.010009765625.01025390625.010009765625.01025390625.02001953125,6.02001953125,6.239990234375,11.39013671875,12.60009765625,16.16015625,19.050048828125,2.35986328125,3.18994140625,4.57958984375,6.409912109375,6.65966796875,9.659912109375Z"/>
    <path class="cls-5"
          d="M523.7998046875,693.807787092315266c-29.2900390625-35.889892578125-93.419921875-60.199951171875-141.7998046875-68.8798828125-22.43994140625-4.030029296875-38.72998046875-23.630126953125-38.72998046875-46.4400634765625v-173.900024414063409c0-3.2099609375.3701171875-6.2900390625,1.0498046875-9.2099609375.35009765625-1.469970703125.77001953125-2.9000244140625,1.2802734375-4.280029296875,1.509765625-4.199951171875,3.69970703125-8,6.419921875-11.3299560546875,2.39013671875-2.9200439453125,5.18994140625-5.4801025390625,8.27001953125-7.5899658203125,11.89990234375-8.1800537109375,28.14013671875-9.880126953125,42.35986328125-1.489990234375l90.05029296875,53.159912109375c3.5,2.06005859375,6.68994140625,4.5400390625,9.509765625,7.340087890625,2.6298828125,2.619873046875,4.93994140625,5.52001953125,6.89013671875,8.64990234375,4.27001953125,6.81005859375,6.830078125,14.699951171875,7.27978515625,22.97998046875l3.400390625,55.030029296875.14990234375,2.4599609375,2.60986328125,42.180053710938409h-.3203125c-.099609375,6.5799560546875-.4697265625,13.1800537109375-1.15966796875,19.8099365234375-.5400390625,5.41015625-1.30029296875,10.840087890625-2.2900390625,16.2900390625-.60986328125,3.3701171875-1.31005859375,6.75-2.10009765625,10.1500244140625-4,17.2000732421875-10.35986328125,34.6199951171875-19.7099609375,52.2900390625,1.3701171875,1.3399658203125,2.7001953125,2.68994140625,4.009765625,4.0499267578125,0,.010009765625.01025390625.010009765625.01025390625.02001953125,6.02001953125,6.239990234375,11.39013671875,12.60009765625,16.16015625,19.050048828125,2.35986328125,3.18994140625,4.57958984375,6.409912109375,6.65966796875,9.659912109375Z"/>
    <path class="cls-1"
          d="M530.961208767361313,562.489990234375h-8.740234375c-.10009765625,6.58001708984375-.4697265625,13.17999267578125-1.15966796875,19.80999755859375-.5400390625,5.40997314453125-1.30029296875,10.84002685546875-2.2900390625,16.28997802734375-.6103515625,3.3699951171875-1.31005859375,6.75-2.10009765625,10.1500244140625-4,17.20001220703125-10.35986328125,34.6199951171875-19.7099609375,52.28997802734375,1.36962890625,1.34002685546875,2.69970703125,2.69000244140625,4.009765625,4.04998779296875,0,.010009765625.01025390625.010009765625.01025390625.02001953125,6.02001953125,6.239990234375,11.3896484375,12.60003662109375,16.16015625,19.04998779296875-28.17041015625-30.699951171875-86.25-56.57000732421875-129.13037109375-66.76995849609375-21.330078125-5.07000732421875-36.43017578125-24.0400390625-36.43017578125-45.96002197265625v-174.47998046875c0-1.2900390625.060546875-2.57000732421875.18017578125-3.82000732421875.18017578125-1.92999267578125.490234375-3.79998779296875.93017578125-5.6199951171875.9296875-3.85003662109375,2.41015625-7.42999267578125,4.35009765625-10.67999267578125.9697265625-1.6300048828125,2.06005859375-3.17999267578125,3.25-4.6400146484375,11.69970703125-14.3699951171875,33.10986328125-19.79998779296875,51.08984375-8.8900146484375l96.08984375,58.35003662109375c14.39990234375,8.739990234375,23.2001953125,24.3499755859375,23.240234375,41.18994140625l.2099609375,80.61004638671875.009765625,5.20001220703125.0302734375,13.8499755859375Z"/>
    <path class="cls-4"
          d="M530.961208767361313,562.489990234375h-8.740234375c-.10009765625,6.58001708984375-.4697265625,13.17999267578125-1.15966796875,19.80999755859375-.5400390625,5.40997314453125-1.30029296875,10.84002685546875-2.2900390625,16.28997802734375-.6103515625,3.3699951171875-1.31005859375,6.75-2.10009765625,10.1500244140625-4,17.20001220703125-10.35986328125,34.6199951171875-19.7099609375,52.28997802734375,1.36962890625,1.34002685546875,2.69970703125,2.69000244140625,4.009765625,4.04998779296875,0,.010009765625.01025390625.010009765625.01025390625.02001953125-.0302734375-.02996826171875-.06005859375-.04998779296875-.08984375-.08001708984375-1.830078125-1.489990234375-3.740234375-2.97998046875-5.73046875-4.4599609375-.68994140625-.530029296875-1.3798828125-1.0400390625-2.080078125-1.5400390625-.69970703125-.50994873046875-1.40966796875-1.01995849609375-2.1298828125-1.52996826171875-1.33984375-.95001220703125-2.7197265625-1.9000244140625-4.1298828125-2.8599853515625-.10009765625-.05999755859375-.2001953125-.1300048828125-.2998046875-.20001220703125-.76025390625-.510009765625-1.52001953125-1.02001953125-2.30029296875-1.52001953125-.77001953125-.51995849609375-1.56005859375-1.01995849609375-2.35009765625-1.51995849609375-.7900390625-.510009765625-1.58984375-1.02001953125-2.39990234375-1.52001953125-.81982421875-.510009765625-1.64013671875-1.010009765625-2.4599609375-1.510009765625-.830078125-.510009765625-1.669921875-1.010009765625-2.52001953125-1.510009765625-.7900390625-.469970703125-1.58984375-.94000244140625-2.3896484375-1.40997314453125-.18017578125-.10003662109375-.35009765625-.20001220703125-.5302734375-.30999755859375-.75-.4200439453125-1.5-.85003662109375-2.259765625-1.280029296875-.88037109375-.510009765625-1.7802734375-1-2.68017578125-1.5-.7900390625-.42999267578125-1.58984375-.8699951171875-2.39013671875-1.30999755859375-1.93994140625-1.04998779296875-3.919921875-2.0899658203125-5.94970703125-3.1300048828125-.9501953125-.489990234375-1.91015625-.97998046875-2.88037109375-1.469970703125-.9697265625-.489990234375-1.94970703125-.98004150390625-2.93994140625-1.46002197265625-.85009765625-.42999267578125-1.7197265625-.8499755859375-2.58984375-1.260009765625-2.4599609375-1.20001220703125-4.97998046875-2.3800048828125-7.56005859375-3.54998779296875-1.009765625-.469970703125-2.02001953125-.92999267578125-3.0498046875-1.3800048828125-1.02001953125-.46002197265625-2.06005859375-.91998291015625-3.1103515625-1.3800048828125-1.7099609375-.75-3.44970703125-1.489990234375-5.2099609375-2.239990234375-9.009765625-3.79998779296875-18.599609375-7.510009765625-28.73974609375-11.08001708984375-2.490234375-.8800048828125-5.01025390625-1.75-7.56982421875-2.6099853515625-20.88037109375-7.03997802734375-35.01025390625-26.55999755859375-35.01025390625-48.5999755859375v-57.36004638671875c0-37.8599853515625,41.18017578125-61.3699951171875,73.7900390625-42.1199951171875l2.02978515625,1.20001220703125,65.3203125,38.57000732421875,1.02001953125.5999755859375c2.25,1.33001708984375,4.3896484375,2.7900390625,6.419921875,4.37005615234375,2.580078125,2.00994873046875,4.97998046875,4.219970703125,7.18017578125,6.5999755859375,1.6298828125,1.760009765625,3.14990234375,3.6300048828125,4.53955078125,5.57000732421875,5.990234375,8.260009765625,9.8203125,18,11,28.33001708984375l.0302734375,13.8499755859375Z"/>
    <g>
        <circle class="cls-1" cx="416.805632674324443" cy="572.987435698465561" r="8.504299234238715"/>
        <circle class="cls-1" cx="441.454838476647637" cy="572.987435698465561" r="8.504299234237806"/>
        <circle class="cls-1" cx="466.10404427897447" cy="572.987435698465561" r="8.504299234238715"/>
    </g>
    <path class="cls-3"
          d="M744.9501953125,412.137865217314356v173.959960937500909c0,23.110107421875-16.7001953125,42.85009765625-39.5,46.580078125-51.76025390625,8.4599609375-123.10009765625,31.3199462890625-152.0703125,65.699951171875.91015625-1.530029296875,1.85009765625-3.050048828125,2.8203125-4.570068359375,2.080078125-3.25,4.2998046875-6.469970703125,6.65966796875-9.659912109375,4.77001953125-6.449951171875,10.14013671875-12.81005859375,16.16015625-19.050048828125,0-.010009765625.01025390625-.010009765625.01025390625-.02001953125,1.3095703125-1.3599853515625,2.6396484375-2.7099609375,4.009765625-4.0499267578125-9.35009765625-17.6700439453125-15.7099609375-35.0899658203125-19.7099609375-52.2900390625-.7900390625-3.4000244140625-1.490234375-6.7799072265625-2.10009765625-10.1500244140625-.97998046875-5.43994140625-1.73974609375-10.8599853515625-2.2900390625-16.260009765625l5.68017578125-67.589965820313409.1396484375-1.7000732421875,6.150390625-73.2099609375.259765625-3.0699462890625c.6201171875-7.4100341796875,2.93017578125-7.0899658203125,6.6201171875-5.5699462890625,4.08984375,1.68994140625,9.8798828125,4.849853515625,16.9599609375.669921875l90.81982421875-53.6199951171875c12.330078125-7.2799072265625,26.17041015625-6.9599609375,37.39013671875-1.4200439453125,1.740234375.860107421875,3.419921875,1.85009765625,5.02001953125,2.9500732421875,6.30029296875,4.3399658203125,11.3798828125,10.47998046875,14.27978515625,17.9100341796875v.010009765625c.2001953125.510009765625.39013671875,1.02001953125.5703125,1.5399169921875,1.3701171875,3.989990234375,2.1201171875,8.3199462890625,2.1201171875,12.9100341796875Z"/>
    <path class="cls-5"
          d="M736.72998046875,404.587816389189356v173.900024414063409c0,22.8099365234375-16.2900390625,42.4100341796875-38.72998046875,46.4400634765625-48.3798828125,8.679931640625-112.509765625,32.989990234375-141.7998046875,68.8798828125,2.080078125-3.25,4.2998046875-6.469970703125,6.65966796875-9.659912109375,4.77001953125-6.449951171875,10.14013671875-12.81005859375,16.16015625-19.050048828125,0-.010009765625.01025390625-.010009765625.01025390625-.02001953125,1.3095703125-1.3599853515625,2.6396484375-2.7099609375,4.009765625-4.0499267578125-9.35009765625-17.6700439453125-15.7099609375-35.0899658203125-19.7099609375-52.2900390625-.7900390625-3.4000244140625-1.490234375-6.7799072265625-2.10009765625-10.1500244140625-.97998046875-5.43994140625-1.73974609375-10.8599853515625-2.2900390625-16.260009765625-.68994140625-6.639892578125-1.06005859375-13.25-1.15966796875-19.8399658203125h-.3203125l2.60986328125-42.180053710938409.14990234375-2.4599609375,3.400390625-55.030029296875c.44970703125-8.280029296875,3.02001953125-16.169921875,7.2900390625-22.989990234375,1.94970703125-3.119873046875,4.259765625-6.02001953125,6.8798828125-8.639892578125,2.81982421875-2.800048828125,6.009765625-5.280029296875,9.509765625-7.340087890625l90.05029296875-53.159912109375c14.2197265625-8.39013671875,30.4599609375-6.6900634765625,42.35986328125,1.489990234375,3.080078125,2.10986328125,5.8798828125,4.669921875,8.27001953125,7.5899658203125,2.72021484375,3.3299560546875,4.91015625,7.1199951171875,6.419921875,11.3199462890625v.010009765625c.51025390625,1.3800048828125.93017578125,2.81005859375,1.2802734375,4.280029296875.6796875,2.919921875,1.0498046875,6,1.0498046875,9.2099609375Z"/>
    <path class="cls-3"
          d="M728.419921875,396.937914045439356v174.479980468750909c0,21.919921875-15.10009765625,40.889892578125-36.4296875,45.9599609375-42.8701171875,10.199951171875-100.9501953125,36.070068359375-129.13037109375,66.77001953125,4.77001953125-6.449951171875,10.14013671875-12.81005859375,16.16015625-19.050048828125,0-.010009765625.01025390625-.010009765625.01025390625-.02001953125,1.3095703125-1.3599853515625,2.6396484375-2.7099609375,4.009765625-4.0499267578125-9.35009765625-17.6700439453125-15.7099609375-35.0899658203125-19.7099609375-52.2900390625-.7900390625-3.4000244140625-1.490234375-6.7799072265625-2.10009765625-10.1500244140625-.97998046875-5.43994140625-1.73974609375-10.8599853515625-2.2900390625-16.260009765625-.68994140625-6.639892578125-1.06005859375-13.25-1.15966796875-19.8399658203125h-8.740234375l.02978515625-13.8499755859375.01025390625-5.199951171875.2099609375-80.610107421875909c.0400390625-16.8399658203125,8.83984375-32.449951171875,23.240234375-41.18994140625l96.08984375-58.35009765625c17.97998046875-10.909912109375,39.3896484375-5.47998046875,51.08984375,8.89013671875,1.18994140625,1.4599609375,2.2802734375,3.010009765625,3.25,4.639892578125,1.93994140625,3.25,3.419921875,6.820068359375,4.35009765625,10.6700439453125.43994140625,1.8199462890625.75,3.7000732421875.93017578125,5.6300048828125.11962890625,1.25.1796875,2.530029296875.1796875,3.820068359375Z"/>
    <path class="cls-6"
          d="M720.3701171875,507.877855451689356v45.500000000000909c0,27.18994140625-17,51.56005859375-42.580078125,60.7099609375-10.240234375,3.610107421875-19.93017578125,7.35009765625-29.02001953125,11.199951171875-.85009765625.360107421875-1.68994140625.7200927734375-2.52001953125,1.080078125-1.8701171875.800048828125-3.7099609375,1.6099853515625-5.52001953125,2.419921875-1.02978515625.4500732421875-2.0400390625.91015625-3.0498046875,1.380126953125-1.02001953125.4599609375-2.02001953125.919921875-3.02001953125,1.389892578125-.990234375.4600830078125-1.97998046875.9300537109375-2.9599609375,1.400146484375-.6201171875.2899169921875-1.23046875.579833984375-1.830078125.8798828125-.7900390625.3701171875-1.5703125.75-2.33984375,1.1400146484375-.990234375.4801025390625-1.97021484375.9700927734375-2.9404296875,1.4600830078125-.9697265625.489990234375-1.9296875.969970703125-2.8798828125,1.469970703125-.60986328125.3099365234375-1.2099609375.6199951171875-1.81005859375.93994140625-.77001953125.3900146484375-1.52978515625.800048828125-2.27978515625,1.199951171875-.7802734375.41015625-1.5400390625.820068359375-2.30029296875,1.2301025390625-1.56982421875.8499755859375-3.10986328125,1.7099609375-4.6298828125,2.5699462890625-.759765625.4300537109375-1.509765625.860107421875-2.259765625,1.280029296875-.18017578125.1099853515625-.35009765625.2099609375-.5302734375.31005859375-.7998046875.469970703125-1.60009765625.93994140625-2.39013671875,1.409912109375-10.07958984375,5.969970703125-18.89990234375,12.06005859375-26.39990234375,18.1700439453125-.02001953125.0198974609375-.0498046875.0399169921875-.07958984375.0599365234375,1.3095703125-1.3599853515625,2.6396484375-2.7099609375,4.009765625-4.0499267578125-9.35009765625-17.6700439453125-15.7099609375-35.0899658203125-19.7099609375-52.2900390625-.7900390625-3.4000244140625-1.490234375-6.7799072265625-2.10009765625-10.1500244140625-.97998046875-5.43994140625-1.73974609375-10.8599853515625-2.2900390625-16.260009765625-.68994140625-6.639892578125-1.06005859375-13.25-1.15966796875-19.8399658203125h-8.740234375l.02978515625-13.8499755859375.01025390625-5.199951171875c1.22998046875-9.479980468750909,5.1298828125-18.340087890625909,11.1396484375-25.590087890625909,1.39013671875-1.699951171875,2.91015625-3.300048828125,4.5400390625-4.81005859375,2.18017578125-2.0198974609375,4.55029296875-3.85986328125,7.10009765625-5.489990234375.5-.3199462890625,1.01025390625-.6298828125,1.52001953125-.929931640625l4.830078125-2.8499755859375,1.02001953125-.5999755859375,65.31982421875-38.570068359375c33.51025390625-19.780029296875,75.8203125,4.3699951171875,75.8203125,43.280029296875Z"/>
    <path class="cls-1"
          d="M760.06005859375,431.777879865751856v173.019897460938409c0,23.820068359375-19.43994140625,44.550048828125-43.2099609375,46.080078125-52.85009765625,3.409912109375-137.3701171875,15.4599609375-166.93017578125,53.580078125.0703125-.14013671875.14990234375-.280029296875.22021484375-.420166015625.009765625-.0098876953125.009765625-.0198974609375.02001953125-.0299072265625,1.02978515625-1.8800048828125,2.099609375-3.760009765625,3.2197265625-5.6300048828125.91015625-1.530029296875,1.85009765625-3.050048828125,2.8203125-4.570068359375,2.080078125-3.25,4.2998046875-6.469970703125,6.65966796875-9.659912109375,4.77001953125-6.449951171875,10.14013671875-12.81005859375,16.16015625-19.050048828125,0-.010009765625.01025390625-.010009765625.01025390625-.02001953125,1.3095703125-1.3599853515625,2.6396484375-2.7099609375,4.009765625-4.0499267578125-9.35009765625-17.6700439453125-15.7099609375-35.0899658203125-19.7099609375-52.2900390625l15.89990234375-105.569946289063409,7.0400390625-46.77001953125c1.31005859375-15.60009765625,10.10009765625,3.06005859375,23.580078125-4.9000244140625l90.830078125-53.6199951171875c8.919921875-5.260009765625,18.6298828125-6.550048828125,27.56005859375-4.760009765625,2.5595703125.510009765625,5.0498046875,1.27001953125,7.43994140625,2.260009765625,2.509765625,1.0400390625,4.89990234375,2.330078125,7.14990234375,3.8499755859375.60009765625.4100341796875,1.2001953125.8399658203125,1.77978515625,1.280029296875,0,0,.01025390625,0,.02001953125.010009765625,9.2001953125,7.010009765625,15.43017578125,18.0499267578125,15.43017578125,31.260009765625Z"/>
    <path class="cls-5"
          d="M752.509765625,424.227831037626856v173.190063476563409c0,23.3499755859375-19.02978515625,44.02001953125-42.2998046875,45.8499755859375-52.64990234375,4.1500244140625-131.669921875,21.8800048828125-160.0498046875,60.739990234375,1.02978515625-1.8800048828125,2.099609375-3.760009765625,3.2197265625-5.6300048828125.91015625-1.530029296875,1.85009765625-3.050048828125,2.8203125-4.570068359375,2.080078125-3.25,4.2998046875-6.469970703125,6.65966796875-9.659912109375,4.77001953125-6.449951171875,10.14013671875-12.81005859375,16.16015625-19.050048828125,0-.010009765625.01025390625-.010009765625.01025390625-.02001953125,1.3095703125-1.3599853515625,2.6396484375-2.7099609375,4.009765625-4.0499267578125-9.35009765625-17.6700439453125-15.7099609375-35.0899658203125-19.7099609375-52.2900390625-.7900390625-3.4000244140625-1.490234375-6.7799072265625-2.10009765625-10.1500244140625l10.56005859375-90.449951171875909h.009765625l.06005859375-.590087890625,6.85986328125-58.699951171875c1.310546875-15.6099853515625,10.10009765625,3.06005859375,23.580078125-4.89990234375l90.830078125-53.6201171875c11.169921875-6.5999755859375,23.60009765625-6.9599609375,34.18017578125-2.8399658203125,2.47998046875.9600830078125,4.85009765625,2.1700439453125,7.08984375,3.5999755859375v.010009765625c2.88037109375,1.840087890625,5.5302734375,4.050048828125,7.85986328125,6.580078125v.010009765625c.830078125.89990234375,1.6201171875,1.8399658203125,2.35009765625,2.8199462890625,0,0,.01025390625,0,.02001953125.010009765625,4.89013671875,6.449951171875,7.8798828125,14.5599365234375,7.8798828125,23.7099609375Z"/>
    <path class="cls-1"
          d="M744.9501953125,412.137865217314356v173.959960937500909c0,23.110107421875-16.7001953125,42.85009765625-39.5,46.580078125-51.76025390625,8.4599609375-123.10009765625,31.3199462890625-152.0703125,65.699951171875.91015625-1.530029296875,1.85009765625-3.050048828125,2.8203125-4.570068359375,2.080078125-3.25,4.2998046875-6.469970703125,6.65966796875-9.659912109375,4.77001953125-6.449951171875,10.14013671875-12.81005859375,16.16015625-19.050048828125,0-.010009765625.01025390625-.010009765625.01025390625-.02001953125,1.3095703125-1.3599853515625,2.6396484375-2.7099609375,4.009765625-4.0499267578125-9.35009765625-17.6700439453125-15.7099609375-35.0899658203125-19.7099609375-52.2900390625-.7900390625-3.4000244140625-1.490234375-6.7799072265625-2.10009765625-10.1500244140625-.97998046875-5.43994140625-1.73974609375-10.8599853515625-2.2900390625-16.260009765625l5.68017578125-67.589965820313409.1396484375-1.7000732421875,6.150390625-73.2099609375.259765625-3.0699462890625c.6201171875-7.4100341796875,2.93017578125-7.0899658203125,6.6201171875-5.5699462890625,4.08984375,1.68994140625,9.8798828125,4.849853515625,16.9599609375.669921875l90.81982421875-53.6199951171875c12.330078125-7.2799072265625,26.17041015625-6.9599609375,37.39013671875-1.4200439453125,1.740234375.860107421875,3.419921875,1.85009765625,5.02001953125,2.9500732421875,6.30029296875,4.3399658203125,11.3798828125,10.47998046875,14.27978515625,17.9100341796875v.010009765625c.2001953125.510009765625.39013671875,1.02001953125.5703125,1.5399169921875,1.3701171875,3.989990234375,2.1201171875,8.3199462890625,2.1201171875,12.9100341796875Z"/>
    <path class="cls-5"
          d="M736.72998046875,404.587816389189356v173.900024414063409c0,22.8099365234375-16.2900390625,42.4100341796875-38.72998046875,46.4400634765625-48.3798828125,8.679931640625-112.509765625,32.989990234375-141.7998046875,68.8798828125,2.080078125-3.25,4.2998046875-6.469970703125,6.65966796875-9.659912109375,4.77001953125-6.449951171875,10.14013671875-12.81005859375,16.16015625-19.050048828125,0-.010009765625.01025390625-.010009765625.01025390625-.02001953125,1.3095703125-1.3599853515625,2.6396484375-2.7099609375,4.009765625-4.0499267578125-9.35009765625-17.6700439453125-15.7099609375-35.0899658203125-19.7099609375-52.2900390625-.7900390625-3.4000244140625-1.490234375-6.7799072265625-2.10009765625-10.1500244140625-.97998046875-5.43994140625-1.73974609375-10.8599853515625-2.2900390625-16.260009765625-.68994140625-6.639892578125-1.06005859375-13.25-1.15966796875-19.8399658203125h-.3203125l2.60986328125-42.180053710938409.14990234375-2.4599609375,3.400390625-55.030029296875c.44970703125-8.280029296875,3.02001953125-16.169921875,7.2900390625-22.989990234375,1.94970703125-3.119873046875,4.259765625-6.02001953125,6.8798828125-8.639892578125,2.81982421875-2.800048828125,6.009765625-5.280029296875,9.509765625-7.340087890625l90.05029296875-53.159912109375c14.2197265625-8.39013671875,30.4599609375-6.6900634765625,42.35986328125,1.489990234375,3.080078125,2.10986328125,5.8798828125,4.669921875,8.27001953125,7.5899658203125,2.72021484375,3.3299560546875,4.91015625,7.1199951171875,6.419921875,11.3199462890625v.010009765625c.51025390625,1.3800048828125.93017578125,2.81005859375,1.2802734375,4.280029296875.6796875,2.919921875,1.0498046875,6,1.0498046875,9.2099609375Z"/>
    <path class="cls-1"
          d="M728.419921875,396.937914045439356v174.479980468750909c0,21.919921875-15.10009765625,40.889892578125-36.4296875,45.9599609375-42.8701171875,10.199951171875-100.9501953125,36.070068359375-129.13037109375,66.77001953125,4.77001953125-6.449951171875,10.14013671875-12.81005859375,16.16015625-19.050048828125,0-.010009765625.01025390625-.010009765625.01025390625-.02001953125,1.3095703125-1.3599853515625,2.6396484375-2.7099609375,4.009765625-4.0499267578125-9.35009765625-17.6700439453125-15.7099609375-35.0899658203125-19.7099609375-52.2900390625-.7900390625-3.4000244140625-1.490234375-6.7799072265625-2.10009765625-10.1500244140625-.97998046875-5.43994140625-1.73974609375-10.8599853515625-2.2900390625-16.260009765625-.68994140625-6.639892578125-1.06005859375-13.25-1.15966796875-19.8399658203125h-8.740234375l.02978515625-13.8499755859375.01025390625-5.199951171875.2099609375-80.610107421875909c.0400390625-16.8399658203125,8.83984375-32.449951171875,23.240234375-41.18994140625l96.08984375-58.35009765625c17.97998046875-10.909912109375,39.3896484375-5.47998046875,51.08984375,8.89013671875,1.18994140625,1.4599609375,2.2802734375,3.010009765625,3.25,4.639892578125,1.93994140625,3.25,3.419921875,6.820068359375,4.35009765625,10.6700439453125.43994140625,1.8199462890625.75,3.7000732421875.93017578125,5.6300048828125.11962890625,1.25.1796875,2.530029296875.1796875,3.820068359375Z"/>
    <path class="cls-4"
          d="M720.3701171875,505.517870100126856v57.359985351563409c0,22.0400390625-14.1201171875,41.56005859375-35.01025390625,48.5999755859375-2.56005859375.8599853515625-5.07958984375,1.7301025390625-7.56982421875,2.6099853515625-10.240234375,3.610107421875-19.93017578125,7.35009765625-29.02001953125,11.199951171875-.85009765625.360107421875-1.68994140625.7200927734375-2.52001953125,1.080078125-1.8701171875.800048828125-3.7099609375,1.6099853515625-5.52001953125,2.419921875-1.02978515625.4500732421875-2.0400390625.91015625-3.0498046875,1.380126953125-1.02001953125.4599609375-2.02001953125.919921875-3.02001953125,1.389892578125-.990234375.4600830078125-1.97998046875.9300537109375-2.9599609375,1.400146484375-.6201171875.2899169921875-1.23046875.579833984375-1.830078125.8798828125-.7900390625.3701171875-1.5703125.75-2.33984375,1.1400146484375-.990234375.4801025390625-1.97021484375.9700927734375-2.9404296875,1.4600830078125-.9697265625.489990234375-1.9296875.97998046875-2.8798828125,1.469970703125-.60986328125.3099365234375-1.2099609375.6199951171875-1.81005859375.93994140625-.77001953125.3900146484375-1.52978515625.800048828125-2.27978515625,1.199951171875-.7802734375.41015625-1.5400390625.820068359375-2.30029296875,1.2301025390625-1.56982421875.8499755859375-3.10986328125,1.7099609375-4.6298828125,2.5699462890625-.759765625.4300537109375-1.509765625.860107421875-2.259765625,1.280029296875-.18017578125.1099853515625-.35009765625.2099609375-.5302734375.31005859375-.7998046875.469970703125-1.60009765625.93994140625-2.39013671875,1.409912109375-10.07958984375,5.969970703125-18.89990234375,12.06005859375-26.39990234375,18.1700439453125-.02978515625.0299072265625-.06005859375.0499267578125-.08984375.0799560546875,0-.010009765625.01025390625-.010009765625.01025390625-.02001953125,1.3095703125-1.3599853515625,2.6396484375-2.7099609375,4.009765625-4.0499267578125-9.35009765625-17.6700439453125-15.7099609375-35.0899658203125-19.7099609375-52.2900390625-.7900390625-3.4000244140625-1.490234375-6.7799072265625-2.10009765625-10.1500244140625-.97998046875-5.43994140625-1.73974609375-10.8599853515625-2.2900390625-16.260009765625-.68994140625-6.639892578125-1.06005859375-13.25-1.15966796875-19.8399658203125h-8.740234375l.02978515625-13.8499755859375c1.18017578125-10.330078125000909,5.01025390625-20.070068359375909,11-28.330078125000909,1.39013671875-1.93994140625,2.91015625-3.8099365234375,4.55029296875-5.5699462890625,2.18994140625-2.3800048828125,4.58984375-4.5899658203125,7.169921875-6.5999755859375h.009765625c2.0302734375-1.580078125,4.16015625-3.0400390625,6.41015625-4.3699951171875l1.02001953125-.5999755859375,65.31982421875-38.570068359375,2.0302734375-1.199951171875c32.60986328125-19.25,73.7900390625,4.260009765625,73.7900390625,42.1199951171875Z"/>
    <g>
        <circle class="cls-1" cx="663.194692848794148" cy="572.987435700455535" r="8.504299234237806"/>
        <circle class="cls-1" cx="638.545487046469134" cy="572.98743569934868" r="8.50429923423826"/>
        <circle class="cls-1" cx="613.89628124414412" cy="572.987435698240915" r="8.504299234237351"/>
    </g>
    <g>
        <path class="cls-5"
              d="M547.740234375,642.487840803252766c0,3.75-2.66015625,6.8699951171875-6.2001953125,7.5799560546875v-10.5499267578125h-3.080078125v81.9100341796875c-.0498046875-.130126953125-.06982421875-.27001953125-.06982421875-.4200439453125v-70.9500732421875c-3.5-.739990234375-6.13037109375-3.8399658203125-6.13037109375-7.5699462890625,0-4.27001953125,3.47021484375-7.739990234375,7.740234375-7.739990234375,4.2802734375,0,7.740234375,3.469970703125,7.740234375,7.739990234375Z"/>
        <path class="cls-4"
              d="M547.740234375,642.487840803252766c0,3.75-2.66015625,6.8699951171875-6.2001953125,7.5799560546875-.0703125.02001953125-.14013671875.030029296875-.2099609375.0400390625-.43017578125.080078125-.8798828125.1199951171875-1.330078125.1199951171875-.5302734375,0-1.0400390625-.0499267578125-1.5400390625-.1600341796875-.02001953125,0-.0498046875,0-.06982421875-.010009765625-3.5-.739990234375-6.13037109375-3.8399658203125-6.13037109375-7.5699462890625,0-4.27001953125,3.47021484375-7.739990234375,7.740234375-7.739990234375,4.2802734375,0,7.740234375,3.469970703125,7.740234375,7.739990234375Z"/>
        <path class="cls-4"
              d="M541.330078125,641.477831037627766v79.530029296875c0,.8199462890625-.66015625,1.47998046875-1.47021484375,1.47998046875-.669921875,0-1.22998046875-.4500732421875-1.39990234375-1.0599365234375-.0498046875-.130126953125-.06982421875-.27001953125-.06982421875-.4200439453125v-79.530029296875h2.93994140625Z"/>
    </g>
    <text class="cls-2" transform="translate(419.808376736111313 555.793014526367188) scale(1.111737370491028 1)">
        <tspan x="0" y="0">L</tspan>
    </text>
    <text class="cls-2" transform="translate(612.900173611111313 555.793014526367188) scale(1.111737370491028 1)">
        <tspan x="0" y="0">H</tspan>
    </text>
</svg>
