<svg width="252" height="215" viewBox="0 0 252 215" fill="none" xmlns="http://www.w3.org/2000/svg" class="hover:text-[#152553]">
    <mask id="mask0_72_238" style="mask-type:luminance" maskUnits="userSpaceOnUse" x="39" y="0" width="169"
          height="169">
        <path d="M39 0H208V169H39V0Z" fill="white"/>
    </mask>
    <g mask="url(#mask0_72_238)">
        <mask id="mask1_72_238" style="mask-type:luminance" maskUnits="userSpaceOnUse" x="27" y="-14" width="194"
              height="194">
            <path d="M54.5496 179.745L27.5309 13.9508L193.326 -13.0679L220.344 152.727L54.5496 179.745Z" fill="white"/>
        </mask>
        <g mask="url(#mask1_72_238)">
            <mask id="mask2_72_238" style="mask-type:luminance" maskUnits="userSpaceOnUse" x="27" y="-14" width="194"
                  height="194">
                <path d="M220.106 152.767L193.087 -13.0281L27.2922 13.9905L54.3109 179.785L220.106 152.767Z"
                      fill="white"/>
            </mask>
            <g mask="url(#mask2_72_238)">
                <mask id="mask3_72_238" style="mask-type:luminance" maskUnits="userSpaceOnUse" x="27" y="-14"
                      width="194" height="194">
                    <path d="M220.106 152.767L193.087 -13.0281L27.2922 13.9905L54.3109 179.785L220.106 152.767Z"
                          fill="white"/>
                </mask>
                <g mask="url(#mask3_72_238)">
                    <path d="M40.8055 96.8839C48.2501 142.61 91.4864 173.724 137.204 166.28C182.93 158.827 214.045 115.591 206.6 69.8732L200.587 70.8515C207.491 113.221 178.603 153.363 136.226 160.267C93.8566 167.171 53.7143 138.283 46.8105 95.9056C39.9067 53.5363 68.8025 13.394 111.172 6.49021L110.193 0.477219C64.4677 7.92983 33.3529 51.1661 40.8055 96.8839Z"
                          fill="black"/>
                </g>
            </g>
        </g>
    </g>
    <mask id="mask4_72_238" style="mask-type:luminance" maskUnits="userSpaceOnUse" x="189" y="40" width="19"
          height="20">
        <path d="M189.675 40.7229H208V59.0482H189.675V40.7229Z" fill="white"/>
    </mask>
    <g mask="url(#mask4_72_238)">
        <mask id="mask5_72_238" style="mask-type:luminance" maskUnits="userSpaceOnUse" x="189" y="39" width="20"
              height="20">
            <path d="M189.651 55.8826L192.578 39.7366L208.724 42.6636L205.797 58.8096L189.651 55.8826Z" fill="white"/>
        </mask>
        <g mask="url(#mask5_72_238)">
            <mask id="mask6_72_238" style="mask-type:luminance" maskUnits="userSpaceOnUse" x="190" y="41" width="18"
                  height="17">
                <path d="M191.114 47.8096C190.303 52.2716 193.262 56.5348 197.724 57.3461C202.178 58.1574 206.449 55.1986 207.26 50.7366C208.063 46.2825 205.105 42.0114 200.651 41.2001C196.189 40.3968 191.925 43.3555 191.114 47.8096Z"
                      fill="white"/>
            </mask>
            <g mask="url(#mask6_72_238)">
                <path d="M189.651 55.8826L192.578 39.7366L208.724 42.6636L205.797 58.8096L189.651 55.8826Z"
                      fill="black"/>
            </g>
        </g>
    </g>
    <mask id="mask7_72_238" style="mask-type:luminance" maskUnits="userSpaceOnUse" x="163" y="16" width="21"
          height="19">
        <path d="M163.205 16.2892H183.566V34.6145H163.205V16.2892Z" fill="white"/>
    </mask>
    <g mask="url(#mask7_72_238)">
        <mask id="mask8_72_238" style="mask-type:luminance" maskUnits="userSpaceOnUse" x="163" y="16" width="20"
              height="20">
            <path d="M163.849 32.9839L166.776 16.838L182.922 19.7649L179.995 35.9029L163.849 32.9839Z" fill="white"/>
        </mask>
        <g mask="url(#mask8_72_238)">
            <mask id="mask9_72_238" style="mask-type:luminance" maskUnits="userSpaceOnUse" x="165" y="18" width="17"
                  height="17">
                <path d="M165.312 24.9109C164.501 29.365 167.46 33.6361 171.922 34.4474C176.376 35.2507 180.647 32.292 181.458 27.8379C182.262 23.3759 179.303 19.1047 174.849 18.3014C170.387 17.4901 166.124 20.4489 165.312 24.9109Z"
                      fill="white"/>
            </mask>
            <g mask="url(#mask9_72_238)">
                <path d="M163.849 32.9839L166.776 16.8379L182.922 19.7648L179.995 35.9029L163.849 32.9839Z"
                      fill="black"/>
            </g>
        </g>
    </g>
    <mask id="mask10_72_238" style="mask-type:luminance" maskUnits="userSpaceOnUse" x="126" y="4" width="19"
          height="19">
        <path d="M126.554 4.07227H144.88V22.3976H126.554V4.07227Z" fill="white"/>
    </mask>
    <g mask="url(#mask10_72_238)">
        <mask id="mask11_72_238" style="mask-type:luminance" maskUnits="userSpaceOnUse" x="127" y="3" width="20"
              height="20">
            <path d="M127.103 19.5343L130.022 3.38828L146.168 6.31523L143.241 22.4612L127.103 19.5343Z" fill="white"/>
        </mask>
        <g mask="url(#mask11_72_238)">
            <mask id="mask12_72_238" style="mask-type:luminance" maskUnits="userSpaceOnUse" x="128" y="4" width="17"
                  height="18">
                <path d="M128.567 11.4613C127.755 15.9233 130.714 20.1865 135.168 20.9978C139.63 21.809 143.901 18.8503 144.705 14.3882C145.516 9.93417 142.557 5.66304 138.095 4.85177C133.641 4.04844 129.37 7.00722 128.567 11.4613Z"
                      fill="white"/>
            </mask>
            <g mask="url(#mask12_72_238)">
                <path d="M127.103 19.5343L130.022 3.38828L146.168 6.31523L143.241 22.4612L127.103 19.5343Z"
                      fill="black"/>
            </g>
        </g>
    </g>
    <mask id="mask13_72_238" style="mask-type:luminance" maskUnits="userSpaceOnUse" x="77" y="36" width="64"
          height="62">
        <path d="M77.9969 36.0382H140.807V97.7349H77.9969V36.0382Z" fill="white"/>
    </mask>
    <g mask="url(#mask13_72_238)">
        <path fill-rule="evenodd" clip-rule="evenodd"
              d="M140.64 75.6794L119.547 96.7646H119.34H78.0128C78.0128 96.7646 78.0128 96.7646 78.0128 96.5578V36.0382H100.363V75.4726L100.577 75.6794H140.64Z"
              fill="#142453"/>
    </g>
    <mask id="mask14_72_238" style="mask-type:luminance" maskUnits="userSpaceOnUse" x="140" y="36" width="24"
          height="101">
        <path d="M140.807 36.0382H163.515V136.827H140.807V36.0382Z" fill="white"/>
    </mask>
    <g mask="url(#mask14_72_238)">
        <path fill-rule="evenodd" clip-rule="evenodd"
              d="M141.062 36.0382H163.197C163.197 36.0382 163.412 36.0382 163.412 36.2529V136.827H163.197H141.062C140.847 136.827 140.847 136.827 140.847 136.827V36.2529C140.847 36.0382 140.847 36.0382 141.062 36.0382Z"
              fill="#142453"/>
    </g>
    <mask id="mask15_72_238" style="mask-type:luminance" maskUnits="userSpaceOnUse" x="77" y="95" width="26"
          height="42">
        <path d="M77.9969 95.6988H102.12V136.827H77.9969V95.6988Z" fill="white"/>
    </mask>
    <g mask="url(#mask15_72_238)">
        <path fill-rule="evenodd" clip-rule="evenodd"
              d="M78.0128 136.621V119.536C78.0128 119.329 78.0128 119.329 78.0128 119.329L100.156 96.9793C100.363 96.9793 100.363 97.1861 100.363 97.1861V136.621C100.363 136.827 100.363 136.827 100.156 136.827H78.2196C78.0128 136.827 78.0128 136.827 78.0128 136.621Z"
              fill="#142453"/>
    </g>
    <path d="M6.96352 186.483V204.941C6.96352 206.008 7.20091 206.753 7.67986 207.174C8.16714 207.586 9.06673 207.79 10.3786 207.79H15.2931V214.52H9.72893C6.38461 214.52 3.92322 213.817 2.34894 212.405C0.782979 210.985 0 208.736 0 205.658V186.483H6.96352Z"
          fill="#142453"/>
    <path d="M24.9487 189.632C24.9487 190.677 24.5905 191.547 23.8825 192.247C23.1828 192.939 22.3207 193.28 21.3003 193.28C20.2883 193.28 19.4262 192.939 18.7182 192.247C18.006 191.547 17.652 190.677 17.652 189.632C17.652 188.599 18.006 187.741 18.7182 187.05C19.4262 186.35 20.2883 186 21.3003 186C22.3207 186 23.1828 186.35 23.8825 187.05C24.5905 187.741 24.9487 188.599 24.9487 189.632ZM24.5155 195.046V214.52H18.1018V195.046H24.5155Z"
          fill="#142453"/>
    <path d="M34.6018 190.248V194.896H39.1331V200.743H34.5685V205.941C34.5685 206.966 34.785 207.674 35.2182 208.073C35.6596 208.473 36.5384 208.673 37.8503 208.673C38.0586 208.673 38.271 208.669 38.4834 208.656C38.7041 208.636 38.9498 208.615 39.2164 208.59V214.52H35.4514C34.3519 214.52 33.369 214.354 32.5027 214.021C31.6365 213.687 30.9035 213.217 30.3037 212.605C29.704 211.984 29.2292 211.247 28.8877 210.389C28.5545 209.535 28.3879 208.59 28.3879 207.557V190.248H34.6018Z"
          fill="#142453"/>
    <path d="M51.106 207.424L48.6571 203.575L53.9214 200.144C53.4632 199.877 53.0301 199.702 52.6219 199.611C52.2221 199.511 51.8223 199.461 51.4225 199.461C50.8103 199.461 50.2563 199.602 49.7566 199.877C49.2651 200.156 48.8403 200.527 48.4738 200.993C48.1157 201.46 47.8408 202.001 47.6409 202.609C47.441 203.209 47.341 203.825 47.341 204.458C47.341 205.158 47.4576 205.804 47.6908 206.391C47.9324 206.982 48.2573 207.503 48.6571 207.957C49.0652 208.402 49.5275 208.752 50.0398 209.006C50.5604 209.264 51.106 209.389 51.6724 209.389C52.7927 209.389 53.888 208.985 54.9542 208.173C56.0204 207.353 56.8367 206.303 57.4031 205.025L62.001 207.39C61.5221 208.536 60.9057 209.581 60.1519 210.522C59.4064 211.455 58.5693 212.255 57.6363 212.921C56.7034 213.588 55.6914 214.104 54.6044 214.47C53.5257 214.824 52.397 215.004 51.2226 215.004C49.8649 215.004 48.5779 214.729 47.3577 214.187C46.1457 213.633 45.0795 212.884 44.1591 211.938C43.2345 210.997 42.5099 209.906 41.9768 208.673C41.4437 207.44 41.1771 206.149 41.1771 204.792C41.1771 203.425 41.4437 202.134 41.9768 200.91C42.5099 199.677 43.2345 198.594 44.1591 197.661C45.0795 196.72 46.1457 195.971 47.3577 195.412C48.5779 194.846 49.8649 194.563 51.2226 194.563C53.4632 194.563 55.354 195.125 56.8867 196.245C58.4277 197.37 59.7229 198.878 60.7683 200.777L51.106 207.424Z"
          fill="#142453"/>
    <path d="M69.5292 195.046V198.294H69.6125C70.0124 197.12 70.6162 196.287 71.4284 195.796C72.2488 195.296 73.5149 195.046 75.2267 195.046V200.893C74.1813 200.985 73.3442 201.089 72.7111 201.21C72.0864 201.322 71.5991 201.526 71.2451 201.826C70.8995 202.118 70.6662 202.526 70.5454 203.059C70.433 203.592 70.3789 204.304 70.3789 205.191V214.52H63.9651V195.046H69.5292Z"
          fill="#142453"/>
    <path d="M98.661 214.52H92.2472V205.391C92.2472 203.784 91.8682 202.551 91.1144 201.693C90.3689 200.839 89.2361 200.41 87.7159 200.41C87.1245 200.41 86.5665 200.527 86.0334 200.76C85.5003 200.985 85.0338 201.285 84.634 201.66C84.2342 202.039 83.9093 202.488 83.6678 203.009C83.4346 203.521 83.3179 204.071 83.3179 204.658C83.3179 206.024 83.7219 207.12 84.5341 207.94C85.342 208.752 86.3666 209.156 87.5993 209.156C88.1866 209.156 88.7322 209.102 89.2319 208.99C89.74 208.881 90.2148 208.748 90.648 208.59V213.887C90.0357 214.312 89.3819 214.595 88.6822 214.754C87.9825 214.92 87.1912 215.004 86.3166 215.004C85.1171 215.004 83.9427 214.758 82.8015 214.271C81.6687 213.771 80.6691 213.079 79.8029 212.188C78.9366 211.289 78.2369 210.218 77.7038 208.973C77.1707 207.732 76.9042 206.349 76.9042 204.825C76.9042 203.384 77.1707 202.039 77.7038 200.793C78.2369 199.552 78.9699 198.474 79.9028 197.561C80.8357 196.641 81.9561 195.912 83.268 195.379C84.5757 194.838 86.0209 194.563 87.5993 194.563C89.2861 194.563 90.8062 194.796 92.1639 195.262C93.53 195.729 94.6878 196.379 95.6457 197.212C96.6119 198.045 97.3533 199.027 97.878 200.16C98.3986 201.293 98.661 202.526 98.661 203.859V214.52Z"
          fill="#142453"/>
    <path d="M113.84 195.046V200.26H108.742C108.451 200.26 108.176 200.352 107.909 200.527C107.643 200.693 107.509 200.91 107.509 201.176C107.509 201.61 108.309 202.143 109.908 202.776C111.508 203.421 112.757 204.188 113.657 205.075C114.556 205.953 115.006 207.057 115.006 208.39C115.006 210.422 114.415 211.955 113.24 212.988C112.062 214.012 110.475 214.52 108.476 214.52H101.146V209.073H107.393C107.68 209.073 107.926 209.002 108.126 208.856C108.326 208.702 108.426 208.481 108.426 208.19C108.426 207.848 108.226 207.582 107.826 207.39C107.426 207.203 106.835 206.949 106.06 206.624C105.315 206.303 104.648 205.97 104.061 205.624C103.47 205.283 102.978 204.875 102.578 204.408C102.178 203.942 101.87 203.405 101.662 202.792C101.45 202.172 101.346 201.435 101.346 200.577C101.346 199.723 101.512 198.957 101.845 198.278C102.178 197.591 102.628 197.008 103.195 196.529C103.769 196.054 104.427 195.687 105.16 195.429C105.893 195.175 106.66 195.046 107.459 195.046H113.84Z"
          fill="#142453"/>
    <path d="M125.091 189.632C125.091 190.677 124.732 191.547 124.024 192.247C123.325 192.939 122.463 193.28 121.442 193.28C120.43 193.28 119.568 192.939 118.86 192.247C118.148 191.547 117.794 190.677 117.794 189.632C117.794 188.599 118.148 187.741 118.86 187.05C119.568 186.35 120.43 186 121.442 186C122.463 186 123.325 186.35 124.024 187.05C124.732 187.741 125.091 188.599 125.091 189.632ZM124.657 195.046V214.52H118.244V195.046H124.657Z"
          fill="#142453"/>
    <path d="M147.616 186.483V196.295H153.13V186.483H160.11V214.52H153.13V203.026H147.616V214.52H140.635V186.483H147.616Z"
          fill="#142453"/>
    <path d="M170.441 195.046V206.307C170.441 207.053 170.624 207.674 170.991 208.173C171.366 208.665 171.916 208.906 172.64 208.906C173.361 208.906 173.91 208.665 174.289 208.173C174.664 207.674 174.856 207.053 174.856 206.307V195.046H181.02V206.341C181.02 207.599 180.828 208.752 180.453 209.806C180.087 210.864 179.545 211.772 178.837 212.538C178.125 213.296 177.246 213.896 176.205 214.337C175.16 214.779 173.973 215.004 172.64 215.004C171.307 215.004 170.116 214.791 169.075 214.37C168.03 213.937 167.151 213.333 166.443 212.555C165.743 211.78 165.202 210.864 164.827 209.806C164.461 208.752 164.277 207.599 164.277 206.341V195.046H170.441Z"
          fill="#142453"/>
    <path d="M190.669 186.483V201.027H190.953C191.373 201.027 191.744 200.956 192.069 200.81C192.389 200.656 192.693 200.373 192.985 199.96C193.285 199.552 193.585 198.952 193.885 198.161C194.193 197.374 194.568 196.337 195.001 195.046H201.564L199.765 200.177C199.153 201.968 198.324 202.984 197.283 203.226V203.309C198.024 203.575 198.666 203.871 199.199 204.192C199.732 204.504 200.157 204.887 200.482 205.341C200.802 205.799 201.036 206.337 201.181 206.957C201.335 207.569 201.415 208.286 201.415 209.106V214.52H195.234V209.439C195.234 208.606 195.009 207.973 194.568 207.54C194.134 207.099 193.526 206.874 192.752 206.874H190.669V214.52H184.256V186.483H190.669Z"
          fill="#142453"/>
    <path d="M210.498 195.046V206.307C210.498 207.053 210.681 207.674 211.048 208.173C211.423 208.665 211.972 208.906 212.697 208.906C213.417 208.906 213.967 208.665 214.346 208.173C214.721 207.674 214.913 207.053 214.913 206.307V195.046H221.077V206.341C221.077 207.599 220.885 208.752 220.51 209.806C220.144 210.864 219.602 211.772 218.894 212.538C218.182 213.296 217.303 213.896 216.262 214.337C215.217 214.779 214.03 215.004 212.697 215.004C211.364 215.004 210.173 214.791 209.132 214.37C208.087 213.937 207.208 213.333 206.5 212.555C205.8 211.78 205.259 210.864 204.884 209.806C204.517 208.752 204.334 207.599 204.334 206.341V195.046H210.498Z"
          fill="#142453"/>
    <path d="M238.306 197.295C238.993 196.52 239.83 195.871 240.822 195.346C241.809 194.825 242.808 194.563 243.82 194.563C244.974 194.563 246.053 194.759 247.052 195.146C248.052 195.537 248.918 196.062 249.651 196.728C250.384 197.395 250.955 198.17 251.367 199.044C251.788 199.91 252 200.839 252 201.826V214.52H245.586V202.909C245.586 202.343 245.436 201.843 245.136 201.41C244.845 200.968 244.32 200.743 243.554 200.743C242.775 200.743 242.238 200.968 241.938 201.41C241.646 201.843 241.505 202.343 241.505 202.909V214.52H235.091V202.909C235.091 202.343 234.941 201.843 234.641 201.41C234.35 200.968 233.817 200.743 233.042 200.743C232.276 200.743 231.742 200.968 231.443 201.41C231.151 201.843 231.009 202.343 231.009 202.909V214.52H224.596V201.826C224.596 200.839 224.8 199.91 225.212 199.044C225.633 198.17 226.199 197.395 226.911 196.728C227.632 196.062 228.494 195.537 229.493 195.146C230.501 194.759 231.597 194.563 232.775 194.563C233.783 194.563 234.783 194.825 235.774 195.346C236.761 195.871 237.606 196.52 238.306 197.295Z"
          fill="#142453"/>
</svg>
