<svg width="300" height="300" viewBox="0 0 300 300" fill="none" xmlns="http://www.w3.org/2000/svg">
<rect width="300" height="300" rx="49" fill="url(#paint0_linear_80_57)"/>
<path d="M44.5386 138.105H46.8361V156.371H58.3124V158.498H44.5386V138.105Z" fill="white"/>
<path d="M60.4919 138.105H62.8009V158.498H60.4919V138.105Z" fill="white"/>
<path d="M71.9203 140.232H65.0391V138.105H81.0877V140.232H74.2178V158.498H71.9203V140.232Z" fill="white"/>
<path d="M83.1375 138.105H97.8667V140.209H85.435V147.17H96.5587V149.263H85.435V156.406H98.0146V158.498H83.1375V138.105Z" fill="white"/>
<path d="M100.5 138.105H109.258C110.523 138.105 111.646 138.287 112.624 138.651C113.608 139.009 114.421 139.51 115.058 140.152C115.565 140.653 115.951 141.244 116.219 141.927C116.492 142.603 116.628 143.348 116.628 144.167V144.224C116.628 145.083 116.492 145.848 116.219 146.522C115.951 147.19 115.57 147.77 115.07 148.262C114.575 148.757 113.989 149.166 113.307 149.49C112.63 149.809 111.896 150.036 111.1 150.173L117.356 158.498H114.535L108.621 150.571H102.797V158.498H100.5V138.105ZM109.053 148.512C109.809 148.512 110.509 148.415 111.146 148.216C111.788 148.02 112.343 147.744 112.806 147.386C113.276 147.031 113.64 146.596 113.898 146.078C114.163 145.563 114.296 144.975 114.296 144.315V144.258C114.296 142.993 113.841 142.006 112.931 141.301C112.022 140.59 110.739 140.232 109.087 140.232H102.797V148.512H109.053Z" fill="white"/>
<path d="M126.947 137.957H129.096L138.389 158.498H135.921L133.532 153.107H122.431L120.009 158.498H117.654L126.947 137.957ZM132.622 151.037L127.993 140.641L123.33 151.037H132.622Z" fill="white"/>
<path d="M147.248 158.794C145.615 158.794 144.125 158.527 142.778 157.998C141.427 157.46 140.142 156.639 138.922 155.53L140.344 153.835C141.413 154.808 142.488 155.53 143.574 156.007C144.666 156.485 145.92 156.724 147.339 156.724C148.718 156.724 149.818 156.4 150.637 155.746C151.462 155.095 151.877 154.264 151.877 153.255V153.198C151.877 152.729 151.797 152.308 151.638 151.936C151.484 151.557 151.217 151.213 150.83 150.901C150.444 150.591 149.903 150.309 149.215 150.059C148.524 149.803 147.646 149.556 146.577 149.32C145.416 149.069 144.404 148.782 143.54 148.455C142.675 148.122 141.959 147.724 141.39 147.261C140.827 146.792 140.412 146.246 140.139 145.623C139.866 145.003 139.729 144.275 139.729 143.439V143.382C139.729 142.586 139.894 141.853 140.23 141.176C140.563 140.493 141.029 139.908 141.629 139.413C142.226 138.912 142.931 138.523 143.744 138.241C144.563 137.963 145.456 137.821 146.429 137.821C147.93 137.821 149.238 138.031 150.353 138.446C151.467 138.864 152.548 139.49 153.594 140.323L152.264 142.097C151.308 141.324 150.347 140.764 149.386 140.414C148.43 140.067 147.424 139.891 146.372 139.891C145.035 139.891 143.978 140.206 143.198 140.835C142.425 141.466 142.038 142.245 142.038 143.178V143.235C142.038 143.721 142.112 144.153 142.266 144.531C142.425 144.912 142.704 145.259 143.107 145.578C143.517 145.896 144.08 146.189 144.802 146.453C145.522 146.721 146.443 146.965 147.566 147.193C149.841 147.702 151.516 148.404 152.593 149.297C153.668 150.193 154.208 151.412 154.208 152.959V153.027C154.208 153.9 154.032 154.694 153.685 155.405C153.336 156.11 152.855 156.718 152.241 157.224C151.632 157.725 150.901 158.112 150.046 158.385C149.187 158.658 148.254 158.794 147.248 158.794Z" fill="white"/>
<path d="M156.946 138.105H159.254V158.498H156.946V138.105Z" fill="white"/>
<path d="M169.22 138.105H173.712V146.18H181.981V138.105H186.463V158.498H181.981V150.309H173.712V158.498H169.22V138.105Z" fill="white"/>
<path d="M197.711 158.817C194.973 158.817 192.815 158.063 191.24 156.553C189.67 155.038 188.885 152.774 188.885 149.763V138.105H193.367V149.638C193.367 151.316 193.753 152.578 194.527 153.426C195.306 154.267 196.386 154.688 197.768 154.688C199.147 154.688 200.225 154.279 200.999 153.46C201.778 152.641 202.17 151.418 202.17 149.786V138.105H206.651V149.615C206.651 151.171 206.441 152.521 206.026 153.664C205.608 154.81 205.008 155.766 204.229 156.531C203.455 157.298 202.514 157.87 201.408 158.248C200.299 158.626 199.068 158.817 197.711 158.817Z" fill="white"/>
<path d="M209.071 138.105H213.564V147.022L221.776 138.105H227.281L218.944 146.76L227.622 158.498H222.242L215.918 149.82L213.564 152.265V158.498H209.071V138.105Z" fill="white"/>
<path d="M236.689 158.817C233.951 158.817 231.793 158.063 230.217 156.553C228.648 155.038 227.863 152.774 227.863 149.763V138.105H232.344V149.638C232.344 151.316 232.731 152.578 233.505 153.426C234.284 154.267 235.364 154.688 236.746 154.688C238.125 154.688 239.203 154.279 239.976 153.46C240.755 152.641 241.148 151.418 241.148 149.786V138.105H245.629V149.615C245.629 151.171 245.419 152.521 245.004 153.664C244.586 154.81 243.986 155.766 243.206 156.531C242.433 157.298 241.492 157.87 240.386 158.248C239.277 158.626 238.046 158.817 236.689 158.817Z" fill="white"/>
<path d="M248.049 138.105H252.883L258.24 146.726L263.609 138.105H268.443V158.498H263.984V145.191L258.24 153.892H258.126L252.451 145.27V158.498H248.049V138.105Z" fill="white"/>
<path d="M31.2 126.6H112" stroke="white" stroke-width="2"/>
<path d="M31.2 171.066H112" stroke="white" stroke-width="2"/>
<path d="M31.7034 171.573V126.802" stroke="white" stroke-width="1.9909"/>
<path d="M115.821 168.545H120.45V173.834H115.821V168.545Z" fill="white"/>
<path d="M124.376 168.545H129.005V173.834H124.376V168.545Z" fill="white"/>
<path d="M132.931 168.545H137.56V173.834H132.931V168.545Z" fill="white"/>
<defs>
<linearGradient id="paint0_linear_80_57" x1="0" y1="0" x2="150" y2="158.7" gradientUnits="userSpaceOnUse">
<stop stop-color="#142453"/>
<stop offset="1" stop-color="#2D50B9"/>
</linearGradient>
</defs>
</svg>
