<svg width="205" height="170" viewBox="0 0 205 170" fill="none" xmlns="http://www.w3.org/2000/svg">
    <path d="M94.9543 156.641C95.4062 157.349 95.844 158.057 96.268 158.77C82.7742 142.756 49.5454 132.108 25.4364 128.168C14.8166 126.431 7.03796 117.236 7.03796 106.472V25.4438C7.03796 23.3058 7.3873 21.289 8.02548 19.4305C8.1094 19.1883 8.19787 18.9508 8.29112 18.7132C9.64184 15.2524 12.0078 12.3878 14.9424 10.3664C15.6877 9.85401 16.4701 9.39289 17.2806 8.99226C22.5066 6.41185 28.9531 6.26283 34.6963 9.6537L76.9985 34.6291C80.2963 36.576 82.9932 35.1042 84.8982 34.317C86.6169 33.609 87.6929 33.4599 87.9862 36.9114L88.1075 38.346L90.972 72.4461L91.0373 73.2333L93.6782 104.702C93.4267 107.222 93.0726 109.751 92.6115 112.289C92.3275 113.859 92.0013 115.433 91.6334 117.017C89.7702 125.029 86.8079 133.142 82.4528 141.373C83.091 141.997 83.7105 142.626 84.3205 143.259C84.3205 143.264 84.3253 143.264 84.3253 143.269C87.1293 146.175 89.6306 149.138 91.8524 152.142C92.9516 153.628 93.9855 155.127 94.9543 156.641Z"
          fill="#2B3990"/>
    <path d="M94.9544 156.641C81.3116 139.924 51.441 128.601 28.9066 124.558C18.4544 122.681 10.8668 113.552 10.8668 102.927V21.9271C10.8668 20.432 11.0392 18.9973 11.3558 17.6373C11.5189 16.9526 11.7145 16.2865 11.9521 15.6437C12.6554 13.6874 13.6754 11.9174 14.9424 10.3664C16.0557 9.00625 17.3598 7.81382 18.7944 6.83108C24.3372 3.02093 31.9016 2.22907 38.5249 6.13706L80.4687 30.8981C82.099 31.8577 83.5848 33.0128 84.8982 34.317C86.1231 35.5373 87.1991 36.8882 88.1075 38.346C90.0964 41.518 91.2888 45.193 91.4983 49.0497L93.0821 74.6819L93.152 75.8277L94.3676 95.4745H94.2184C94.172 98.5393 93.9996 101.614 93.6782 104.702C93.4267 107.222 93.0726 109.751 92.6116 112.289C92.3275 113.859 92.0014 115.433 91.6334 117.017C89.7703 125.029 86.8079 133.142 82.4528 141.373C83.091 141.997 83.7105 142.626 84.3205 143.259C84.3205 143.264 84.3253 143.264 84.3253 143.269C87.1293 146.175 89.6306 149.138 91.8524 152.142C92.9516 153.628 93.9855 155.127 94.9544 156.641Z"
          fill="white"/>
    <path d="M98.2898 95.4755H94.2188C94.1722 98.5404 94 101.615 93.6786 104.703C93.4271 107.223 93.073 109.752 92.612 112.29C92.3277 113.86 92.0018 115.434 91.6338 117.018C89.7706 125.03 86.8083 133.143 82.4532 141.374C83.0912 141.998 83.7107 142.627 84.3209 143.26C84.3209 143.265 84.3257 143.265 84.3257 143.27C87.1297 146.176 89.6308 149.139 91.8528 152.143C78.7315 137.843 51.6791 125.793 31.7062 121.042C21.771 118.681 14.7377 109.845 14.7377 99.635V18.3649C14.7377 17.764 14.7659 17.1678 14.8216 16.5856C14.9055 15.6866 15.0499 14.8156 15.2549 13.9679C15.6879 12.1746 16.3775 10.5071 17.2811 8.99332C17.7327 8.23409 18.2406 7.51213 18.7948 6.83207C24.2444 0.138753 34.2168 -2.39045 42.5916 2.69124L87.3485 29.8698C94.0557 33.9407 98.1547 41.2116 98.1734 49.0554L98.2712 86.6023L98.2757 89.0244L98.2898 95.4755Z"
          fill="#2B3990"/>
    <path d="M98.2899 95.4755H94.2188C94.1722 98.5403 94.0001 101.615 93.6787 104.703C93.4272 107.223 93.073 109.752 92.612 112.29C92.3277 113.86 92.0018 115.434 91.6338 117.018C89.7707 125.029 86.8084 133.143 82.4533 141.374C83.0913 141.998 83.7108 142.627 84.321 143.26C84.3117 143.251 84.2978 143.242 84.2839 143.232C83.4315 142.538 82.5418 141.844 81.6148 141.155C81.2934 140.908 80.972 140.671 80.6459 140.438C80.32 140.2 79.9893 139.963 79.6538 139.725C79.0298 139.282 78.387 138.84 77.7302 138.393C77.6836 138.365 77.637 138.332 77.5906 138.3C77.2365 138.062 76.8826 137.825 76.5191 137.592C76.1605 137.35 75.7925 137.117 75.4245 136.884C75.0565 136.641 74.684 136.409 74.3067 136.176C73.9248 135.938 73.5427 135.705 73.1609 135.472C72.7742 135.235 72.3831 134.997 71.9871 134.769C71.6191 134.545 71.2466 134.331 70.874 134.112C70.7901 134.066 70.711 134.019 70.627 133.968C70.2777 133.772 69.9284 133.572 69.5745 133.372C69.1644 133.134 68.7453 132.906 68.3261 132.673C67.9581 132.473 67.5856 132.268 67.2128 132.063C66.3092 131.574 65.387 131.089 64.4416 130.605C63.999 130.377 63.5518 130.148 63.0999 129.92C62.6483 129.692 62.1918 129.464 61.7306 129.24C61.3301 129.04 60.9295 128.844 60.5243 128.653C59.3785 128.094 58.2047 127.545 57.0029 127C56.5326 126.781 56.062 126.567 55.5824 126.357C55.1073 126.143 54.6228 125.928 54.1336 125.714C53.3372 125.365 52.5268 125.02 51.7069 124.671C47.5103 122.901 43.0436 121.173 38.3205 119.51C26.4057 115.248 18.4874 103.897 18.4874 91.2322V70.039C18.4874 51.9153 38.1947 40.6666 53.8029 49.8798L84.228 67.8451L84.7031 68.1246L86.9526 69.4521C87.1903 69.5918 87.428 69.7362 87.6608 69.8853C88.8485 70.6445 89.957 71.5062 90.9725 72.4471C91.7316 73.1458 92.4351 73.8957 93.0824 74.6828C95.8818 78.0598 97.6983 82.1866 98.2712 86.6023L98.2758 89.0244L98.2899 95.4755Z"
          fill="#E6E7E8"/>
    <path d="M97.8795 161.602C84.111 143.846 44.7431 138.233 20.1264 136.645C9.05478 135.933 0 126.277 0 115.182V34.5918C0 28.4388 2.90181 23.2965 7.1871 20.0314C7.46184 19.8264 7.74135 19.6215 8.02542 19.4305C9.07343 18.7226 10.1867 18.1217 11.3557 17.6372C12.469 17.1761 13.6289 16.8221 14.8211 16.5846C18.9806 15.7508 23.5033 16.3517 27.6581 18.8017L69.9651 43.7771C76.2438 47.4848 80.3381 38.7931 80.9483 46.0594L84.2274 67.8442L91.6333 117.017C89.7702 125.029 86.8079 133.142 82.4527 141.373C83.0909 141.997 83.7104 142.626 84.3204 143.259C84.3204 143.264 84.3252 143.264 84.3252 143.269C87.1292 146.175 89.6305 149.138 91.8523 152.142C92.9515 153.628 93.9854 155.127 94.9543 156.641C95.4062 157.349 95.844 158.057 96.2679 158.77C96.7896 159.641 97.288 160.517 97.7676 161.392C97.8049 161.462 97.8422 161.532 97.8795 161.602Z"
          fill="#142453"/>
    <path d="M96.268 158.77C96.7897 159.641 97.288 160.517 97.7677 161.392C84.5488 143.292 47.7427 135.034 23.2193 133.101C12.3806 132.248 3.51685 122.62 3.51685 111.744V31.0751C3.51685 26.8132 4.90942 23.0357 7.18715 20.0314C7.53649 19.5749 7.90448 19.1324 8.29111 18.7132C9.37619 17.5301 10.6105 16.5008 11.9521 15.6437C12.9908 14.973 14.0993 14.4094 15.2544 13.9669C20.1824 12.0432 25.9722 12.2109 31.1795 15.285L73.4819 40.2604C79.7607 43.9681 83.8547 35.2718 84.4651 42.5427L87.6603 69.8843L87.6928 70.1591L92.6115 112.289C92.3275 113.859 92.0013 115.433 91.6333 117.017C89.7702 125.029 86.8079 133.142 82.4528 141.373C83.091 141.997 83.7105 142.626 84.3205 143.259C84.3205 143.264 84.3253 143.264 84.3253 143.269C87.1293 146.175 89.6306 149.138 91.8524 152.142C92.9515 153.628 93.9855 155.127 94.9543 156.641C95.4062 157.349 95.844 158.057 96.268 158.77Z"
          fill="white"/>
    <path d="M94.9543 156.641C95.4062 157.349 95.844 158.057 96.268 158.77C82.7742 142.756 49.5454 132.108 25.4364 128.168C14.8166 126.431 7.03796 117.236 7.03796 106.472V25.4438C7.03796 23.3058 7.3873 21.289 8.02548 19.4305C8.1094 19.1883 8.19787 18.9508 8.29112 18.7132C9.64184 15.2524 12.0078 12.3878 14.9424 10.3664C15.6877 9.85401 16.4701 9.39289 17.2806 8.99226C22.5066 6.41185 28.9531 6.26283 34.6963 9.6537L76.9985 34.6291C80.2963 36.576 82.9932 35.1042 84.8982 34.317C86.6169 33.609 87.6929 33.4599 87.9862 36.9114L88.1075 38.346L90.972 72.4461L91.0373 73.2333L93.6782 104.702C93.4267 107.222 93.0726 109.751 92.6115 112.289C92.3275 113.859 92.0013 115.433 91.6334 117.017C89.7702 125.029 86.8079 133.142 82.4528 141.373C83.091 141.997 83.7105 142.626 84.3205 143.259C84.3205 143.264 84.3253 143.264 84.3253 143.269C87.1293 146.175 89.6306 149.138 91.8524 152.142C92.9516 153.628 93.9855 155.127 94.9543 156.641Z"
          fill="#142453"/>
    <path d="M94.9544 156.641C81.3116 139.924 51.441 128.601 28.9066 124.558C18.4544 122.681 10.8668 113.552 10.8668 102.927V21.9271C10.8668 20.432 11.0392 18.9973 11.3558 17.6373C11.5189 16.9526 11.7145 16.2865 11.9521 15.6437C12.6554 13.6874 13.6754 11.9174 14.9424 10.3664C16.0557 9.00625 17.3598 7.81382 18.7944 6.83108C24.3372 3.02093 31.9016 2.22907 38.5249 6.13706L80.4687 30.8981C82.099 31.8577 83.5848 33.0128 84.8982 34.317C86.1231 35.5373 87.1991 36.8882 88.1075 38.346C90.0964 41.518 91.2888 45.193 91.4983 49.0497L93.0821 74.6819L93.152 75.8277L94.3676 95.4745H94.2184C94.172 98.5393 93.9996 101.614 93.6782 104.702C93.4267 107.222 93.0726 109.751 92.6116 112.289C92.3275 113.859 92.0014 115.433 91.6334 117.017C89.7703 125.029 86.8079 133.142 82.4528 141.373C83.091 141.997 83.7105 142.626 84.3205 143.259C84.3205 143.264 84.3253 143.264 84.3253 143.269C87.1293 146.175 89.6306 149.138 91.8524 152.142C92.9516 153.628 93.9855 155.127 94.9544 156.641Z"
          fill="white"/>
    <path d="M98.2898 95.4755H94.2188C94.1722 98.5404 94 101.615 93.6786 104.703C93.4271 107.223 93.073 109.752 92.612 112.29C92.3277 113.86 92.0018 115.434 91.6338 117.018C89.7706 125.03 86.8083 133.143 82.4532 141.374C83.0912 141.998 83.7107 142.627 84.3209 143.26C84.3209 143.265 84.3257 143.265 84.3257 143.27C87.1297 146.176 89.6308 149.139 91.8528 152.143C78.7315 137.843 51.6791 125.793 31.7062 121.042C21.771 118.681 14.7377 109.845 14.7377 99.635V18.3649C14.7377 17.764 14.7659 17.1678 14.8216 16.5856C14.9055 15.6866 15.0499 14.8156 15.2549 13.9679C15.6879 12.1746 16.3775 10.5071 17.2811 8.99332C17.7327 8.23409 18.2406 7.51213 18.7948 6.83207C24.2444 0.138753 34.2168 -2.39045 42.5916 2.69124L87.3485 29.8698C94.0557 33.9407 98.1547 41.2116 98.1734 49.0554L98.2712 86.6023L98.2757 89.0244L98.2898 95.4755Z"
          fill="#142453"/>
    <path d="M98.2899 95.4755H94.2188C94.1722 98.5403 94.0001 101.615 93.6787 104.703C93.4272 107.223 93.073 109.752 92.612 112.29C92.3277 113.86 92.0018 115.434 91.6338 117.018C89.7707 125.03 86.8084 133.143 82.4533 141.374C83.0913 141.998 83.7108 142.627 84.321 143.26C84.321 143.265 84.3258 143.265 84.3258 143.27C84.3117 143.256 84.2978 143.246 84.2839 143.232C83.4315 142.538 82.5418 141.844 81.6148 141.155C81.2934 140.908 80.972 140.671 80.6459 140.438C80.32 140.2 79.9893 139.963 79.6538 139.725C79.0298 139.282 78.387 138.84 77.7302 138.393C77.6836 138.365 77.637 138.332 77.5906 138.3C77.2365 138.062 76.8826 137.825 76.5191 137.592C76.1605 137.35 75.7925 137.117 75.4245 136.884C75.0565 136.646 74.684 136.409 74.3067 136.176C73.9248 135.938 73.5427 135.705 73.1609 135.472C72.7742 135.235 72.3831 135.002 71.9871 134.769C71.6191 134.55 71.2466 134.331 70.874 134.112C70.7901 134.066 70.711 134.019 70.627 133.968C70.2777 133.772 69.9284 133.572 69.5745 133.372C69.1644 133.134 68.7453 132.906 68.3261 132.673C67.9581 132.473 67.5856 132.268 67.2128 132.063C66.3092 131.574 65.387 131.089 64.4416 130.605C63.999 130.377 63.5518 130.148 63.0999 129.92C62.6483 129.692 62.1918 129.464 61.7306 129.24C61.3346 129.04 60.9295 128.844 60.5243 128.653C59.3785 128.094 58.2047 127.545 57.0029 127C56.5326 126.781 56.062 126.567 55.5824 126.357C55.1073 126.143 54.6228 125.928 54.1336 125.714C53.3372 125.365 52.5268 125.02 51.7069 124.671C47.5103 122.901 43.0436 121.173 38.3205 119.51C37.1606 119.1 35.9868 118.695 34.7946 118.294C25.0689 115.015 18.4874 105.923 18.4874 95.6571V68.9397C18.4874 51.3051 37.6684 40.3545 52.8575 49.3209L53.8029 49.8798L84.228 67.8451L84.7031 68.1246C85.7511 68.7441 86.7477 69.4242 87.6934 70.1601C88.8951 71.0963 90.0129 72.1257 91.0377 73.2343C91.7969 74.0541 92.5049 74.9251 93.1522 75.8287C95.9423 79.6761 97.7263 84.2128 98.2758 89.0244L98.2899 95.4755Z"
          fill="#D1D3D4"/>
    <path d="M45.1183 104.326C47.3059 104.326 49.0794 102.553 49.0794 100.365C49.0794 98.1773 47.3059 96.4039 45.1183 96.4039C42.9306 96.4039 41.1571 98.1773 41.1571 100.365C41.1571 102.553 42.9306 104.326 45.1183 104.326Z"
          fill="#142453"/>
    <path d="M56.5995 104.326C58.7871 104.326 60.5606 102.553 60.5606 100.365C60.5606 98.1773 58.7871 96.4039 56.5995 96.4039C54.4118 96.4039 52.6383 98.1773 52.6383 100.365C52.6383 102.553 54.4118 104.326 56.5995 104.326Z"
          fill="#142453"/>
    <path d="M68.0805 104.326C70.2682 104.326 72.0417 102.553 72.0417 100.365C72.0417 98.1773 70.2682 96.4039 68.0805 96.4039C65.8929 96.4039 64.1194 98.1773 64.1194 100.365C64.1194 102.553 65.8929 104.326 68.0805 104.326Z"
          fill="#142453"/>
    <path d="M197.962 25.4438V106.472C197.962 117.236 190.184 126.431 179.564 128.168C155.455 132.108 122.226 142.756 108.732 158.77C109.156 158.057 109.594 157.349 110.046 156.641C111.015 155.127 112.049 153.628 113.148 152.142C115.37 149.138 117.871 146.175 120.675 143.269C120.675 143.264 120.68 143.264 120.68 143.259C121.29 142.626 121.909 141.997 122.547 141.373C118.192 133.142 115.23 125.029 113.367 117.017C112.999 115.433 112.673 113.859 112.389 112.289C111.932 109.755 111.578 107.231 111.322 104.716L113.968 73.2333L114.033 72.4414L116.897 38.3413L117.018 36.9114C117.307 33.4599 118.383 33.609 120.102 34.317C122.007 35.1042 124.704 36.576 128.002 34.6291L170.304 9.6537C176.047 6.26283 182.494 6.41185 187.72 8.99226C188.53 9.39289 189.312 9.85401 190.058 10.3664C192.992 12.3878 195.358 15.2478 196.709 18.7086V18.7132C196.802 18.9508 196.891 19.1883 196.975 19.4305C197.613 21.289 197.962 23.3058 197.962 25.4438Z"
          fill="#2B3990"/>
    <path d="M194.133 21.9271V102.927C194.133 113.552 186.546 122.681 176.094 124.558C153.559 128.601 123.689 139.924 110.046 156.641C111.015 155.127 112.049 153.628 113.148 152.142C115.37 149.138 117.871 146.175 120.675 143.269C120.675 143.264 120.68 143.264 120.68 143.259C121.29 142.626 121.909 141.997 122.547 141.373C118.192 133.142 115.23 125.029 113.367 117.017C112.999 115.433 112.673 113.859 112.389 112.289C111.932 109.755 111.578 107.231 111.322 104.716C111.001 101.623 110.828 98.544 110.782 95.4745H110.633L111.848 75.8277L111.918 74.6819L113.502 49.0497C113.711 45.193 114.909 41.518 116.897 38.3413C117.806 36.8882 118.882 35.5373 120.102 34.317C121.415 33.0128 122.901 31.8577 124.531 30.8981L166.475 6.13706C173.099 2.22907 180.663 3.02093 186.206 6.83108C187.64 7.81382 188.944 9.00625 190.058 10.3664C191.325 11.9174 192.345 13.6827 193.048 15.639V15.6437C193.286 16.2865 193.481 16.9526 193.644 17.6373C193.961 18.9973 194.133 20.432 194.133 21.9271Z"
          fill="white"/>
    <path d="M190.263 18.3639V99.634C190.263 109.844 183.229 118.68 173.294 121.041C153.326 125.792 126.274 137.842 113.148 152.142C115.37 149.138 117.871 146.175 120.675 143.269C120.675 143.264 120.68 143.264 120.68 143.259C121.29 142.626 121.909 141.997 122.547 141.373C118.192 133.142 115.23 125.029 113.367 117.017C112.999 115.433 112.673 113.859 112.389 112.289C111.932 109.755 111.578 107.231 111.322 104.716C111.001 101.623 110.828 98.544 110.782 95.4745H106.711L106.725 89.0234L106.729 86.6013L106.827 49.0544C106.846 41.2106 110.945 33.9397 117.652 29.8688L162.409 2.69019C170.784 -2.39148 180.756 0.137699 186.206 6.83108C186.76 7.5111 187.268 8.23309 187.719 8.99227C188.623 10.5061 189.312 12.1689 189.746 13.9622C189.951 14.8099 190.095 15.6856 190.179 16.5846C190.235 17.1668 190.263 17.763 190.263 18.3639Z"
          fill="#2B3990"/>
    <path d="M186.513 70.038V91.2312C186.513 103.896 178.595 115.247 166.68 119.509C161.91 121.19 157.397 122.932 153.163 124.726C152.767 124.893 152.376 125.061 151.989 125.229C151.118 125.601 150.261 125.979 149.418 126.356C148.939 126.566 148.468 126.78 147.998 126.999C147.523 127.213 147.057 127.427 146.591 127.646C146.13 127.86 145.669 128.079 145.212 128.298C144.923 128.433 144.639 128.568 144.36 128.708C143.992 128.881 143.628 129.058 143.27 129.239C142.809 129.463 142.352 129.691 141.9 129.919C141.449 130.147 141.002 130.371 140.559 130.604C140.275 130.748 139.995 130.893 139.716 131.042C139.357 131.223 139.003 131.414 138.654 131.601C138.291 131.792 137.937 131.983 137.583 132.174C136.851 132.57 136.134 132.97 135.426 133.371C135.072 133.571 134.723 133.771 134.374 133.967C134.29 134.018 134.21 134.065 134.127 134.111C133.754 134.33 133.381 134.549 133.013 134.768C128.318 137.549 124.21 140.385 120.717 143.231C120.707 143.241 120.693 143.25 120.68 143.259C121.29 142.626 121.909 141.997 122.547 141.373C118.192 133.142 115.23 125.029 113.367 117.017C112.999 115.433 112.673 113.859 112.389 112.289C111.932 109.755 111.578 107.231 111.322 104.716C111.001 101.623 110.828 98.544 110.782 95.4745H106.711L106.725 89.0234L106.729 86.6013C107.302 82.1857 109.119 78.0588 111.918 74.6818C112.565 73.89 113.273 73.1447 114.033 72.4414C115.048 71.5006 116.152 70.6435 117.34 69.8842C117.573 69.7352 117.81 69.5909 118.048 69.4511L120.298 68.1236L120.773 67.8442L151.197 49.8788C166.806 40.6656 186.513 51.9143 186.513 70.038Z"
          fill="#E6E7E8"/>
    <path d="M205 34.5918V115.182C205 126.277 195.945 135.933 184.874 136.645C160.257 138.233 120.889 143.846 107.12 161.602C107.153 161.537 107.19 161.472 107.223 161.406C107.228 161.402 107.228 161.397 107.232 161.392C107.712 160.517 108.21 159.641 108.732 158.77C109.156 158.057 109.594 157.349 110.046 156.641C111.015 155.127 112.048 153.628 113.148 152.142C115.369 149.138 117.871 146.175 120.675 143.269C120.675 143.264 120.68 143.264 120.68 143.259C121.29 142.626 121.909 141.997 122.547 141.373C118.192 133.142 115.23 125.029 113.367 117.017L120.773 67.8442L124.052 46.0594C124.662 38.7931 128.756 47.4848 135.035 43.7771L177.342 18.8017C181.497 16.3517 186.019 15.7508 190.179 16.5846C191.371 16.8221 192.531 17.1761 193.644 17.6372C194.813 18.1217 195.927 18.7226 196.975 19.4305C197.254 19.6215 197.534 19.8217 197.804 20.0267C197.804 20.0267 197.808 20.0267 197.813 20.0314C202.098 23.2965 205 28.4388 205 34.5918Z"
          fill="#142453"/>
    <path d="M201.483 31.0751V111.744C201.483 122.62 192.62 132.248 181.781 133.101C157.257 135.034 120.451 143.292 107.232 161.392C107.712 160.517 108.21 159.641 108.732 158.77C109.156 158.057 109.594 157.349 110.046 156.641C111.015 155.127 112.049 153.628 113.148 152.142C115.37 149.138 117.871 146.175 120.675 143.269C120.675 143.264 120.68 143.264 120.68 143.259C121.29 142.626 121.909 141.997 122.547 141.373C118.192 133.142 115.23 125.029 113.367 117.017C112.999 115.433 112.673 113.859 112.389 112.289L117.307 70.1591H117.312L117.34 69.8842L120.535 42.5427C121.145 35.2718 125.239 43.9681 131.518 40.2604L173.825 15.285C179.028 12.2108 184.818 12.0432 189.746 13.9622C190.901 14.4094 192.005 14.973 193.048 15.639V15.6437C194.39 16.5008 195.624 17.5301 196.709 18.7086V18.7132C197.096 19.1324 197.464 19.5703 197.804 20.0267C197.804 20.0267 197.808 20.0267 197.813 20.0314C200.091 23.0357 201.483 26.8132 201.483 31.0751Z"
          fill="white"/>
    <path d="M197.962 25.4438V106.472C197.962 117.236 190.184 126.431 179.564 128.168C155.455 132.108 122.226 142.756 108.732 158.77C109.156 158.057 109.594 157.349 110.046 156.641C111.015 155.127 112.049 153.628 113.148 152.142C115.37 149.138 117.871 146.175 120.675 143.269C120.675 143.264 120.68 143.264 120.68 143.259C121.29 142.626 121.909 141.997 122.547 141.373C118.192 133.142 115.23 125.029 113.367 117.017C112.999 115.433 112.673 113.859 112.389 112.289C111.932 109.755 111.578 107.231 111.322 104.716L113.968 73.2333L114.033 72.4414L116.897 38.3413L117.018 36.9114C117.307 33.4599 118.383 33.609 120.102 34.317C122.007 35.1042 124.704 36.576 128.002 34.6291L170.304 9.6537C176.047 6.26283 182.494 6.41185 187.72 8.99226C188.53 9.39289 189.312 9.85401 190.058 10.3664C192.992 12.3878 195.358 15.2478 196.709 18.7086V18.7132C196.802 18.9508 196.891 19.1883 196.975 19.4305C197.613 21.289 197.962 23.3058 197.962 25.4438Z"
          fill="#142453"/>
    <path d="M194.133 21.9271V102.927C194.133 113.552 186.546 122.681 176.094 124.558C153.559 128.601 123.689 139.924 110.046 156.641C111.015 155.127 112.049 153.628 113.148 152.142C115.37 149.138 117.871 146.175 120.675 143.269C120.675 143.264 120.68 143.264 120.68 143.259C121.29 142.626 121.909 141.997 122.547 141.373C118.192 133.142 115.23 125.029 113.367 117.017C112.999 115.433 112.673 113.859 112.389 112.289C111.932 109.755 111.578 107.231 111.322 104.716C111.001 101.623 110.828 98.544 110.782 95.4745H110.633L111.848 75.8277L111.918 74.6819L113.502 49.0497C113.711 45.193 114.909 41.518 116.897 38.3413C117.806 36.8882 118.882 35.5373 120.102 34.317C121.415 33.0128 122.901 31.8577 124.531 30.8981L166.475 6.13706C173.099 2.22907 180.663 3.02093 186.206 6.83108C187.64 7.81382 188.944 9.00625 190.058 10.3664C191.325 11.9174 192.345 13.6827 193.048 15.639V15.6437C193.286 16.2865 193.481 16.9526 193.644 17.6373C193.961 18.9973 194.133 20.432 194.133 21.9271Z"
          fill="white"/>
    <path d="M190.263 18.3639V99.634C190.263 109.844 183.229 118.68 173.294 121.041C153.326 125.792 126.274 137.842 113.148 152.142C115.37 149.138 117.871 146.175 120.675 143.269C120.675 143.264 120.68 143.264 120.68 143.259C121.29 142.626 121.909 141.997 122.547 141.373C118.192 133.142 115.23 125.029 113.367 117.017C112.999 115.433 112.673 113.859 112.389 112.289C111.932 109.755 111.578 107.231 111.322 104.716C111.001 101.623 110.828 98.544 110.782 95.4745H106.711L106.725 89.0234L106.729 86.6013L106.827 49.0544C106.846 41.2106 110.945 33.9397 117.652 29.8688L162.409 2.69019C170.784 -2.39148 180.756 0.137699 186.206 6.83108C186.76 7.5111 187.268 8.23309 187.719 8.99227C188.623 10.5061 189.312 12.1689 189.746 13.9622C189.951 14.8099 190.095 15.6856 190.179 16.5846C190.235 17.1668 190.263 17.763 190.263 18.3639Z"
          fill="#142453"/>
    <path d="M186.513 68.9388V95.6561C186.513 105.922 179.936 115.014 170.206 118.293C169.014 118.694 167.84 119.099 166.68 119.509C161.91 121.19 157.397 122.933 153.163 124.726C152.767 124.893 152.376 125.061 151.989 125.229C151.118 125.601 150.261 125.979 149.418 126.356C148.939 126.566 148.468 126.78 147.998 126.999C147.523 127.213 147.057 127.427 146.591 127.646C146.13 127.86 145.669 128.079 145.212 128.298C144.923 128.433 144.639 128.568 144.36 128.708C143.992 128.881 143.628 129.058 143.27 129.239C142.809 129.463 142.352 129.691 141.9 129.919C141.449 130.148 141.002 130.376 140.559 130.604C140.275 130.748 139.995 130.893 139.716 131.042C139.357 131.223 139.003 131.414 138.654 131.601C138.291 131.792 137.937 131.983 137.583 132.174C136.851 132.57 136.134 132.97 135.426 133.371C135.072 133.571 134.723 133.771 134.374 133.967C134.29 134.018 134.21 134.065 134.127 134.111C133.754 134.33 133.381 134.549 133.013 134.768C128.318 137.549 124.21 140.385 120.717 143.231C120.703 143.245 120.689 143.255 120.675 143.269C120.675 143.264 120.68 143.264 120.68 143.259C121.29 142.626 121.909 141.997 122.547 141.373C118.192 133.142 115.23 125.029 113.367 117.017C112.999 115.433 112.673 113.859 112.389 112.289C111.932 109.755 111.578 107.231 111.322 104.716C111.001 101.623 110.828 98.544 110.782 95.4745H106.711L106.725 89.0234C107.274 84.2118 109.058 79.6751 111.848 75.8277C112.496 74.9241 113.204 74.0531 113.968 73.2333C114.988 72.1247 116.105 71.0953 117.307 70.1591H117.312C118.257 69.4231 119.25 68.7431 120.298 68.1236L120.773 67.8442L151.197 49.8788L152.143 49.3199C167.332 40.3536 186.513 51.3042 186.513 68.9388Z"
          fill="#D1D3D4"/>
    <path d="M159.882 104.326C162.07 104.326 163.843 102.553 163.843 100.365C163.843 98.1773 162.07 96.4039 159.882 96.4039C157.694 96.4039 155.921 98.1773 155.921 100.365C155.921 102.553 157.694 104.326 159.882 104.326Z"
          fill="#152553"/>
    <path d="M148.401 104.326C150.588 104.326 152.362 102.553 152.362 100.365C152.362 98.1773 150.588 96.4039 148.401 96.4039C146.213 96.4039 144.44 98.1773 144.44 100.365C144.44 102.553 146.213 104.326 148.401 104.326Z"
          fill="#152553"/>
    <path d="M136.92 104.326C139.107 104.326 140.881 102.553 140.881 100.365C140.881 98.1773 139.107 96.4039 136.92 96.4039C134.732 96.4039 132.958 98.1773 132.958 100.365C132.958 102.553 134.732 104.326 136.92 104.326Z"
          fill="#152553"/>
    <path d="M106.105 132.737C106.105 134.484 104.866 135.937 103.217 136.268V131.354H101.783V169.506C101.759 169.446 101.75 169.381 101.75 169.311V136.263C100.12 135.919 98.8947 134.475 98.8947 132.737C98.8947 130.748 100.511 129.132 102.5 129.132C104.494 129.132 106.105 130.748 106.105 132.737Z"
          fill="white"/>
    <path d="M106.105 132.737C106.105 134.484 104.866 135.937 103.217 136.268C103.184 136.277 103.152 136.282 103.119 136.287C102.919 136.324 102.71 136.342 102.5 136.342C102.253 136.342 102.015 136.319 101.783 136.268C101.773 136.268 101.759 136.268 101.75 136.263C100.12 135.919 98.8947 134.475 98.8947 132.737C98.8947 130.748 100.511 129.132 102.5 129.132C104.494 129.132 106.105 130.748 106.105 132.737Z"
          fill="#142453"/>
    <path d="M103.12 132.267V169.311C103.12 169.693 102.812 170 102.435 170C102.123 170 101.862 169.79 101.783 169.506C101.76 169.446 101.75 169.381 101.75 169.311V132.267H103.12Z"
          fill="#142453"/>
    <path d="M47.5284 90.1236V70.5607H52.0558V86.4346H61.8652V90.1236H47.5284Z" fill="#142453"/>
    <path d="M152.702 90.1236V70.5607H157.23V90.1236H152.702ZM139.288 90.1236V70.5607H143.815V90.1236H139.288ZM143.48 82.1028V78.2741H153.037V82.1028H143.48Z"
          fill="#152553"/>
</svg>
