<svg xmlns="http://www.w3.org/2000/svg" xmlns:xlink="http://www.w3.org/1999/xlink" width="1080" zoomAndPan="magnify"
     viewBox="0 0 810 809.999993" height="1080" preserveAspectRatio="xMidYMid meet" version="1.2">
    <defs>
        <clipPath id="3e3713fc38">
            <path d="M 308 212 L 733.5 212 L 733.5 682.078125 L 308 682.078125 Z M 308 212 "/>
        </clipPath>
        <clipPath id="f9761ea36d">
            <path d="M 76.5 127.828125 L 584 127.828125 L 584 611 L 76.5 611 Z M 76.5 127.828125 "/>
        </clipPath>
    </defs>
    <g id="8534edde8e">
        <path style=" stroke:none;fill-rule:nonzero;fill:#152553;fill-opacity:1;"
              d="M 186.449219 364.515625 L 212.074219 364.515625 L 199.257812 340.867188 Z M 186.449219 364.515625 "/>
        <g clip-rule="nonzero" clip-path="url(#3e3713fc38)">
            <path style=" stroke:none;fill-rule:nonzero;fill:#152553;fill-opacity:1;"
                  d="M 581.734375 280.3125 C 581.964844 280.9375 582.191406 281.558594 582.421875 282.179688 C 583.566406 285.355469 584.648438 288.550781 585.671875 291.769531 C 585.886719 292.441406 586.109375 293.109375 586.320312 293.785156 C 587.441406 297.429688 588.492188 301.09375 589.449219 304.789062 C 589.496094 304.96875 589.550781 305.140625 589.59375 305.320312 C 590.601562 309.234375 591.507812 313.171875 592.328125 317.132812 C 592.5 317.941406 592.628906 318.765625 592.789062 319.578125 C 593.386719 322.605469 593.941406 325.640625 594.421875 328.691406 C 594.636719 330.035156 594.824219 331.386719 595.011719 332.730469 C 595.382812 335.335938 595.71875 337.949219 596.011719 340.570312 C 596.171875 342.011719 596.324219 343.457031 596.464844 344.90625 C 596.71875 347.621094 596.917969 350.347656 597.082031 353.074219 C 597.167969 354.367188 597.269531 355.648438 597.328125 356.9375 C 597.511719 360.945312 597.632812 364.964844 597.632812 369 C 597.632812 509.839844 483.042969 624.4375 342.191406 624.4375 C 337.699219 624.4375 333.179688 624.277344 328.667969 624.035156 C 327.871094 623.988281 327.074219 623.960938 326.277344 623.910156 C 322.3125 623.660156 318.347656 623.292969 314.382812 622.851562 C 312.917969 622.6875 311.460938 622.519531 310 622.332031 C 309.523438 622.269531 309.039062 622.226562 308.5625 622.164062 C 352.542969 661.015625 408.238281 682.167969 467.699219 682.167969 C 506.886719 682.167969 545.835938 672.507812 580.351562 654.242188 C 582.445312 653.121094 584.96875 653.128906 587.070312 654.253906 C 638.429688 681.769531 698.757812 677.992188 733.027344 672.480469 C 710.457031 663.113281 678.914062 643.167969 654.296875 601.066406 C 652.789062 598.496094 653.042969 595.257812 654.921875 592.945312 C 689.683594 550.160156 708.828125 496.207031 708.828125 441.03125 C 708.828125 335.589844 642.035156 244.527344 543.785156 212.1875 C 557.539062 229.832031 568.78125 249.066406 577.402344 269.386719 C 577.515625 269.652344 577.621094 269.917969 577.734375 270.183594 C 579.140625 273.535156 580.472656 276.910156 581.734375 280.3125 "/>
        </g>
        <path style=" stroke:none;fill-rule:nonzero;fill:#152553;fill-opacity:1;"
              d="M 499.234375 364.570312 L 486.367188 340.820312 L 473.492188 364.570312 Z M 499.234375 364.570312 "/>
        <g clip-rule="nonzero" clip-path="url(#f9761ea36d)">
            <path style=" stroke:none;fill-rule:nonzero;fill:#152553;fill-opacity:1;"
                  d="M 237.667969 494.847656 L 237.667969 479.140625 C 237.667969 466.886719 247.636719 456.917969 259.890625 456.917969 L 261.324219 456.917969 C 262.714844 445.503906 272.460938 436.636719 284.242188 436.636719 C 285.953125 436.636719 287.367188 435.347656 287.53125 433.648438 L 305.355469 266.230469 C 295.78125 266.71875 286.585938 269.605469 278.507812 274.660156 L 231.777344 303.855469 C 228.238281 306.0625 224.503906 308.042969 220.617188 309.773438 L 255.429688 374 L 263.207031 374 C 270.402344 374 276.265625 379.855469 276.265625 387.058594 L 276.265625 390.972656 C 276.265625 407.851562 262.535156 421.578125 245.660156 421.578125 L 152.863281 421.578125 C 135.988281 421.578125 122.257812 407.851562 122.257812 390.972656 L 122.257812 387.058594 C 122.257812 379.855469 128.113281 374 135.316406 374 L 143.09375 374 L 173.496094 317.898438 L 166.570312 317.898438 C 156.511719 317.898438 148.335938 309.714844 148.335938 299.652344 C 148.335938 289.601562 156.511719 281.417969 166.570312 281.417969 L 182.796875 281.417969 C 193.292969 281.417969 203.546875 278.480469 212.449219 272.914062 L 259.175781 243.722656 C 273.882812 234.542969 290.820312 229.683594 308.160156 229.683594 L 308.949219 229.476562 C 310.695312 211.074219 327.113281 197.253906 345.597656 198.792969 C 361.824219 200.09375 374.804688 213.035156 376.691406 229.683594 L 377.464844 229.683594 C 394.804688 229.683594 411.742188 234.542969 426.449219 243.722656 L 473.175781 272.914062 C 482.074219 278.480469 492.332031 281.417969 502.832031 281.417969 L 519.054688 281.417969 C 529.109375 281.417969 537.292969 289.601562 537.292969 299.652344 C 537.292969 309.714844 529.109375 317.898438 519.054688 317.898438 L 512.132812 317.898438 L 542.53125 374 L 550.308594 374 C 557.511719 374 563.367188 379.855469 563.367188 387.058594 L 563.367188 390.972656 C 563.367188 407.851562 549.636719 421.578125 532.761719 421.578125 L 439.964844 421.578125 C 423.089844 421.578125 409.359375 407.851562 409.359375 390.972656 L 409.359375 387.058594 C 409.359375 379.855469 415.222656 374 422.421875 374 L 430.195312 374 L 465 309.773438 C 461.113281 308.042969 457.382812 306.0625 453.84375 303.847656 L 407.117188 274.660156 C 399.015625 269.59375 389.785156 266.699219 380.269531 266.226562 L 398.089844 433.566406 C 398.257812 435.347656 399.671875 436.636719 401.382812 436.636719 C 413.164062 436.636719 422.910156 445.503906 424.300781 456.917969 L 425.730469 456.917969 C 437.988281 456.917969 447.957031 466.886719 447.957031 479.140625 L 447.957031 494.847656 C 447.957031 498.800781 444.75 502 440.804688 502 L 244.820312 502 C 240.875 502 237.667969 498.800781 237.667969 494.847656 Z M 304.550781 607.050781 C 307.917969 607.585938 311.285156 608.105469 314.660156 608.492188 C 316.519531 608.707031 318.394531 608.839844 320.261719 609.011719 C 322.941406 609.265625 325.621094 609.542969 328.304688 609.703125 C 332.921875 609.96875 337.558594 610.132812 342.191406 610.132812 C 475.152344 610.132812 583.328125 501.960938 583.328125 369 C 583.328125 364.984375 583.214844 361.003906 583.023438 357.042969 C 582.953125 355.664062 582.820312 354.296875 582.734375 352.925781 C 582.5625 350.339844 582.390625 347.761719 582.144531 345.207031 C 581.988281 343.613281 581.761719 342.027344 581.578125 340.441406 C 581.300781 338.109375 581.03125 335.777344 580.691406 333.472656 C 580.453125 331.863281 580.160156 330.269531 579.886719 328.671875 C 579.503906 326.382812 579.113281 324.089844 578.664062 321.824219 C 578.363281 320.304688 578.015625 318.800781 577.683594 317.289062 C 577.167969 314.941406 576.648438 312.589844 576.0625 310.269531 C 575.714844 308.898438 575.339844 307.539062 574.976562 306.179688 C 574.308594 303.707031 573.621094 301.246094 572.875 298.808594 C 572.519531 297.636719 572.140625 296.464844 571.765625 295.296875 C 570.921875 292.675781 570.046875 290.074219 569.117188 287.496094 C 568.773438 286.527344 568.40625 285.5625 568.046875 284.597656 C 567.007812 281.824219 565.925781 279.070312 564.789062 276.347656 C 564.480469 275.59375 564.15625 274.84375 563.835938 274.097656 C 562.578125 271.175781 561.273438 268.285156 559.90625 265.425781 C 559.648438 264.875 559.386719 264.328125 559.125 263.785156 C 557.640625 260.753906 556.105469 257.753906 554.507812 254.796875 C 554.304688 254.417969 554.101562 254.03125 553.894531 253.652344 C 552.207031 250.574219 550.460938 247.53125 548.640625 244.535156 C 548.480469 244.261719 548.320312 243.988281 548.15625 243.722656 C 546.285156 240.65625 544.34375 237.636719 542.339844 234.667969 C 542.195312 234.449219 542.054688 234.234375 541.90625 234.019531 C 539.886719 231.03125 537.792969 228.097656 535.644531 225.214844 C 535.484375 225 535.328125 224.789062 535.171875 224.574219 C 533.035156 221.726562 530.828125 218.921875 528.566406 216.171875 C 528.367188 215.925781 528.164062 215.683594 527.964844 215.4375 C 525.726562 212.730469 523.414062 210.074219 521.054688 207.46875 C 520.824219 207.203125 520.589844 206.9375 520.351562 206.671875 C 476.214844 158.28125 412.691406 127.863281 342.191406 127.863281 C 209.234375 127.863281 101.058594 236.03125 101.058594 369 C 101.058594 424.171875 120.203125 478.125 154.96875 520.90625 C 156.84375 523.222656 157.097656 526.457031 155.59375 529.03125 C 130.972656 571.128906 99.4375 591.074219 76.859375 600.445312 C 111.136719 605.949219 171.453125 609.726562 222.820312 582.21875 C 223.871094 581.652344 225.03125 581.367188 226.195312 581.367188 C 227.347656 581.367188 228.496094 581.644531 229.539062 582.199219 C 248.746094 592.371094 269.355469 599.761719 290.585938 604.414062 C 294.089844 605.183594 297.605469 605.910156 301.121094 606.527344 C 302.261719 606.71875 303.414062 606.871094 304.550781 607.050781 "/>
        </g>
    </g>
</svg>
